<ttFont>
    <TTGlyph name="A" xMin="2" yMin="0" xMax="632" yMax="727">
      <contour>
        <pt x="352" y="727" on="1"/>
        <pt x="459" y="727" on="1"/>
        <pt x="632" y="0" on="1"/>
        <pt x="516" y="0" on="1"/>
        <pt x="390" y="573" on="1"/>
        <pt x="387" y="604" on="1"/>
        <pt x="375" y="572" on="1"/>
        <pt x="234" y="269" on="1"/>
        <pt x="220" y="249" on="1"/>
        <pt x="232" y="251" on="1"/>
        <pt x="350" y="251" on="1"/>
        <pt x="369" y="251" on="0"/>
        <pt x="396" y="237" on="0"/>
        <pt x="415" y="214" on="0"/>
        <pt x="427" y="185" on="0"/>
        <pt x="430" y="170" on="1"/>
        <pt x="188" y="170" on="1"/>
        <pt x="110" y="0" on="1"/>
        <pt x="2" y="0" on="1"/>
      </contour>
    </TTGlyph>
    <TTGlyph name="AE" xMin="-19" yMin="0" xMax="899" yMax="727">
      <contour>
        <pt x="717" y="421" on="1"/>
        <pt x="871" y="421" on="1"/>
        <pt x="861" y="342" on="1"/>
        <pt x="616" y="342" on="1"/>
        <pt x="623" y="357" on="0"/>
        <pt x="641" y="386" on="0"/>
        <pt x="665" y="408" on="0"/>
        <pt x="697" y="421" on="0"/>
      </contour>
      <contour>
        <pt x="491" y="0" on="1"/>
        <pt x="473" y="536" on="1"/>
        <pt x="472" y="549" on="0"/>
        <pt x="472" y="576" on="0"/>
        <pt x="472" y="590" on="1"/>
        <pt x="474" y="629" on="1"/>
        <pt x="455" y="590" on="1"/>
        <pt x="257" y="269" on="1"/>
        <pt x="239" y="249" on="1"/>
        <pt x="258" y="251" on="1"/>
        <pt x="368" y="251" on="1"/>
        <pt x="387" y="251" on="0"/>
        <pt x="414" y="237" on="0"/>
        <pt x="433" y="214" on="0"/>
        <pt x="445" y="185" on="0"/>
        <pt x="448" y="170" on="1"/>
        <pt x="196" y="170" on="1"/>
        <pt x="92" y="0" on="1"/>
        <pt x="-19" y="0" on="1"/>
        <pt x="440" y="727" on="1"/>
        <pt x="899" y="727" on="1"/>
        <pt x="889" y="646" on="1"/>
        <pt x="573" y="646" on="1"/>
        <pt x="589" y="81" on="1"/>
        <pt x="889" y="81" on="1"/>
        <pt x="880" y="0" on="1"/>
      </contour>
    </TTGlyph>
    <TTGlyph name="Aacute" xMin="2" yMin="0" xMax="632" yMax="890">
      <contour>
        <pt x="568" y="890" on="1"/>
        <pt x="473" y="797" on="1"/>
        <pt x="447" y="771" on="0"/>
        <pt x="381" y="759" on="0"/>
        <pt x="358" y="766" on="1"/>
        <pt x="461" y="890" on="1"/>
      </contour>
      <contour>
        <pt x="353" y="727" on="1"/>
        <pt x="460" y="727" on="1"/>
        <pt x="632" y="0" on="1"/>
        <pt x="517" y="0" on="1"/>
        <pt x="386" y="597" on="1"/>
        <pt x="235" y="269" on="1"/>
        <pt x="220" y="249" on="1"/>
        <pt x="233" y="251" on="1"/>
        <pt x="351" y="251" on="1"/>
        <pt x="370" y="251" on="0"/>
        <pt x="397" y="237" on="0"/>
        <pt x="415" y="214" on="0"/>
        <pt x="427" y="185" on="0"/>
        <pt x="430" y="170" on="1"/>
        <pt x="189" y="170" on="1"/>
        <pt x="111" y="0" on="1"/>
        <pt x="2" y="0" on="1"/>
      </contour>
    </TTGlyph>
    <TTGlyph name="Acircumflex" xMin="2" yMin="0" xMax="632" yMax="890">
      <contour>
        <pt x="387" y="890" on="1"/>
        <pt x="458" y="890" on="1"/>
        <pt x="553" y="771" on="1"/>
        <pt x="491" y="760" on="1"/>
        <pt x="413" y="818" on="1"/>
        <pt x="321" y="760" on="1"/>
        <pt x="264" y="771" on="1"/>
      </contour>
      <contour>
        <pt x="353" y="727" on="1"/>
        <pt x="459" y="727" on="1"/>
        <pt x="632" y="0" on="1"/>
        <pt x="517" y="0" on="1"/>
        <pt x="386" y="597" on="1"/>
        <pt x="234" y="269" on="1"/>
        <pt x="220" y="249" on="1"/>
        <pt x="233" y="251" on="1"/>
        <pt x="351" y="251" on="1"/>
        <pt x="370" y="251" on="0"/>
        <pt x="397" y="237" on="0"/>
        <pt x="415" y="214" on="0"/>
        <pt x="427" y="185" on="0"/>
        <pt x="430" y="170" on="1"/>
        <pt x="188" y="170" on="1"/>
        <pt x="110" y="0" on="1"/>
        <pt x="2" y="0" on="1"/>
      </contour>
    </TTGlyph>
    <TTGlyph name="Adieresis" xMin="2" yMin="0" xMax="632" yMax="895">
      <contour>
        <pt x="461" y="840" on="1"/>
        <pt x="463" y="863" on="0"/>
        <pt x="500" y="895" on="0"/>
        <pt x="523" y="895" on="1"/>
        <pt x="546" y="895" on="0"/>
        <pt x="574" y="863" on="0"/>
        <pt x="572" y="840" on="1"/>
        <pt x="569" y="817" on="0"/>
        <pt x="533" y="785" on="0"/>
        <pt x="510" y="785" on="1"/>
        <pt x="487" y="785" on="0"/>
        <pt x="458" y="817" on="0"/>
      </contour>
      <contour>
        <pt x="267" y="840" on="1"/>
        <pt x="269" y="863" on="0"/>
        <pt x="305" y="895" on="0"/>
        <pt x="328" y="895" on="1"/>
        <pt x="351" y="895" on="0"/>
        <pt x="380" y="863" on="0"/>
        <pt x="378" y="840" on="1"/>
        <pt x="375" y="817" on="0"/>
        <pt x="338" y="785" on="0"/>
        <pt x="315" y="785" on="1"/>
        <pt x="292" y="785" on="0"/>
        <pt x="264" y="817" on="0"/>
      </contour>
      <contour>
        <pt x="353" y="727" on="1"/>
        <pt x="459" y="727" on="1"/>
        <pt x="632" y="0" on="1"/>
        <pt x="517" y="0" on="1"/>
        <pt x="386" y="597" on="1"/>
        <pt x="234" y="269" on="1"/>
        <pt x="220" y="249" on="1"/>
        <pt x="233" y="251" on="1"/>
        <pt x="351" y="251" on="1"/>
        <pt x="370" y="251" on="0"/>
        <pt x="397" y="237" on="0"/>
        <pt x="415" y="214" on="0"/>
        <pt x="427" y="185" on="0"/>
        <pt x="430" y="170" on="1"/>
        <pt x="188" y="170" on="1"/>
        <pt x="110" y="0" on="1"/>
        <pt x="2" y="0" on="1"/>
      </contour>
    </TTGlyph>
    <TTGlyph name="Agrave" xMin="2" yMin="0" xMax="632" yMax="890">
      <contour>
        <pt x="363" y="797" on="1"/>
        <pt x="305" y="890" on="1"/>
        <pt x="411" y="890" on="1"/>
        <pt x="470" y="766" on="1"/>
        <pt x="456" y="763" on="0"/>
        <pt x="426" y="762" on="0"/>
        <pt x="396" y="769" on="0"/>
        <pt x="371" y="784" on="0"/>
      </contour>
      <contour>
        <pt x="353" y="727" on="1"/>
        <pt x="459" y="727" on="1"/>
        <pt x="632" y="0" on="1"/>
        <pt x="517" y="0" on="1"/>
        <pt x="386" y="597" on="1"/>
        <pt x="234" y="269" on="1"/>
        <pt x="220" y="249" on="1"/>
        <pt x="233" y="251" on="1"/>
        <pt x="351" y="251" on="1"/>
        <pt x="370" y="251" on="0"/>
        <pt x="397" y="237" on="0"/>
        <pt x="415" y="214" on="0"/>
        <pt x="427" y="185" on="0"/>
        <pt x="430" y="170" on="1"/>
        <pt x="188" y="170" on="1"/>
        <pt x="110" y="0" on="1"/>
        <pt x="2" y="0" on="1"/>
      </contour>
    </TTGlyph>
    <TTGlyph name="Aring" xMin="0" yMin="0" xMax="630" yMax="892">
      <contour>
        <pt x="405" y="754" on="1"/>
        <pt x="427" y="754" on="0"/>
        <pt x="455" y="782" on="0"/>
        <pt x="457" y="802" on="1"/>
        <pt x="459" y="822" on="0"/>
        <pt x="439" y="850" on="0"/>
        <pt x="417" y="850" on="1"/>
        <pt x="397" y="850" on="0"/>
        <pt x="369" y="822" on="0"/>
        <pt x="367" y="800" on="1"/>
        <pt x="365" y="783" on="0"/>
        <pt x="385" y="754" on="0"/>
      </contour>
      <contour>
        <pt x="109" y="0" on="1"/>
        <pt x="0" y="0" on="1"/>
        <pt x="348" y="724" on="1"/>
        <pt x="327" y="735" on="0"/>
        <pt x="307" y="774" on="0"/>
        <pt x="310" y="800" on="1"/>
        <pt x="315" y="840" on="0"/>
        <pt x="378" y="892" on="0"/>
        <pt x="423" y="892" on="1"/>
        <pt x="468" y="892" on="0"/>
        <pt x="517" y="842" on="0"/>
        <pt x="512" y="801" on="1"/>
        <pt x="509" y="776" on="0"/>
        <pt x="479" y="736" on="0"/>
        <pt x="458" y="725" on="1"/>
        <pt x="630" y="0" on="1"/>
        <pt x="515" y="0" on="1"/>
        <pt x="485" y="137" on="0"/>
        <pt x="425" y="404" on="0"/>
        <pt x="396" y="540" on="1"/>
        <pt x="384" y="596" on="1"/>
        <pt x="358" y="539" on="1"/>
        <pt x="326" y="471" on="0"/>
        <pt x="265" y="337" on="0"/>
        <pt x="233" y="269" on="1"/>
        <pt x="218" y="249" on="1"/>
        <pt x="231" y="251" on="1"/>
        <pt x="349" y="251" on="1"/>
        <pt x="368" y="251" on="0"/>
        <pt x="395" y="237" on="0"/>
        <pt x="413" y="214" on="0"/>
        <pt x="425" y="185" on="0"/>
        <pt x="428" y="170" on="1"/>
        <pt x="187" y="170" on="1"/>
      </contour>
    </TTGlyph>
    <TTGlyph name="Atilde" xMin="2" yMin="0" xMax="632" yMax="894">
      <contour>
        <pt x="327" y="777" on="1"/>
        <pt x="267" y="783" on="1"/>
        <pt x="275" y="839" on="0"/>
        <pt x="336" y="894" on="0"/>
        <pt x="372" y="894" on="1"/>
        <pt x="394" y="894" on="0"/>
        <pt x="423" y="877" on="0"/>
        <pt x="447" y="856" on="0"/>
        <pt x="469" y="839" on="0"/>
        <pt x="484" y="839" on="1"/>
        <pt x="498" y="839" on="0"/>
        <pt x="516" y="867" on="0"/>
        <pt x="521" y="893" on="1"/>
        <pt x="579" y="887" on="1"/>
        <pt x="574" y="855" on="0"/>
        <pt x="552" y="813" on="0"/>
        <pt x="524" y="787" on="0"/>
        <pt x="493" y="776" on="0"/>
        <pt x="479" y="776" on="1"/>
        <pt x="455" y="776" on="0"/>
        <pt x="424" y="793" on="0"/>
        <pt x="402" y="814" on="0"/>
        <pt x="382" y="831" on="0"/>
        <pt x="369" y="831" on="1"/>
        <pt x="357" y="831" on="0"/>
        <pt x="333" y="807" on="0"/>
      </contour>
      <contour>
        <pt x="353" y="727" on="1"/>
        <pt x="459" y="727" on="1"/>
        <pt x="632" y="0" on="1"/>
        <pt x="517" y="0" on="1"/>
        <pt x="386" y="597" on="1"/>
        <pt x="234" y="269" on="1"/>
        <pt x="220" y="249" on="1"/>
        <pt x="233" y="251" on="1"/>
        <pt x="351" y="251" on="1"/>
        <pt x="370" y="251" on="0"/>
        <pt x="397" y="237" on="0"/>
        <pt x="415" y="214" on="0"/>
        <pt x="427" y="185" on="0"/>
        <pt x="430" y="170" on="1"/>
        <pt x="188" y="170" on="1"/>
        <pt x="110" y="0" on="1"/>
        <pt x="2" y="0" on="1"/>
      </contour>
    </TTGlyph>
    <TTGlyph name="B" xMin="90" yMin="-12" xMax="641" yMax="740">
      <contour>
        <pt x="342" y="72" on="1"/>
        <pt x="351" y="70" on="0"/>
        <pt x="365" y="69" on="0"/>
        <pt x="374" y="69" on="1"/>
        <pt x="401" y="69" on="0"/>
        <pt x="450" y="89" on="0"/>
        <pt x="489" y="125" on="0"/>
        <pt x="515" y="173" on="0"/>
        <pt x="518" y="202" on="1"/>
        <pt x="522" y="237" on="0"/>
        <pt x="500" y="290" on="0"/>
        <pt x="454" y="325" on="0"/>
        <pt x="387" y="343" on="0"/>
        <pt x="348" y="343" on="1"/>
        <pt x="240" y="343" on="1"/>
        <pt x="198" y="0" on="1"/>
        <pt x="90" y="0" on="1"/>
        <pt x="178" y="717" on="1"/>
        <pt x="243" y="729" on="0"/>
        <pt x="342" y="740" on="0"/>
        <pt x="396" y="740" on="1"/>
        <pt x="461" y="740" on="0"/>
        <pt x="555" y="710" on="0"/>
        <pt x="613" y="658" on="0"/>
        <pt x="637" y="586" on="0"/>
        <pt x="632" y="544" on="1"/>
        <pt x="630" y="526" on="0"/>
        <pt x="614" y="485" on="0"/>
        <pt x="590" y="447" on="0"/>
        <pt x="557" y="414" on="0"/>
        <pt x="537" y="402" on="1"/>
        <pt x="506" y="388" on="1"/>
        <pt x="533" y="381" on="1"/>
        <pt x="587" y="356" on="0"/>
        <pt x="641" y="264" on="0"/>
        <pt x="634" y="205" on="1"/>
        <pt x="629" y="166" on="0"/>
        <pt x="587" y="89" on="0"/>
        <pt x="518" y="27" on="0"/>
        <pt x="425" y="-12" on="0"/>
        <pt x="369" y="-12" on="1"/>
        <pt x="340" y="-12" on="0"/>
        <pt x="282" y="-5" on="0"/>
        <pt x="238" y="6" on="1"/>
        <pt x="247" y="19" on="0"/>
        <pt x="269" y="44" on="0"/>
        <pt x="295" y="64" on="0"/>
        <pt x="325" y="74" on="0"/>
      </contour>
      <contour>
        <pt x="249" y="419" on="1"/>
        <pt x="357" y="419" on="1"/>
        <pt x="426" y="419" on="0"/>
        <pt x="513" y="489" on="0"/>
        <pt x="520" y="543" on="1"/>
        <pt x="523" y="566" on="0"/>
        <pt x="510" y="608" on="0"/>
        <pt x="477" y="639" on="0"/>
        <pt x="423" y="658" on="0"/>
        <pt x="386" y="658" on="1"/>
        <pt x="332" y="658" on="0"/>
        <pt x="278" y="652" on="1"/>
      </contour>
    </TTGlyph>
    <TTGlyph name="C" xMin="76" yMin="-12" xMax="675" yMax="740">
      <contour>
        <pt x="410" y="-12" on="1"/>
        <pt x="329" y="-12" on="0"/>
        <pt x="199" y="42" on="0"/>
        <pt x="114" y="140" on="0"/>
        <pt x="76" y="278" on="0"/>
        <pt x="87" y="363" on="1"/>
        <pt x="97" y="445" on="0"/>
        <pt x="169" y="583" on="0"/>
        <pt x="279" y="684" on="0"/>
        <pt x="421" y="740" on="0"/>
        <pt x="502" y="740" on="1"/>
        <pt x="588" y="740" on="0"/>
        <pt x="675" y="706" on="1"/>
        <pt x="637" y="633" on="1"/>
        <pt x="595" y="647" on="0"/>
        <pt x="527" y="658" on="0"/>
        <pt x="492" y="658" on="1"/>
        <pt x="438" y="658" on="0"/>
        <pt x="341" y="618" on="0"/>
        <pt x="264" y="541" on="0"/>
        <pt x="213" y="432" on="0"/>
        <pt x="204" y="363" on="1"/>
        <pt x="196" y="300" on="0"/>
        <pt x="221" y="192" on="0"/>
        <pt x="279" y="113" on="0"/>
        <pt x="366" y="69" on="0"/>
        <pt x="420" y="69" on="1"/>
        <pt x="455" y="69" on="0"/>
        <pt x="530" y="87" on="0"/>
        <pt x="573" y="107" on="1"/>
        <pt x="593" y="34" on="1"/>
        <pt x="544" y="10" on="0"/>
        <pt x="452" y="-12" on="0"/>
      </contour>
    </TTGlyph>
    <TTGlyph name="Ccedilla" xMin="81" yMin="-208" xMax="678" yMax="740">
      <contour>
        <pt x="413" y="-12" on="1"/>
        <pt x="404" y="-12" on="0"/>
        <pt x="386" y="-11" on="0"/>
        <pt x="378" y="-10" on="1"/>
        <pt x="364" y="-48" on="1"/>
        <pt x="378" y="-50" on="0"/>
        <pt x="406" y="-62" on="0"/>
        <pt x="426" y="-81" on="0"/>
        <pt x="437" y="-107" on="0"/>
        <pt x="435" y="-123" on="1"/>
        <pt x="432" y="-146" on="0"/>
        <pt x="407" y="-178" on="0"/>
        <pt x="371" y="-198" on="0"/>
        <pt x="328" y="-208" on="0"/>
        <pt x="307" y="-208" on="1"/>
        <pt x="290" y="-208" on="0"/>
        <pt x="252" y="-200" on="0"/>
        <pt x="229" y="-189" on="1"/>
        <pt x="251" y="-142" on="1"/>
        <pt x="269" y="-150" on="0"/>
        <pt x="298" y="-155" on="0"/>
        <pt x="313" y="-155" on="1"/>
        <pt x="330" y="-155" on="0"/>
        <pt x="364" y="-142" on="0"/>
        <pt x="366" y="-126" on="1"/>
        <pt x="368" y="-108" on="0"/>
        <pt x="332" y="-90" on="0"/>
        <pt x="297" y="-86" on="1"/>
        <pt x="328" y="-4" on="1"/>
        <pt x="266" y="9" on="0"/>
        <pt x="169" y="72" on="0"/>
        <pt x="106" y="167" on="0"/>
        <pt x="81" y="291" on="0"/>
        <pt x="90" y="363" on="1"/>
        <pt x="100" y="445" on="0"/>
        <pt x="172" y="583" on="0"/>
        <pt x="282" y="684" on="0"/>
        <pt x="424" y="740" on="0"/>
        <pt x="505" y="740" on="1"/>
        <pt x="591" y="740" on="0"/>
        <pt x="678" y="706" on="1"/>
        <pt x="640" y="633" on="1"/>
        <pt x="598" y="647" on="0"/>
        <pt x="530" y="658" on="0"/>
        <pt x="495" y="658" on="1"/>
        <pt x="441" y="658" on="0"/>
        <pt x="344" y="618" on="0"/>
        <pt x="267" y="541" on="0"/>
        <pt x="216" y="432" on="0"/>
        <pt x="207" y="363" on="1"/>
        <pt x="199" y="295" on="0"/>
        <pt x="224" y="187" on="0"/>
        <pt x="282" y="110" on="0"/>
        <pt x="369" y="69" on="0"/>
        <pt x="423" y="69" on="1"/>
        <pt x="458" y="69" on="0"/>
        <pt x="533" y="87" on="0"/>
        <pt x="576" y="107" on="1"/>
        <pt x="596" y="34" on="1"/>
        <pt x="547" y="10" on="0"/>
        <pt x="455" y="-12" on="0"/>
      </contour>
    </TTGlyph>
    <TTGlyph name="D" xMin="90" yMin="-12" xMax="763" yMax="740">
      <contour>
        <pt x="369" y="-12" on="1"/>
        <pt x="337" y="-12" on="0"/>
        <pt x="280" y="-6" on="0"/>
        <pt x="238" y="5" on="1"/>
        <pt x="255" y="31" on="0"/>
        <pt x="306" y="72" on="0"/>
        <pt x="342" y="70" on="1"/>
        <pt x="353" y="69" on="0"/>
        <pt x="366" y="69" on="0"/>
        <pt x="374" y="69" on="1"/>
        <pt x="425" y="69" on="0"/>
        <pt x="513" y="117" on="0"/>
        <pt x="582" y="199" on="0"/>
        <pt x="628" y="306" on="0"/>
        <pt x="635" y="365" on="1"/>
        <pt x="644" y="434" on="0"/>
        <pt x="622" y="542" on="0"/>
        <pt x="560" y="618" on="0"/>
        <pt x="456" y="658" on="0"/>
        <pt x="383" y="658" on="1"/>
        <pt x="356" y="658" on="0"/>
        <pt x="302" y="654" on="0"/>
        <pt x="278" y="651" on="1"/>
        <pt x="199" y="0" on="1"/>
        <pt x="90" y="0" on="1"/>
        <pt x="177" y="715" on="1"/>
        <pt x="232" y="728" on="0"/>
        <pt x="349" y="740" on="0"/>
        <pt x="393" y="740" on="1"/>
        <pt x="490" y="740" on="0"/>
        <pt x="634" y="689" on="0"/>
        <pt x="726" y="592" on="0"/>
        <pt x="763" y="453" on="0"/>
        <pt x="752" y="365" on="1"/>
        <pt x="742" y="284" on="0"/>
        <pt x="672" y="146" on="0"/>
        <pt x="569" y="45" on="0"/>
        <pt x="439" y="-12" on="0"/>
      </contour>
    </TTGlyph>
    <TTGlyph name="E" xMin="91" yMin="0" xMax="601" yMax="727">
      <contour>
        <pt x="379" y="421" on="1"/>
        <pt x="529" y="421" on="1"/>
        <pt x="519" y="342" on="1"/>
        <pt x="279" y="342" on="1"/>
        <pt x="286" y="357" on="0"/>
        <pt x="305" y="385" on="0"/>
        <pt x="329" y="407" on="0"/>
        <pt x="360" y="421" on="0"/>
      </contour>
      <contour>
        <pt x="91" y="0" on="1"/>
        <pt x="180" y="727" on="1"/>
        <pt x="601" y="727" on="1"/>
        <pt x="591" y="646" on="1"/>
        <pt x="279" y="646" on="1"/>
        <pt x="209" y="81" on="1"/>
        <pt x="536" y="81" on="1"/>
        <pt x="527" y="0" on="1"/>
      </contour>
    </TTGlyph>
    <TTGlyph name="Eacute" xMin="91" yMin="0" xMax="600" yMax="890">
      <contour>
        <pt x="557" y="890" on="1"/>
        <pt x="462" y="797" on="1"/>
        <pt x="436" y="771" on="0"/>
        <pt x="370" y="759" on="0"/>
        <pt x="347" y="766" on="1"/>
        <pt x="450" y="890" on="1"/>
      </contour>
      <contour>
        <pt x="379" y="421" on="1"/>
        <pt x="528" y="421" on="1"/>
        <pt x="518" y="342" on="1"/>
        <pt x="279" y="342" on="1"/>
        <pt x="286" y="357" on="0"/>
        <pt x="304" y="385" on="0"/>
        <pt x="329" y="407" on="0"/>
        <pt x="360" y="421" on="0"/>
      </contour>
      <contour>
        <pt x="91" y="0" on="1"/>
        <pt x="180" y="727" on="1"/>
        <pt x="600" y="727" on="1"/>
        <pt x="590" y="646" on="1"/>
        <pt x="279" y="646" on="1"/>
        <pt x="209" y="81" on="1"/>
        <pt x="535" y="81" on="1"/>
        <pt x="526" y="0" on="1"/>
      </contour>
    </TTGlyph>
    <TTGlyph name="Ecircumflex" xMin="91" yMin="0" xMax="600" yMax="890">
      <contour>
        <pt x="384" y="890" on="1"/>
        <pt x="455" y="890" on="1"/>
        <pt x="550" y="771" on="1"/>
        <pt x="488" y="760" on="1"/>
        <pt x="410" y="818" on="1"/>
        <pt x="318" y="760" on="1"/>
        <pt x="261" y="771" on="1"/>
      </contour>
      <contour>
        <pt x="379" y="421" on="1"/>
        <pt x="528" y="421" on="1"/>
        <pt x="518" y="342" on="1"/>
        <pt x="279" y="342" on="1"/>
        <pt x="286" y="357" on="0"/>
        <pt x="304" y="385" on="0"/>
        <pt x="329" y="407" on="0"/>
        <pt x="360" y="421" on="0"/>
      </contour>
      <contour>
        <pt x="91" y="0" on="1"/>
        <pt x="180" y="727" on="1"/>
        <pt x="600" y="727" on="1"/>
        <pt x="590" y="646" on="1"/>
        <pt x="279" y="646" on="1"/>
        <pt x="209" y="81" on="1"/>
        <pt x="535" y="81" on="1"/>
        <pt x="526" y="0" on="1"/>
      </contour>
    </TTGlyph>
    <TTGlyph name="Edieresis" xMin="91" yMin="0" xMax="600" yMax="895">
      <contour>
        <pt x="453" y="840" on="1"/>
        <pt x="455" y="863" on="0"/>
        <pt x="492" y="895" on="0"/>
        <pt x="515" y="895" on="1"/>
        <pt x="538" y="895" on="0"/>
        <pt x="566" y="863" on="0"/>
        <pt x="564" y="840" on="1"/>
        <pt x="561" y="817" on="0"/>
        <pt x="525" y="785" on="0"/>
        <pt x="502" y="785" on="1"/>
        <pt x="479" y="785" on="0"/>
        <pt x="450" y="817" on="0"/>
      </contour>
      <contour>
        <pt x="259" y="840" on="1"/>
        <pt x="261" y="863" on="0"/>
        <pt x="297" y="895" on="0"/>
        <pt x="320" y="895" on="1"/>
        <pt x="343" y="895" on="0"/>
        <pt x="372" y="863" on="0"/>
        <pt x="370" y="840" on="1"/>
        <pt x="367" y="817" on="0"/>
        <pt x="330" y="785" on="0"/>
        <pt x="307" y="785" on="1"/>
        <pt x="284" y="785" on="0"/>
        <pt x="256" y="817" on="0"/>
      </contour>
      <contour>
        <pt x="379" y="421" on="1"/>
        <pt x="528" y="421" on="1"/>
        <pt x="518" y="342" on="1"/>
        <pt x="279" y="342" on="1"/>
        <pt x="286" y="357" on="0"/>
        <pt x="304" y="385" on="0"/>
        <pt x="329" y="407" on="0"/>
        <pt x="360" y="421" on="0"/>
      </contour>
      <contour>
        <pt x="91" y="0" on="1"/>
        <pt x="180" y="727" on="1"/>
        <pt x="600" y="727" on="1"/>
        <pt x="590" y="646" on="1"/>
        <pt x="279" y="646" on="1"/>
        <pt x="209" y="81" on="1"/>
        <pt x="535" y="81" on="1"/>
        <pt x="526" y="0" on="1"/>
      </contour>
    </TTGlyph>
    <TTGlyph name="Egrave" xMin="91" yMin="0" xMax="600" yMax="890">
      <contour>
        <pt x="357" y="797" on="1"/>
        <pt x="299" y="890" on="1"/>
        <pt x="405" y="890" on="1"/>
        <pt x="464" y="766" on="1"/>
        <pt x="450" y="763" on="0"/>
        <pt x="420" y="762" on="0"/>
        <pt x="390" y="769" on="0"/>
        <pt x="365" y="784" on="0"/>
      </contour>
      <contour>
        <pt x="379" y="421" on="1"/>
        <pt x="528" y="421" on="1"/>
        <pt x="518" y="342" on="1"/>
        <pt x="279" y="342" on="1"/>
        <pt x="286" y="357" on="0"/>
        <pt x="304" y="385" on="0"/>
        <pt x="329" y="407" on="0"/>
        <pt x="360" y="421" on="0"/>
      </contour>
      <contour>
        <pt x="91" y="0" on="1"/>
        <pt x="180" y="727" on="1"/>
        <pt x="600" y="727" on="1"/>
        <pt x="590" y="646" on="1"/>
        <pt x="279" y="646" on="1"/>
        <pt x="209" y="81" on="1"/>
        <pt x="535" y="81" on="1"/>
        <pt x="526" y="0" on="1"/>
      </contour>
    </TTGlyph>
    <TTGlyph name="Eth" xMin="52" yMin="-12" xMax="766" yMax="740">
      <contour>
        <pt x="52" y="319" on="1"/>
        <pt x="61" y="392" on="1"/>
        <pt x="143" y="392" on="1"/>
        <pt x="182" y="715" on="1"/>
        <pt x="236" y="728" on="0"/>
        <pt x="353" y="740" on="0"/>
        <pt x="397" y="740" on="1"/>
        <pt x="494" y="740" on="0"/>
        <pt x="638" y="687" on="0"/>
        <pt x="729" y="589" on="0"/>
        <pt x="766" y="450" on="0"/>
        <pt x="756" y="365" on="1"/>
        <pt x="746" y="284" on="0"/>
        <pt x="676" y="146" on="0"/>
        <pt x="573" y="45" on="0"/>
        <pt x="443" y="-12" on="0"/>
        <pt x="373" y="-12" on="1"/>
        <pt x="341" y="-12" on="0"/>
        <pt x="284" y="-6" on="0"/>
        <pt x="242" y="5" on="1"/>
        <pt x="259" y="31" on="0"/>
        <pt x="311" y="72" on="0"/>
        <pt x="346" y="70" on="1"/>
        <pt x="357" y="69" on="0"/>
        <pt x="370" y="69" on="0"/>
        <pt x="378" y="69" on="1"/>
        <pt x="429" y="69" on="0"/>
        <pt x="518" y="117" on="0"/>
        <pt x="587" y="199" on="0"/>
        <pt x="633" y="306" on="0"/>
        <pt x="640" y="365" on="1"/>
        <pt x="649" y="434" on="0"/>
        <pt x="627" y="542" on="0"/>
        <pt x="564" y="618" on="0"/>
        <pt x="460" y="658" on="0"/>
        <pt x="387" y="658" on="1"/>
        <pt x="360" y="658" on="0"/>
        <pt x="307" y="654" on="0"/>
        <pt x="282" y="651" on="1"/>
        <pt x="251" y="392" on="1"/>
        <pt x="471" y="392" on="1"/>
        <pt x="462" y="319" on="1"/>
        <pt x="242" y="319" on="1"/>
        <pt x="203" y="0" on="1"/>
        <pt x="95" y="0" on="1"/>
        <pt x="134" y="319" on="1"/>
      </contour>
    </TTGlyph>
    <TTGlyph name="Euro" xMin="68" yMin="-11" xMax="657" yMax="713">
      <contour>
        <pt x="394" y="467" on="1"/>
        <pt x="549" y="467" on="1"/>
        <pt x="541" y="400" on="1"/>
        <pt x="301" y="400" on="1"/>
        <pt x="314" y="429" on="0"/>
        <pt x="359" y="467" on="0"/>
      </contour>
      <contour>
        <pt x="68" y="248" on="1"/>
        <pt x="76" y="315" on="1"/>
        <pt x="146" y="315" on="1"/>
        <pt x="147" y="323" on="0"/>
        <pt x="148" y="341" on="0"/>
        <pt x="149" y="350" on="1"/>
        <pt x="151" y="363" on="0"/>
        <pt x="155" y="387" on="0"/>
        <pt x="158" y="400" on="1"/>
        <pt x="87" y="400" on="1"/>
        <pt x="95" y="467" on="1"/>
        <pt x="177" y="467" on="1"/>
        <pt x="197" y="522" on="0"/>
        <pt x="260" y="613" on="0"/>
        <pt x="341" y="677" on="0"/>
        <pt x="441" y="713" on="0"/>
        <pt x="498" y="713" on="1"/>
        <pt x="539" y="713" on="0"/>
        <pt x="612" y="700" on="0"/>
        <pt x="657" y="682" on="1"/>
        <pt x="619" y="609" on="1"/>
        <pt x="579" y="624" on="0"/>
        <pt x="519" y="634" on="0"/>
        <pt x="488" y="634" on="1"/>
        <pt x="444" y="634" on="0"/>
        <pt x="366" y="592" on="0"/>
        <pt x="305" y="517" on="0"/>
        <pt x="263" y="412" on="0"/>
        <pt x="255" y="350" on="1"/>
        <pt x="254" y="341" on="0"/>
        <pt x="253" y="323" on="0"/>
        <pt x="252" y="315" on="1"/>
        <pt x="530" y="315" on="1"/>
        <pt x="522" y="248" on="1"/>
        <pt x="292" y="248" on="1"/>
        <pt x="254" y="248" on="1"/>
        <pt x="268" y="167" on="0"/>
        <pt x="348" y="69" on="0"/>
        <pt x="419" y="69" on="1"/>
        <pt x="454" y="69" on="0"/>
        <pt x="515" y="82" on="0"/>
        <pt x="556" y="97" on="1"/>
        <pt x="576" y="24" on="1"/>
        <pt x="531" y="6" on="0"/>
        <pt x="451" y="-11" on="0"/>
        <pt x="409" y="-11" on="1"/>
        <pt x="349" y="-11" on="0"/>
        <pt x="257" y="27" on="0"/>
        <pt x="191" y="95" on="0"/>
        <pt x="152" y="191" on="0"/>
        <pt x="147" y="248" on="1"/>
      </contour>
    </TTGlyph>
    <TTGlyph name="F" xMin="91" yMin="0" xMax="601" yMax="727">
      <contour>
        <pt x="379" y="421" on="1"/>
        <pt x="529" y="421" on="1"/>
        <pt x="519" y="342" on="1"/>
        <pt x="279" y="342" on="1"/>
        <pt x="286" y="357" on="0"/>
        <pt x="305" y="385" on="0"/>
        <pt x="329" y="407" on="0"/>
        <pt x="360" y="421" on="0"/>
      </contour>
      <contour>
        <pt x="91" y="0" on="1"/>
        <pt x="180" y="727" on="1"/>
        <pt x="601" y="727" on="1"/>
        <pt x="591" y="646" on="1"/>
        <pt x="279" y="646" on="1"/>
        <pt x="200" y="0" on="1"/>
      </contour>
    </TTGlyph>
    <TTGlyph name="G" xMin="74" yMin="-12" xMax="710" yMax="740">
      <contour>
        <pt x="503" y="658" on="1"/>
        <pt x="449" y="658" on="0"/>
        <pt x="348" y="619" on="0"/>
        <pt x="266" y="543" on="0"/>
        <pt x="211" y="433" on="0"/>
        <pt x="202" y="363" on="1"/>
        <pt x="193" y="294" on="0"/>
        <pt x="222" y="184" on="0"/>
        <pt x="285" y="109" on="0"/>
        <pt x="376" y="69" on="0"/>
        <pt x="430" y="69" on="1"/>
        <pt x="452" y="69" on="0"/>
        <pt x="505" y="74" on="0"/>
        <pt x="539" y="84" on="1"/>
        <pt x="570" y="337" on="1"/>
        <pt x="673" y="337" on="1"/>
        <pt x="636" y="37" on="1"/>
        <pt x="579" y="9" on="0"/>
        <pt x="463" y="-12" on="0"/>
        <pt x="420" y="-12" on="1"/>
        <pt x="339" y="-12" on="0"/>
        <pt x="206" y="41" on="0"/>
        <pt x="116" y="139" on="0"/>
        <pt x="74" y="278" on="0"/>
        <pt x="85" y="363" on="1"/>
        <pt x="95" y="446" on="0"/>
        <pt x="171" y="584" on="0"/>
        <pt x="286" y="684" on="0"/>
        <pt x="432" y="740" on="0"/>
        <pt x="513" y="740" on="1"/>
        <pt x="556" y="740" on="0"/>
        <pt x="659" y="721" on="0"/>
        <pt x="710" y="696" on="1"/>
        <pt x="672" y="622" on="1"/>
        <pt x="620" y="645" on="0"/>
        <pt x="538" y="658" on="0"/>
      </contour>
    </TTGlyph>
    <TTGlyph name="H" xMin="91" yMin="0" xMax="747" yMax="727">
      <contour>
        <pt x="91" y="0" on="1"/>
        <pt x="180" y="727" on="1"/>
        <pt x="289" y="727" on="1"/>
        <pt x="200" y="0" on="1"/>
      </contour>
      <contour>
        <pt x="379" y="421" on="1"/>
        <pt x="601" y="421" on="1"/>
        <pt x="639" y="727" on="1"/>
        <pt x="747" y="727" on="1"/>
        <pt x="658" y="0" on="1"/>
        <pt x="550" y="0" on="1"/>
        <pt x="591" y="341" on="1"/>
        <pt x="279" y="341" on="1"/>
        <pt x="293" y="371" on="0"/>
        <pt x="341" y="421" on="0"/>
      </contour>
    </TTGlyph>
    <TTGlyph name="I" xMin="91" yMin="0" xMax="286" yMax="727">
      <contour>
        <pt x="286" y="727" on="1"/>
        <pt x="197" y="0" on="1"/>
        <pt x="91" y="0" on="1"/>
        <pt x="180" y="727" on="1"/>
      </contour>
    </TTGlyph>
    <TTGlyph name="Iacute" xMin="91" yMin="0" xMax="393" yMax="890">
      <contour>
        <pt x="393" y="890" on="1"/>
        <pt x="298" y="797" on="1"/>
        <pt x="272" y="771" on="0"/>
        <pt x="206" y="759" on="0"/>
        <pt x="182" y="766" on="1"/>
        <pt x="285" y="890" on="1"/>
      </contour>
      <contour>
        <pt x="286" y="727" on="1"/>
        <pt x="197" y="0" on="1"/>
        <pt x="91" y="0" on="1"/>
        <pt x="180" y="727" on="1"/>
      </contour>
    </TTGlyph>
    <TTGlyph name="Icircumflex" xMin="91" yMin="0" xMax="384" yMax="890">
      <contour>
        <pt x="218" y="890" on="1"/>
        <pt x="289" y="890" on="1"/>
        <pt x="384" y="771" on="1"/>
        <pt x="322" y="760" on="1"/>
        <pt x="244" y="818" on="1"/>
        <pt x="152" y="760" on="1"/>
        <pt x="95" y="771" on="1"/>
      </contour>
      <contour>
        <pt x="286" y="727" on="1"/>
        <pt x="197" y="0" on="1"/>
        <pt x="91" y="0" on="1"/>
        <pt x="180" y="727" on="1"/>
      </contour>
    </TTGlyph>
    <TTGlyph name="Idieresis" xMin="91" yMin="0" xMax="401" yMax="895">
      <contour>
        <pt x="288" y="840" on="1"/>
        <pt x="290" y="863" on="0"/>
        <pt x="327" y="895" on="0"/>
        <pt x="350" y="895" on="1"/>
        <pt x="373" y="895" on="0"/>
        <pt x="401" y="863" on="0"/>
        <pt x="399" y="840" on="1"/>
        <pt x="396" y="817" on="0"/>
        <pt x="360" y="785" on="0"/>
        <pt x="337" y="785" on="1"/>
        <pt x="314" y="785" on="0"/>
        <pt x="285" y="817" on="0"/>
      </contour>
      <contour>
        <pt x="94" y="840" on="1"/>
        <pt x="96" y="863" on="0"/>
        <pt x="132" y="895" on="0"/>
        <pt x="155" y="895" on="1"/>
        <pt x="178" y="895" on="0"/>
        <pt x="207" y="863" on="0"/>
        <pt x="205" y="840" on="1"/>
        <pt x="202" y="817" on="0"/>
        <pt x="165" y="785" on="0"/>
        <pt x="142" y="785" on="1"/>
        <pt x="119" y="785" on="0"/>
        <pt x="91" y="817" on="0"/>
      </contour>
      <contour>
        <pt x="285" y="727" on="1"/>
        <pt x="196" y="0" on="1"/>
        <pt x="91" y="0" on="1"/>
        <pt x="180" y="727" on="1"/>
      </contour>
    </TTGlyph>
    <TTGlyph name="Igrave" xMin="91" yMin="0" xMax="294" yMax="890">
      <contour>
        <pt x="187" y="797" on="1"/>
        <pt x="130" y="890" on="1"/>
        <pt x="235" y="890" on="1"/>
        <pt x="294" y="766" on="1"/>
        <pt x="267" y="759" on="0"/>
        <pt x="204" y="771" on="0"/>
      </contour>
      <contour>
        <pt x="285" y="727" on="1"/>
        <pt x="196" y="0" on="1"/>
        <pt x="91" y="0" on="1"/>
        <pt x="180" y="727" on="1"/>
      </contour>
    </TTGlyph>
    <TTGlyph name="J" xMin="-91" yMin="-212" xMax="291" yMax="727">
      <contour>
        <pt x="291" y="727" on="1"/>
        <pt x="217" y="128" on="1"/>
        <pt x="209" y="61" on="0"/>
        <pt x="166" y="-34" on="0"/>
        <pt x="98" y="-110" on="0"/>
        <pt x="6" y="-176" on="0"/>
        <pt x="-52" y="-212" on="1"/>
        <pt x="-91" y="-152" on="1"/>
        <pt x="-50" y="-121" on="0"/>
        <pt x="17" y="-68" on="0"/>
        <pt x="68" y="-7" on="0"/>
        <pt x="101" y="71" on="0"/>
        <pt x="108" y="128" on="1"/>
        <pt x="182" y="727" on="1"/>
      </contour>
    </TTGlyph>
    <TTGlyph name="K" xMin="91" yMin="0" xMax="715" yMax="727">
      <contour>
        <pt x="200" y="0" on="1"/>
        <pt x="91" y="0" on="1"/>
        <pt x="180" y="727" on="1"/>
        <pt x="289" y="727" on="1"/>
      </contour>
      <contour>
        <pt x="715" y="727" on="1"/>
        <pt x="454" y="434" on="1"/>
        <pt x="660" y="0" on="1"/>
        <pt x="531" y="0" on="1"/>
        <pt x="387" y="340" on="1"/>
        <pt x="383" y="359" on="1"/>
        <pt x="370" y="340" on="1"/>
        <pt x="283" y="243" on="1"/>
        <pt x="279" y="261" on="0"/>
        <pt x="281" y="305" on="0"/>
        <pt x="294" y="352" on="0"/>
        <pt x="316" y="400" on="0"/>
        <pt x="333" y="421" on="1"/>
        <pt x="393" y="496" on="0"/>
        <pt x="527" y="651" on="0"/>
        <pt x="593" y="727" on="1"/>
      </contour>
    </TTGlyph>
    <TTGlyph name="L" xMin="91" yMin="0" xMax="503" yMax="727">
      <contour>
        <pt x="91" y="0" on="1"/>
        <pt x="180" y="727" on="1"/>
        <pt x="290" y="727" on="1"/>
        <pt x="211" y="82" on="1"/>
        <pt x="503" y="82" on="1"/>
        <pt x="500" y="62" on="0"/>
        <pt x="494" y="20" on="0"/>
        <pt x="492" y="0" on="1"/>
      </contour>
    </TTGlyph>
    <TTGlyph name="M" xMin="59" yMin="0" xMax="889" yMax="727">
      <contour>
        <pt x="59" y="0" on="1"/>
        <pt x="226" y="727" on="1"/>
        <pt x="366" y="727" on="1"/>
        <pt x="480" y="150" on="1"/>
        <pt x="483" y="117" on="1"/>
        <pt x="494" y="150" on="1"/>
        <pt x="749" y="727" on="1"/>
        <pt x="889" y="727" on="1"/>
        <pt x="877" y="0" on="1"/>
        <pt x="774" y="0" on="1"/>
        <pt x="792" y="572" on="1"/>
        <pt x="794" y="617" on="1"/>
        <pt x="777" y="572" on="1"/>
        <pt x="522" y="10" on="1"/>
        <pt x="416" y="10" on="1"/>
        <pt x="298" y="573" on="1"/>
        <pt x="290" y="617" on="1"/>
        <pt x="161" y="0" on="1"/>
      </contour>
    </TTGlyph>
    <TTGlyph name="N" xMin="91" yMin="0" xMax="734" yMax="727">
      <contour>
        <pt x="548" y="0" on="1"/>
        <pt x="476" y="141" on="0"/>
        <pt x="336" y="418" on="0"/>
        <pt x="265" y="560" on="1"/>
        <pt x="255" y="595" on="1"/>
        <pt x="252" y="561" on="1"/>
        <pt x="184" y="0" on="1"/>
        <pt x="91" y="0" on="1"/>
        <pt x="180" y="727" on="1"/>
        <pt x="288" y="727" on="1"/>
        <pt x="531" y="242" on="1"/>
        <pt x="539" y="228" on="0"/>
        <pt x="553" y="199" on="0"/>
        <pt x="560" y="185" on="1"/>
        <pt x="569" y="150" on="1"/>
        <pt x="571" y="186" on="1"/>
        <pt x="638" y="727" on="1"/>
        <pt x="734" y="727" on="1"/>
        <pt x="645" y="0" on="1"/>
      </contour>
    </TTGlyph>
    <TTGlyph name="Ntilde" xMin="91" yMin="0" xMax="734" yMax="894">
      <contour>
        <pt x="377" y="777" on="1"/>
        <pt x="317" y="783" on="1"/>
        <pt x="325" y="839" on="0"/>
        <pt x="386" y="894" on="0"/>
        <pt x="422" y="894" on="1"/>
        <pt x="444" y="894" on="0"/>
        <pt x="473" y="877" on="0"/>
        <pt x="497" y="856" on="0"/>
        <pt x="519" y="839" on="0"/>
        <pt x="534" y="839" on="1"/>
        <pt x="548" y="839" on="0"/>
        <pt x="566" y="867" on="0"/>
        <pt x="571" y="893" on="1"/>
        <pt x="629" y="887" on="1"/>
        <pt x="624" y="855" on="0"/>
        <pt x="602" y="813" on="0"/>
        <pt x="574" y="787" on="0"/>
        <pt x="543" y="776" on="0"/>
        <pt x="529" y="776" on="1"/>
        <pt x="505" y="776" on="0"/>
        <pt x="474" y="793" on="0"/>
        <pt x="452" y="814" on="0"/>
        <pt x="432" y="831" on="0"/>
        <pt x="419" y="831" on="1"/>
        <pt x="407" y="831" on="0"/>
        <pt x="383" y="807" on="0"/>
      </contour>
      <contour>
        <pt x="548" y="0" on="1"/>
        <pt x="476" y="141" on="0"/>
        <pt x="335" y="419" on="0"/>
        <pt x="264" y="561" on="1"/>
        <pt x="255" y="595" on="1"/>
        <pt x="252" y="561" on="1"/>
        <pt x="184" y="0" on="1"/>
        <pt x="91" y="0" on="1"/>
        <pt x="180" y="727" on="1"/>
        <pt x="288" y="727" on="1"/>
        <pt x="532" y="242" on="1"/>
        <pt x="540" y="228" on="0"/>
        <pt x="553" y="198" on="0"/>
        <pt x="561" y="184" on="1"/>
        <pt x="569" y="151" on="1"/>
        <pt x="571" y="186" on="1"/>
        <pt x="638" y="727" on="1"/>
        <pt x="734" y="727" on="1"/>
        <pt x="645" y="0" on="1"/>
      </contour>
    </TTGlyph>
    <TTGlyph name="O" xMin="79" yMin="-14" xMax="788" yMax="742">
      <contour>
        <pt x="207" y="364" on="1"/>
        <pt x="199" y="301" on="0"/>
        <pt x="219" y="192" on="0"/>
        <pt x="269" y="112" on="0"/>
        <pt x="348" y="67" on="0"/>
        <pt x="399" y="67" on="1"/>
        <pt x="448" y="67" on="0"/>
        <pt x="537" y="111" on="0"/>
        <pt x="607" y="191" on="0"/>
        <pt x="654" y="299" on="0"/>
        <pt x="662" y="364" on="1"/>
        <pt x="670" y="431" on="0"/>
        <pt x="649" y="540" on="0"/>
        <pt x="598" y="618" on="0"/>
        <pt x="521" y="660" on="0"/>
        <pt x="472" y="660" on="1"/>
        <pt x="422" y="660" on="0"/>
        <pt x="333" y="617" on="0"/>
        <pt x="263" y="539" on="0"/>
        <pt x="215" y="430" on="0"/>
      </contour>
      <contour>
        <pt x="90" y="364" on="1"/>
        <pt x="101" y="455" on="0"/>
        <pt x="176" y="596" on="0"/>
        <pt x="284" y="692" on="0"/>
        <pt x="415" y="742" on="0"/>
        <pt x="482" y="742" on="1"/>
        <pt x="568" y="742" on="0"/>
        <pt x="689" y="680" on="0"/>
        <pt x="762" y="575" on="0"/>
        <pt x="788" y="438" on="0"/>
        <pt x="779" y="364" on="1"/>
        <pt x="769" y="281" on="0"/>
        <pt x="699" y="142" on="0"/>
        <pt x="595" y="42" on="0"/>
        <pt x="462" y="-14" on="0"/>
        <pt x="389" y="-14" on="1"/>
        <pt x="314" y="-14" on="0"/>
        <pt x="194" y="39" on="0"/>
        <pt x="114" y="138" on="0"/>
        <pt x="79" y="278" on="0"/>
      </contour>
    </TTGlyph>
    <TTGlyph name="OE" xMin="79" yMin="-14" xMax="1011" yMax="742">
      <contour>
        <pt x="790" y="421" on="1"/>
        <pt x="939" y="421" on="1"/>
        <pt x="929" y="342" on="1"/>
        <pt x="690" y="342" on="1"/>
        <pt x="697" y="357" on="0"/>
        <pt x="715" y="385" on="0"/>
        <pt x="740" y="407" on="0"/>
        <pt x="771" y="421" on="0"/>
      </contour>
      <contour>
        <pt x="471" y="660" on="1"/>
        <pt x="421" y="660" on="0"/>
        <pt x="332" y="617" on="0"/>
        <pt x="262" y="539" on="0"/>
        <pt x="214" y="430" on="0"/>
        <pt x="206" y="364" on="1"/>
        <pt x="198" y="298" on="0"/>
        <pt x="219" y="189" on="0"/>
        <pt x="271" y="111" on="0"/>
        <pt x="349" y="67" on="0"/>
        <pt x="398" y="67" on="1"/>
        <pt x="424" y="67" on="0"/>
        <pt x="481" y="75" on="0"/>
        <pt x="512" y="85" on="1"/>
        <pt x="580" y="642" on="1"/>
        <pt x="555" y="651" on="0"/>
        <pt x="497" y="660" on="0"/>
      </contour>
      <contour>
        <pt x="388" y="-14" on="1"/>
        <pt x="314" y="-14" on="0"/>
        <pt x="194" y="39" on="0"/>
        <pt x="114" y="137" on="0"/>
        <pt x="79" y="277" on="0"/>
        <pt x="90" y="364" on="1"/>
        <pt x="100" y="449" on="0"/>
        <pt x="171" y="589" on="0"/>
        <pt x="277" y="688" on="0"/>
        <pt x="409" y="742" on="0"/>
        <pt x="481" y="742" on="1"/>
        <pt x="513" y="742" on="0"/>
        <pt x="590" y="727" on="0"/>
        <pt x="630" y="727" on="1"/>
        <pt x="1011" y="727" on="1"/>
        <pt x="1001" y="646" on="1"/>
        <pt x="690" y="646" on="1"/>
        <pt x="620" y="81" on="1"/>
        <pt x="946" y="81" on="1"/>
        <pt x="937" y="0" on="1"/>
        <pt x="541" y="0" on="1"/>
        <pt x="498" y="0" on="0"/>
        <pt x="416" y="-14" on="0"/>
      </contour>
    </TTGlyph>
    <TTGlyph name="Oacute" xMin="78" yMin="-14" xMax="789" yMax="890">
      <contour>
        <pt x="653" y="890" on="1"/>
        <pt x="558" y="797" on="1"/>
        <pt x="532" y="771" on="0"/>
        <pt x="466" y="759" on="0"/>
        <pt x="443" y="766" on="1"/>
        <pt x="546" y="890" on="1"/>
      </contour>
      <contour>
        <pt x="661" y="364" on="1"/>
        <pt x="669" y="430" on="0"/>
        <pt x="649" y="539" on="0"/>
        <pt x="598" y="617" on="0"/>
        <pt x="520" y="660" on="0"/>
        <pt x="471" y="660" on="1"/>
        <pt x="421" y="660" on="0"/>
        <pt x="332" y="617" on="0"/>
        <pt x="262" y="539" on="0"/>
        <pt x="214" y="430" on="0"/>
        <pt x="206" y="364" on="1"/>
        <pt x="198" y="298" on="0"/>
        <pt x="219" y="189" on="0"/>
        <pt x="271" y="111" on="0"/>
        <pt x="349" y="67" on="0"/>
        <pt x="398" y="67" on="1"/>
        <pt x="447" y="67" on="0"/>
        <pt x="536" y="111" on="0"/>
        <pt x="606" y="189" on="0"/>
        <pt x="653" y="298" on="0"/>
      </contour>
      <contour>
        <pt x="778" y="364" on="1"/>
        <pt x="767" y="278" on="0"/>
        <pt x="696" y="139" on="0"/>
        <pt x="591" y="40" on="0"/>
        <pt x="459" y="-14" on="0"/>
        <pt x="388" y="-14" on="1"/>
        <pt x="313" y="-14" on="0"/>
        <pt x="193" y="39" on="0"/>
        <pt x="113" y="137" on="0"/>
        <pt x="78" y="277" on="0"/>
        <pt x="89" y="364" on="1"/>
        <pt x="99" y="449" on="0"/>
        <pt x="171" y="589" on="0"/>
        <pt x="276" y="688" on="0"/>
        <pt x="409" y="742" on="0"/>
        <pt x="481" y="742" on="1"/>
        <pt x="556" y="742" on="0"/>
        <pt x="675" y="689" on="0"/>
        <pt x="755" y="590" on="0"/>
        <pt x="789" y="451" on="0"/>
      </contour>
    </TTGlyph>
    <TTGlyph name="Ocircumflex" xMin="78" yMin="-14" xMax="789" yMax="890">
      <contour>
        <pt x="465" y="890" on="1"/>
        <pt x="536" y="890" on="1"/>
        <pt x="631" y="771" on="1"/>
        <pt x="569" y="760" on="1"/>
        <pt x="491" y="818" on="1"/>
        <pt x="399" y="760" on="1"/>
        <pt x="342" y="771" on="1"/>
      </contour>
      <contour>
        <pt x="661" y="364" on="1"/>
        <pt x="669" y="430" on="0"/>
        <pt x="649" y="539" on="0"/>
        <pt x="598" y="617" on="0"/>
        <pt x="520" y="660" on="0"/>
        <pt x="471" y="660" on="1"/>
        <pt x="421" y="660" on="0"/>
        <pt x="332" y="617" on="0"/>
        <pt x="262" y="539" on="0"/>
        <pt x="214" y="430" on="0"/>
        <pt x="206" y="364" on="1"/>
        <pt x="198" y="298" on="0"/>
        <pt x="219" y="189" on="0"/>
        <pt x="271" y="111" on="0"/>
        <pt x="349" y="67" on="0"/>
        <pt x="398" y="67" on="1"/>
        <pt x="447" y="67" on="0"/>
        <pt x="536" y="111" on="0"/>
        <pt x="606" y="189" on="0"/>
        <pt x="653" y="298" on="0"/>
      </contour>
      <contour>
        <pt x="778" y="364" on="1"/>
        <pt x="767" y="278" on="0"/>
        <pt x="696" y="139" on="0"/>
        <pt x="591" y="40" on="0"/>
        <pt x="459" y="-14" on="0"/>
        <pt x="388" y="-14" on="1"/>
        <pt x="313" y="-14" on="0"/>
        <pt x="193" y="39" on="0"/>
        <pt x="113" y="137" on="0"/>
        <pt x="78" y="277" on="0"/>
        <pt x="89" y="364" on="1"/>
        <pt x="99" y="449" on="0"/>
        <pt x="171" y="589" on="0"/>
        <pt x="276" y="688" on="0"/>
        <pt x="409" y="742" on="0"/>
        <pt x="481" y="742" on="1"/>
        <pt x="556" y="742" on="0"/>
        <pt x="675" y="689" on="0"/>
        <pt x="755" y="590" on="0"/>
        <pt x="789" y="451" on="0"/>
      </contour>
    </TTGlyph>
    <TTGlyph name="Odieresis" xMin="79" yMin="-14" xMax="789" yMax="895">
      <contour>
        <pt x="536" y="840" on="1"/>
        <pt x="538" y="863" on="0"/>
        <pt x="575" y="895" on="0"/>
        <pt x="598" y="895" on="1"/>
        <pt x="621" y="895" on="0"/>
        <pt x="649" y="863" on="0"/>
        <pt x="647" y="840" on="1"/>
        <pt x="644" y="817" on="0"/>
        <pt x="608" y="785" on="0"/>
        <pt x="585" y="785" on="1"/>
        <pt x="562" y="785" on="0"/>
        <pt x="533" y="817" on="0"/>
      </contour>
      <contour>
        <pt x="342" y="840" on="1"/>
        <pt x="344" y="863" on="0"/>
        <pt x="380" y="895" on="0"/>
        <pt x="403" y="895" on="1"/>
        <pt x="426" y="895" on="0"/>
        <pt x="455" y="863" on="0"/>
        <pt x="453" y="840" on="1"/>
        <pt x="450" y="817" on="0"/>
        <pt x="413" y="785" on="0"/>
        <pt x="390" y="785" on="1"/>
        <pt x="367" y="785" on="0"/>
        <pt x="339" y="817" on="0"/>
      </contour>
      <contour>
        <pt x="662" y="364" on="1"/>
        <pt x="670" y="430" on="0"/>
        <pt x="650" y="539" on="0"/>
        <pt x="599" y="617" on="0"/>
        <pt x="520" y="660" on="0"/>
        <pt x="471" y="660" on="1"/>
        <pt x="421" y="660" on="0"/>
        <pt x="332" y="617" on="0"/>
        <pt x="262" y="539" on="0"/>
        <pt x="214" y="430" on="0"/>
        <pt x="206" y="364" on="1"/>
        <pt x="198" y="298" on="0"/>
        <pt x="219" y="189" on="0"/>
        <pt x="271" y="111" on="0"/>
        <pt x="349" y="67" on="0"/>
        <pt x="398" y="67" on="1"/>
        <pt x="447" y="67" on="0"/>
        <pt x="536" y="111" on="0"/>
        <pt x="607" y="189" on="0"/>
        <pt x="654" y="298" on="0"/>
      </contour>
      <contour>
        <pt x="778" y="364" on="1"/>
        <pt x="767" y="278" on="0"/>
        <pt x="696" y="139" on="0"/>
        <pt x="591" y="40" on="0"/>
        <pt x="459" y="-14" on="0"/>
        <pt x="388" y="-14" on="1"/>
        <pt x="314" y="-14" on="0"/>
        <pt x="194" y="39" on="0"/>
        <pt x="114" y="137" on="0"/>
        <pt x="79" y="277" on="0"/>
        <pt x="90" y="364" on="1"/>
        <pt x="100" y="449" on="0"/>
        <pt x="171" y="589" on="0"/>
        <pt x="277" y="688" on="0"/>
        <pt x="409" y="742" on="0"/>
        <pt x="481" y="742" on="1"/>
        <pt x="556" y="742" on="0"/>
        <pt x="675" y="689" on="0"/>
        <pt x="755" y="590" on="0"/>
        <pt x="789" y="451" on="0"/>
      </contour>
    </TTGlyph>
    <TTGlyph name="Ograve" xMin="79" yMin="-14" xMax="789" yMax="890">
      <contour>
        <pt x="406" y="797" on="1"/>
        <pt x="348" y="890" on="1"/>
        <pt x="454" y="890" on="1"/>
        <pt x="513" y="766" on="1"/>
        <pt x="499" y="763" on="0"/>
        <pt x="468" y="762" on="0"/>
        <pt x="439" y="768" on="0"/>
        <pt x="413" y="784" on="0"/>
      </contour>
      <contour>
        <pt x="662" y="364" on="1"/>
        <pt x="670" y="430" on="0"/>
        <pt x="650" y="539" on="0"/>
        <pt x="599" y="617" on="0"/>
        <pt x="520" y="660" on="0"/>
        <pt x="471" y="660" on="1"/>
        <pt x="422" y="660" on="0"/>
        <pt x="333" y="617" on="0"/>
        <pt x="263" y="539" on="0"/>
        <pt x="215" y="430" on="0"/>
        <pt x="207" y="364" on="1"/>
        <pt x="199" y="298" on="0"/>
        <pt x="220" y="189" on="0"/>
        <pt x="271" y="111" on="0"/>
        <pt x="349" y="67" on="0"/>
        <pt x="398" y="67" on="1"/>
        <pt x="447" y="67" on="0"/>
        <pt x="536" y="111" on="0"/>
        <pt x="607" y="189" on="0"/>
        <pt x="654" y="298" on="0"/>
      </contour>
      <contour>
        <pt x="778" y="364" on="1"/>
        <pt x="767" y="278" on="0"/>
        <pt x="696" y="139" on="0"/>
        <pt x="591" y="40" on="0"/>
        <pt x="459" y="-14" on="0"/>
        <pt x="388" y="-14" on="1"/>
        <pt x="314" y="-14" on="0"/>
        <pt x="194" y="39" on="0"/>
        <pt x="114" y="137" on="0"/>
        <pt x="79" y="277" on="0"/>
        <pt x="90" y="364" on="1"/>
        <pt x="100" y="449" on="0"/>
        <pt x="171" y="589" on="0"/>
        <pt x="277" y="688" on="0"/>
        <pt x="409" y="742" on="0"/>
        <pt x="481" y="742" on="1"/>
        <pt x="556" y="742" on="0"/>
        <pt x="676" y="689" on="0"/>
        <pt x="755" y="590" on="0"/>
        <pt x="789" y="451" on="0"/>
      </contour>
    </TTGlyph>
    <TTGlyph name="Oslash" xMin="79" yMin="-60" xMax="791" yMax="789">
      <contour>
        <pt x="665" y="364" on="1"/>
        <pt x="673" y="429" on="0"/>
        <pt x="652" y="536" on="0"/>
        <pt x="627" y="574" on="1"/>
        <pt x="314" y="136" on="1"/>
        <pt x="298" y="159" on="0"/>
        <pt x="285" y="223" on="0"/>
        <pt x="306" y="256" on="1"/>
        <pt x="576" y="630" on="1"/>
        <pt x="554" y="645" on="0"/>
        <pt x="501" y="662" on="0"/>
        <pt x="472" y="662" on="1"/>
        <pt x="422" y="662" on="0"/>
        <pt x="333" y="618" on="0"/>
        <pt x="262" y="540" on="0"/>
        <pt x="213" y="430" on="0"/>
        <pt x="205" y="364" on="1"/>
        <pt x="197" y="298" on="0"/>
        <pt x="219" y="189" on="0"/>
        <pt x="271" y="110" on="0"/>
        <pt x="350" y="66" on="0"/>
        <pt x="399" y="66" on="1"/>
        <pt x="448" y="66" on="0"/>
        <pt x="538" y="110" on="0"/>
        <pt x="609" y="189" on="0"/>
        <pt x="657" y="298" on="0"/>
      </contour>
      <contour>
        <pt x="780" y="789" on="1"/>
        <pt x="692" y="665" on="1"/>
        <pt x="744" y="615" on="0"/>
        <pt x="791" y="463" on="0"/>
        <pt x="779" y="364" on="1"/>
        <pt x="768" y="278" on="0"/>
        <pt x="697" y="139" on="0"/>
        <pt x="592" y="40" on="0"/>
        <pt x="460" y="-14" on="0"/>
        <pt x="389" y="-14" on="1"/>
        <pt x="305" y="-14" on="0"/>
        <pt x="239" y="20" on="1"/>
        <pt x="183" y="-60" on="1"/>
        <pt x="92" y="-60" on="1"/>
        <pt x="179" y="62" on="1"/>
        <pt x="126" y="111" on="0"/>
        <pt x="79" y="264" on="0"/>
        <pt x="91" y="364" on="1"/>
        <pt x="101" y="449" on="0"/>
        <pt x="172" y="589" on="0"/>
        <pt x="278" y="688" on="0"/>
        <pt x="410" y="742" on="0"/>
        <pt x="482" y="742" on="1"/>
        <pt x="566" y="742" on="0"/>
        <pt x="630" y="707" on="1"/>
        <pt x="689" y="789" on="1"/>
      </contour>
    </TTGlyph>
    <TTGlyph name="Otilde" xMin="79" yMin="-14" xMax="789" yMax="894">
      <contour>
        <pt x="401" y="777" on="1"/>
        <pt x="341" y="783" on="1"/>
        <pt x="349" y="839" on="0"/>
        <pt x="410" y="894" on="0"/>
        <pt x="446" y="894" on="1"/>
        <pt x="468" y="894" on="0"/>
        <pt x="497" y="877" on="0"/>
        <pt x="521" y="856" on="0"/>
        <pt x="543" y="839" on="0"/>
        <pt x="558" y="839" on="1"/>
        <pt x="572" y="839" on="0"/>
        <pt x="590" y="867" on="0"/>
        <pt x="595" y="893" on="1"/>
        <pt x="653" y="887" on="1"/>
        <pt x="648" y="855" on="0"/>
        <pt x="626" y="813" on="0"/>
        <pt x="598" y="787" on="0"/>
        <pt x="567" y="776" on="0"/>
        <pt x="553" y="776" on="1"/>
        <pt x="529" y="776" on="0"/>
        <pt x="498" y="793" on="0"/>
        <pt x="476" y="814" on="0"/>
        <pt x="456" y="831" on="0"/>
        <pt x="443" y="831" on="1"/>
        <pt x="431" y="831" on="0"/>
        <pt x="407" y="807" on="0"/>
      </contour>
      <contour>
        <pt x="662" y="364" on="1"/>
        <pt x="670" y="430" on="0"/>
        <pt x="650" y="539" on="0"/>
        <pt x="599" y="617" on="0"/>
        <pt x="520" y="660" on="0"/>
        <pt x="471" y="660" on="1"/>
        <pt x="421" y="660" on="0"/>
        <pt x="332" y="617" on="0"/>
        <pt x="262" y="539" on="0"/>
        <pt x="214" y="430" on="0"/>
        <pt x="206" y="364" on="1"/>
        <pt x="198" y="298" on="0"/>
        <pt x="219" y="189" on="0"/>
        <pt x="271" y="111" on="0"/>
        <pt x="349" y="67" on="0"/>
        <pt x="398" y="67" on="1"/>
        <pt x="447" y="67" on="0"/>
        <pt x="536" y="111" on="0"/>
        <pt x="607" y="189" on="0"/>
        <pt x="654" y="298" on="0"/>
      </contour>
      <contour>
        <pt x="778" y="364" on="1"/>
        <pt x="767" y="278" on="0"/>
        <pt x="696" y="139" on="0"/>
        <pt x="591" y="40" on="0"/>
        <pt x="459" y="-14" on="0"/>
        <pt x="388" y="-14" on="1"/>
        <pt x="314" y="-14" on="0"/>
        <pt x="194" y="39" on="0"/>
        <pt x="114" y="137" on="0"/>
        <pt x="79" y="277" on="0"/>
        <pt x="90" y="364" on="1"/>
        <pt x="100" y="449" on="0"/>
        <pt x="171" y="589" on="0"/>
        <pt x="277" y="688" on="0"/>
        <pt x="409" y="742" on="0"/>
        <pt x="481" y="742" on="1"/>
        <pt x="556" y="742" on="0"/>
        <pt x="675" y="689" on="0"/>
        <pt x="755" y="590" on="0"/>
        <pt x="789" y="451" on="0"/>
      </contour>
    </TTGlyph>
    <TTGlyph name="P" xMin="90" yMin="0" xMax="641" yMax="740">
      <contour>
        <pt x="635" y="518" on="1"/>
        <pt x="629" y="470" on="0"/>
        <pt x="581" y="392" on="0"/>
        <pt x="509" y="337" on="0"/>
        <pt x="421" y="304" on="0"/>
        <pt x="375" y="300" on="1"/>
        <pt x="353" y="298" on="0"/>
        <pt x="303" y="301" on="0"/>
        <pt x="276" y="309" on="1"/>
        <pt x="291" y="335" on="0"/>
        <pt x="340" y="377" on="0"/>
        <pt x="372" y="378" on="1"/>
        <pt x="396" y="379" on="0"/>
        <pt x="446" y="400" on="0"/>
        <pt x="488" y="438" on="0"/>
        <pt x="517" y="488" on="0"/>
        <pt x="521" y="518" on="1"/>
        <pt x="525" y="548" on="0"/>
        <pt x="507" y="600" on="0"/>
        <pt x="469" y="637" on="0"/>
        <pt x="415" y="659" on="0"/>
        <pt x="382" y="659" on="1"/>
        <pt x="354" y="659" on="0"/>
        <pt x="306" y="656" on="0"/>
        <pt x="279" y="653" on="1"/>
        <pt x="199" y="0" on="1"/>
        <pt x="90" y="1" on="1"/>
        <pt x="178" y="719" on="1"/>
        <pt x="211" y="725" on="0"/>
        <pt x="265" y="733" on="0"/>
        <pt x="315" y="738" on="0"/>
        <pt x="365" y="740" on="0"/>
        <pt x="392" y="740" on="1"/>
        <pt x="452" y="740" on="0"/>
        <pt x="548" y="706" on="0"/>
        <pt x="612" y="647" on="0"/>
        <pt x="641" y="566" on="0"/>
      </contour>
    </TTGlyph>
    <TTGlyph name="Q" xMin="79" yMin="-17" xMax="789" yMax="742">
      <contour>
        <pt x="658" y="115" on="1"/>
        <pt x="721" y="42" on="1"/>
        <pt x="653" y="-17" on="1"/>
        <pt x="437" y="235" on="1"/>
        <pt x="505" y="294" on="1"/>
        <pt x="587" y="197" on="1"/>
        <pt x="597" y="177" on="1"/>
        <pt x="607" y="202" on="1"/>
        <pt x="631" y="240" on="0"/>
        <pt x="656" y="323" on="0"/>
        <pt x="661" y="364" on="1"/>
        <pt x="669" y="430" on="0"/>
        <pt x="649" y="539" on="0"/>
        <pt x="598" y="617" on="0"/>
        <pt x="520" y="660" on="0"/>
        <pt x="471" y="660" on="1"/>
        <pt x="422" y="660" on="0"/>
        <pt x="333" y="617" on="0"/>
        <pt x="262" y="539" on="0"/>
        <pt x="214" y="430" on="0"/>
        <pt x="206" y="364" on="1"/>
        <pt x="198" y="299" on="0"/>
        <pt x="218" y="191" on="0"/>
        <pt x="268" y="112" on="0"/>
        <pt x="344" y="68" on="0"/>
        <pt x="393" y="68" on="1"/>
        <pt x="408" y="68" on="0"/>
        <pt x="434" y="71" on="0"/>
        <pt x="448" y="74" on="1"/>
        <pt x="476" y="79" on="0"/>
        <pt x="532" y="58" on="0"/>
        <pt x="546" y="40" on="1"/>
        <pt x="503" y="12" on="0"/>
        <pt x="422" y="-14" on="0"/>
        <pt x="383" y="-14" on="1"/>
        <pt x="309" y="-14" on="0"/>
        <pt x="191" y="40" on="0"/>
        <pt x="113" y="139" on="0"/>
        <pt x="79" y="279" on="0"/>
        <pt x="90" y="364" on="1"/>
        <pt x="100" y="449" on="0"/>
        <pt x="171" y="589" on="0"/>
        <pt x="277" y="688" on="0"/>
        <pt x="409" y="742" on="0"/>
        <pt x="481" y="742" on="1"/>
        <pt x="556" y="742" on="0"/>
        <pt x="676" y="689" on="0"/>
        <pt x="755" y="590" on="0"/>
        <pt x="789" y="451" on="0"/>
        <pt x="778" y="364" on="1"/>
        <pt x="770" y="295" on="0"/>
        <pt x="711" y="178" on="0"/>
      </contour>
    </TTGlyph>
    <TTGlyph name="R" xMin="90" yMin="0" xMax="642" yMax="741">
      <contour>
        <pt x="636" y="524" on="1"/>
        <pt x="628" y="464" on="0"/>
        <pt x="555" y="373" on="0"/>
        <pt x="501" y="347" on="1"/>
        <pt x="475" y="338" on="1"/>
        <pt x="515" y="317" on="0"/>
        <pt x="552" y="246" on="0"/>
        <pt x="570" y="155" on="0"/>
        <pt x="584" y="52" on="0"/>
        <pt x="601" y="0" on="1"/>
        <pt x="488" y="0" on="1"/>
        <pt x="473" y="42" on="0"/>
        <pt x="462" y="137" on="0"/>
        <pt x="446" y="224" on="0"/>
        <pt x="415" y="294" on="0"/>
        <pt x="381" y="311" on="1"/>
        <pt x="376" y="310" on="0"/>
        <pt x="367" y="310" on="0"/>
        <pt x="362" y="310" on="1"/>
        <pt x="342" y="309" on="0"/>
        <pt x="301" y="313" on="0"/>
        <pt x="278" y="319" on="1"/>
        <pt x="292" y="345" on="0"/>
        <pt x="341" y="387" on="0"/>
        <pt x="373" y="389" on="1"/>
        <pt x="398" y="390" on="0"/>
        <pt x="448" y="411" on="0"/>
        <pt x="489" y="447" on="0"/>
        <pt x="518" y="495" on="0"/>
        <pt x="522" y="524" on="1"/>
        <pt x="525" y="552" on="0"/>
        <pt x="507" y="602" on="0"/>
        <pt x="469" y="638" on="0"/>
        <pt x="414" y="659" on="0"/>
        <pt x="382" y="659" on="1"/>
        <pt x="368" y="659" on="0"/>
        <pt x="345" y="659" on="0"/>
        <pt x="322" y="657" on="0"/>
        <pt x="295" y="654" on="0"/>
        <pt x="278" y="651" on="1"/>
        <pt x="199" y="0" on="1"/>
        <pt x="90" y="0" on="1"/>
        <pt x="178" y="718" on="1"/>
        <pt x="211" y="724" on="0"/>
        <pt x="265" y="733" on="0"/>
        <pt x="315" y="738" on="0"/>
        <pt x="365" y="741" on="0"/>
        <pt x="392" y="741" on="1"/>
        <pt x="452" y="741" on="0"/>
        <pt x="547" y="708" on="0"/>
        <pt x="612" y="650" on="0"/>
        <pt x="642" y="570" on="0"/>
      </contour>
    </TTGlyph>
    <TTGlyph name="S" xMin="44" yMin="-12" xMax="529" yMax="740">
      <contour>
        <pt x="346" y="659" on="1"/>
        <pt x="293" y="659" on="0"/>
        <pt x="228" y="601" on="0"/>
        <pt x="223" y="560" on="1"/>
        <pt x="220" y="532" on="0"/>
        <pt x="244" y="488" on="0"/>
        <pt x="287" y="451" on="0"/>
        <pt x="344" y="418" on="0"/>
        <pt x="403" y="383" on="0"/>
        <pt x="460" y="343" on="0"/>
        <pt x="501" y="291" on="0"/>
        <pt x="522" y="226" on="0"/>
        <pt x="517" y="183" on="1"/>
        <pt x="512" y="142" on="0"/>
        <pt x="471" y="71" on="0"/>
        <pt x="402" y="19" on="0"/>
        <pt x="308" y="-12" on="0"/>
        <pt x="251" y="-12" on="1"/>
        <pt x="208" y="-12" on="0"/>
        <pt x="97" y="9" on="0"/>
        <pt x="44" y="36" on="1"/>
        <pt x="82" y="109" on="1"/>
        <pt x="127" y="87" on="0"/>
        <pt x="217" y="69" on="0"/>
        <pt x="253" y="69" on="1"/>
        <pt x="286" y="69" on="0"/>
        <pt x="340" y="87" on="0"/>
        <pt x="380" y="118" on="0"/>
        <pt x="405" y="160" on="0"/>
        <pt x="408" y="184" on="1"/>
        <pt x="413" y="225" on="0"/>
        <pt x="370" y="281" on="0"/>
        <pt x="301" y="326" on="0"/>
        <pt x="218" y="369" on="0"/>
        <pt x="150" y="424" on="0"/>
        <pt x="110" y="500" on="0"/>
        <pt x="117" y="556" on="1"/>
        <pt x="122" y="597" on="0"/>
        <pt x="161" y="665" on="0"/>
        <pt x="223" y="713" on="0"/>
        <pt x="302" y="740" on="0"/>
        <pt x="347" y="740" on="1"/>
        <pt x="391" y="740" on="0"/>
        <pt x="475" y="726" on="0"/>
        <pt x="529" y="709" on="1"/>
        <pt x="490" y="637" on="1"/>
        <pt x="448" y="650" on="0"/>
        <pt x="375" y="659" on="0"/>
      </contour>
    </TTGlyph>
    <TTGlyph name="Scaron" xMin="44" yMin="-12" xMax="530" yMax="891">
      <contour>
        <pt x="395" y="761" on="1"/>
        <pt x="324" y="761" on="1"/>
        <pt x="231" y="880" on="1"/>
        <pt x="290" y="891" on="1"/>
        <pt x="368" y="833" on="1"/>
        <pt x="460" y="891" on="1"/>
        <pt x="520" y="880" on="1"/>
      </contour>
      <contour>
        <pt x="347" y="659" on="1"/>
        <pt x="293" y="659" on="0"/>
        <pt x="229" y="601" on="0"/>
        <pt x="224" y="560" on="1"/>
        <pt x="221" y="532" on="0"/>
        <pt x="245" y="488" on="0"/>
        <pt x="288" y="451" on="0"/>
        <pt x="345" y="418" on="0"/>
        <pt x="404" y="383" on="0"/>
        <pt x="461" y="343" on="0"/>
        <pt x="502" y="291" on="0"/>
        <pt x="523" y="226" on="0"/>
        <pt x="518" y="183" on="1"/>
        <pt x="513" y="142" on="0"/>
        <pt x="471" y="71" on="0"/>
        <pt x="402" y="19" on="0"/>
        <pt x="308" y="-12" on="0"/>
        <pt x="251" y="-12" on="1"/>
        <pt x="208" y="-12" on="0"/>
        <pt x="98" y="9" on="0"/>
        <pt x="44" y="36" on="1"/>
        <pt x="83" y="109" on="1"/>
        <pt x="128" y="87" on="0"/>
        <pt x="218" y="69" on="0"/>
        <pt x="253" y="69" on="1"/>
        <pt x="319" y="69" on="0"/>
        <pt x="403" y="136" on="0"/>
        <pt x="409" y="184" on="1"/>
        <pt x="414" y="225" on="0"/>
        <pt x="371" y="281" on="0"/>
        <pt x="302" y="326" on="0"/>
        <pt x="219" y="369" on="0"/>
        <pt x="151" y="424" on="0"/>
        <pt x="111" y="500" on="0"/>
        <pt x="118" y="556" on="1"/>
        <pt x="123" y="597" on="0"/>
        <pt x="162" y="665" on="0"/>
        <pt x="223" y="713" on="0"/>
        <pt x="302" y="740" on="0"/>
        <pt x="347" y="740" on="1"/>
        <pt x="391" y="740" on="0"/>
        <pt x="476" y="726" on="0"/>
        <pt x="530" y="709" on="1"/>
        <pt x="491" y="637" on="1"/>
        <pt x="449" y="650" on="0"/>
        <pt x="376" y="659" on="0"/>
      </contour>
    </TTGlyph>
    <TTGlyph name="T" xMin="101" yMin="0" xMax="632" yMax="727">
      <contour>
        <pt x="306" y="646" on="1"/>
        <pt x="101" y="646" on="1"/>
        <pt x="111" y="727" on="1"/>
        <pt x="632" y="727" on="1"/>
        <pt x="622" y="646" on="1"/>
        <pt x="416" y="646" on="1"/>
        <pt x="337" y="0" on="1"/>
        <pt x="227" y="0" on="1"/>
      </contour>
    </TTGlyph>
    <TTGlyph name="Thorn" xMin="91" yMin="0" xMax="619" yMax="727">
      <contour>
        <pt x="613" y="363" on="1"/>
        <pt x="607" y="314" on="0"/>
        <pt x="558" y="236" on="0"/>
        <pt x="486" y="181" on="0"/>
        <pt x="398" y="148" on="0"/>
        <pt x="352" y="144" on="1"/>
        <pt x="330" y="142" on="0"/>
        <pt x="280" y="145" on="0"/>
        <pt x="253" y="153" on="1"/>
        <pt x="268" y="179" on="0"/>
        <pt x="317" y="221" on="0"/>
        <pt x="349" y="222" on="1"/>
        <pt x="373" y="223" on="0"/>
        <pt x="423" y="244" on="0"/>
        <pt x="465" y="282" on="0"/>
        <pt x="494" y="333" on="0"/>
        <pt x="498" y="363" on="1"/>
        <pt x="502" y="393" on="0"/>
        <pt x="484" y="445" on="0"/>
        <pt x="447" y="483" on="0"/>
        <pt x="393" y="505" on="0"/>
        <pt x="360" y="505" on="1"/>
        <pt x="332" y="505" on="0"/>
        <pt x="284" y="502" on="0"/>
        <pt x="257" y="499" on="1"/>
        <pt x="196" y="0" on="1"/>
        <pt x="91" y="0" on="1"/>
        <pt x="180" y="727" on="1"/>
        <pt x="285" y="727" on="1"/>
        <pt x="267" y="582" on="1"/>
        <pt x="292" y="584" on="0"/>
        <pt x="342" y="587" on="0"/>
        <pt x="370" y="587" on="1"/>
        <pt x="430" y="587" on="0"/>
        <pt x="526" y="553" on="0"/>
        <pt x="590" y="493" on="0"/>
        <pt x="619" y="411" on="0"/>
      </contour>
    </TTGlyph>
    <TTGlyph name="U" xMin="107" yMin="-14" xMax="722" yMax="727">
      <contour>
        <pt x="356" y="-14" on="1"/>
        <pt x="291" y="-14" on="0"/>
        <pt x="193" y="26" on="0"/>
        <pt x="131" y="100" on="0"/>
        <pt x="107" y="205" on="0"/>
        <pt x="115" y="271" on="1"/>
        <pt x="171" y="727" on="1"/>
        <pt x="279" y="727" on="1"/>
        <pt x="221" y="255" on="1"/>
        <pt x="216" y="212" on="0"/>
        <pt x="232" y="142" on="0"/>
        <pt x="270" y="93" on="0"/>
        <pt x="328" y="67" on="0"/>
        <pt x="366" y="67" on="1"/>
        <pt x="403" y="67" on="0"/>
        <pt x="469" y="93" on="0"/>
        <pt x="519" y="142" on="0"/>
        <pt x="552" y="212" on="0"/>
        <pt x="557" y="255" on="1"/>
        <pt x="615" y="727" on="1"/>
        <pt x="722" y="727" on="1"/>
        <pt x="666" y="271" on="1"/>
        <pt x="658" y="207" on="0"/>
        <pt x="606" y="102" on="0"/>
        <pt x="524" y="27" on="0"/>
        <pt x="418" y="-14" on="0"/>
      </contour>
    </TTGlyph>
    <TTGlyph name="Uacute" xMin="108" yMin="-14" xMax="722" yMax="890">
      <contour>
        <pt x="616" y="890" on="1"/>
        <pt x="521" y="797" on="1"/>
        <pt x="495" y="771" on="0"/>
        <pt x="429" y="759" on="0"/>
        <pt x="406" y="766" on="1"/>
        <pt x="509" y="890" on="1"/>
      </contour>
      <contour>
        <pt x="356" y="-14" on="1"/>
        <pt x="291" y="-14" on="0"/>
        <pt x="194" y="26" on="0"/>
        <pt x="132" y="100" on="0"/>
        <pt x="108" y="205" on="0"/>
        <pt x="116" y="271" on="1"/>
        <pt x="172" y="727" on="1"/>
        <pt x="279" y="727" on="1"/>
        <pt x="221" y="255" on="1"/>
        <pt x="216" y="212" on="0"/>
        <pt x="232" y="142" on="0"/>
        <pt x="270" y="93" on="0"/>
        <pt x="328" y="67" on="0"/>
        <pt x="366" y="67" on="1"/>
        <pt x="403" y="67" on="0"/>
        <pt x="469" y="93" on="0"/>
        <pt x="519" y="142" on="0"/>
        <pt x="552" y="212" on="0"/>
        <pt x="557" y="255" on="1"/>
        <pt x="615" y="727" on="1"/>
        <pt x="722" y="727" on="1"/>
        <pt x="666" y="271" on="1"/>
        <pt x="658" y="207" on="0"/>
        <pt x="606" y="102" on="0"/>
        <pt x="524" y="27" on="0"/>
        <pt x="418" y="-14" on="0"/>
      </contour>
    </TTGlyph>
    <TTGlyph name="Ucircumflex" xMin="108" yMin="-14" xMax="722" yMax="890">
      <contour>
        <pt x="431" y="890" on="1"/>
        <pt x="502" y="890" on="1"/>
        <pt x="597" y="771" on="1"/>
        <pt x="535" y="760" on="1"/>
        <pt x="457" y="818" on="1"/>
        <pt x="365" y="760" on="1"/>
        <pt x="308" y="771" on="1"/>
      </contour>
      <contour>
        <pt x="356" y="-14" on="1"/>
        <pt x="291" y="-14" on="0"/>
        <pt x="194" y="26" on="0"/>
        <pt x="132" y="100" on="0"/>
        <pt x="108" y="205" on="0"/>
        <pt x="116" y="271" on="1"/>
        <pt x="172" y="727" on="1"/>
        <pt x="279" y="727" on="1"/>
        <pt x="221" y="255" on="1"/>
        <pt x="216" y="212" on="0"/>
        <pt x="232" y="142" on="0"/>
        <pt x="270" y="93" on="0"/>
        <pt x="328" y="67" on="0"/>
        <pt x="366" y="67" on="1"/>
        <pt x="403" y="67" on="0"/>
        <pt x="469" y="93" on="0"/>
        <pt x="519" y="142" on="0"/>
        <pt x="552" y="212" on="0"/>
        <pt x="557" y="255" on="1"/>
        <pt x="615" y="727" on="1"/>
        <pt x="722" y="727" on="1"/>
        <pt x="666" y="271" on="1"/>
        <pt x="658" y="207" on="0"/>
        <pt x="606" y="102" on="0"/>
        <pt x="524" y="27" on="0"/>
        <pt x="418" y="-14" on="0"/>
      </contour>
    </TTGlyph>
    <TTGlyph name="Udieresis" xMin="108" yMin="-14" xMax="723" yMax="895">
      <contour>
        <pt x="504" y="840" on="1"/>
        <pt x="506" y="863" on="0"/>
        <pt x="543" y="895" on="0"/>
        <pt x="566" y="895" on="1"/>
        <pt x="589" y="895" on="0"/>
        <pt x="617" y="863" on="0"/>
        <pt x="615" y="840" on="1"/>
        <pt x="612" y="817" on="0"/>
        <pt x="576" y="785" on="0"/>
        <pt x="553" y="785" on="1"/>
        <pt x="530" y="785" on="0"/>
        <pt x="501" y="817" on="0"/>
      </contour>
      <contour>
        <pt x="310" y="840" on="1"/>
        <pt x="312" y="863" on="0"/>
        <pt x="348" y="895" on="0"/>
        <pt x="371" y="895" on="1"/>
        <pt x="394" y="895" on="0"/>
        <pt x="423" y="863" on="0"/>
        <pt x="421" y="840" on="1"/>
        <pt x="418" y="817" on="0"/>
        <pt x="381" y="785" on="0"/>
        <pt x="358" y="785" on="1"/>
        <pt x="335" y="785" on="0"/>
        <pt x="307" y="817" on="0"/>
      </contour>
      <contour>
        <pt x="357" y="-14" on="1"/>
        <pt x="292" y="-14" on="0"/>
        <pt x="194" y="26" on="0"/>
        <pt x="132" y="100" on="0"/>
        <pt x="108" y="205" on="0"/>
        <pt x="116" y="271" on="1"/>
        <pt x="172" y="727" on="1"/>
        <pt x="280" y="727" on="1"/>
        <pt x="222" y="255" on="1"/>
        <pt x="217" y="212" on="0"/>
        <pt x="233" y="142" on="0"/>
        <pt x="271" y="93" on="0"/>
        <pt x="329" y="67" on="0"/>
        <pt x="367" y="67" on="1"/>
        <pt x="404" y="67" on="0"/>
        <pt x="469" y="93" on="0"/>
        <pt x="519" y="142" on="0"/>
        <pt x="552" y="212" on="0"/>
        <pt x="557" y="255" on="1"/>
        <pt x="615" y="727" on="1"/>
        <pt x="723" y="727" on="1"/>
        <pt x="667" y="271" on="1"/>
        <pt x="659" y="207" on="0"/>
        <pt x="607" y="102" on="0"/>
        <pt x="525" y="27" on="0"/>
        <pt x="419" y="-14" on="0"/>
      </contour>
    </TTGlyph>
    <TTGlyph name="Ugrave" xMin="108" yMin="-14" xMax="722" yMax="890">
      <contour>
        <pt x="393" y="797" on="1"/>
        <pt x="336" y="890" on="1"/>
        <pt x="441" y="890" on="1"/>
        <pt x="500" y="766" on="1"/>
        <pt x="473" y="759" on="0"/>
        <pt x="410" y="771" on="0"/>
      </contour>
      <contour>
        <pt x="356" y="-14" on="1"/>
        <pt x="291" y="-14" on="0"/>
        <pt x="194" y="26" on="0"/>
        <pt x="132" y="100" on="0"/>
        <pt x="108" y="205" on="0"/>
        <pt x="116" y="271" on="1"/>
        <pt x="172" y="727" on="1"/>
        <pt x="280" y="727" on="1"/>
        <pt x="222" y="255" on="1"/>
        <pt x="211" y="168" on="0"/>
        <pt x="291" y="67" on="0"/>
        <pt x="366" y="67" on="1"/>
        <pt x="403" y="67" on="0"/>
        <pt x="469" y="93" on="0"/>
        <pt x="519" y="142" on="0"/>
        <pt x="552" y="212" on="0"/>
        <pt x="557" y="255" on="1"/>
        <pt x="615" y="727" on="1"/>
        <pt x="722" y="727" on="1"/>
        <pt x="666" y="271" on="1"/>
        <pt x="658" y="207" on="0"/>
        <pt x="606" y="102" on="0"/>
        <pt x="524" y="27" on="0"/>
        <pt x="418" y="-14" on="0"/>
      </contour>
    </TTGlyph>
    <TTGlyph name="V" xMin="91" yMin="0" xMax="712" yMax="727">
      <contour>
        <pt x="370" y="0" on="1"/>
        <pt x="257" y="0" on="1"/>
        <pt x="91" y="727" on="1"/>
        <pt x="208" y="727" on="1"/>
        <pt x="325" y="143" on="1"/>
        <pt x="328" y="109" on="1"/>
        <pt x="339" y="142" on="1"/>
        <pt x="599" y="727" on="1"/>
        <pt x="712" y="727" on="1"/>
      </contour>
    </TTGlyph>
    <TTGlyph name="W" xMin="109" yMin="0" xMax="1059" yMax="727">
      <contour>
        <pt x="527" y="717" on="1"/>
        <pt x="645" y="717" on="1"/>
        <pt x="720" y="153" on="1"/>
        <pt x="724" y="102" on="1"/>
        <pt x="738" y="151" on="1"/>
        <pt x="953" y="727" on="1"/>
        <pt x="1059" y="727" on="1"/>
        <pt x="772" y="0" on="1"/>
        <pt x="652" y="0" on="1"/>
        <pt x="573" y="557" on="1"/>
        <pt x="569" y="599" on="1"/>
        <pt x="556" y="559" on="1"/>
        <pt x="342" y="0" on="1"/>
        <pt x="218" y="0" on="1"/>
        <pt x="109" y="727" on="1"/>
        <pt x="217" y="727" on="1"/>
        <pt x="291" y="153" on="1"/>
        <pt x="293" y="102" on="1"/>
        <pt x="310" y="153" on="1"/>
      </contour>
    </TTGlyph>
    <TTGlyph name="X" xMin="13" yMin="0" xMax="658" yMax="727">
      <contour>
        <pt x="259" y="191" on="1"/>
        <pt x="130" y="0" on="1"/>
        <pt x="13" y="0" on="1"/>
        <pt x="252" y="329" on="1"/>
        <pt x="259" y="317" on="0"/>
        <pt x="273" y="284" on="0"/>
        <pt x="278" y="247" on="0"/>
        <pt x="271" y="209" on="0"/>
      </contour>
      <contour>
        <pt x="460" y="0" on="1"/>
        <pt x="114" y="727" on="1"/>
        <pt x="239" y="727" on="1"/>
        <pt x="347" y="470" on="1"/>
        <pt x="353" y="443" on="1"/>
        <pt x="364" y="470" on="1"/>
        <pt x="537" y="727" on="1"/>
        <pt x="658" y="727" on="1"/>
        <pt x="401" y="374" on="1"/>
        <pt x="582" y="0" on="1"/>
      </contour>
    </TTGlyph>
    <TTGlyph name="Y" xMin="85" yMin="0" xMax="683" yMax="727">
      <contour>
        <pt x="421" y="518" on="1"/>
        <pt x="564" y="727" on="1"/>
        <pt x="683" y="727" on="1"/>
        <pt x="426" y="376" on="1"/>
        <pt x="418" y="388" on="0"/>
        <pt x="405" y="421" on="0"/>
        <pt x="401" y="458" on="0"/>
        <pt x="408" y="498" on="0"/>
      </contour>
      <contour>
        <pt x="207" y="727" on="1"/>
        <pt x="393" y="338" on="1"/>
        <pt x="352" y="0" on="1"/>
        <pt x="246" y="0" on="1"/>
        <pt x="284" y="313" on="1"/>
        <pt x="85" y="727" on="1"/>
      </contour>
    </TTGlyph>
    <TTGlyph name="Yacute" xMin="85" yMin="0" xMax="683" yMax="890">
      <contour>
        <pt x="576" y="890" on="1"/>
        <pt x="481" y="797" on="1"/>
        <pt x="455" y="771" on="0"/>
        <pt x="389" y="759" on="0"/>
        <pt x="366" y="766" on="1"/>
        <pt x="469" y="890" on="1"/>
      </contour>
      <contour>
        <pt x="421" y="518" on="1"/>
        <pt x="564" y="727" on="1"/>
        <pt x="683" y="727" on="1"/>
        <pt x="427" y="376" on="1"/>
        <pt x="419" y="388" on="0"/>
        <pt x="405" y="421" on="0"/>
        <pt x="401" y="458" on="0"/>
        <pt x="408" y="498" on="0"/>
      </contour>
      <contour>
        <pt x="207" y="727" on="1"/>
        <pt x="393" y="338" on="1"/>
        <pt x="352" y="0" on="1"/>
        <pt x="246" y="0" on="1"/>
        <pt x="284" y="313" on="1"/>
        <pt x="85" y="727" on="1"/>
      </contour>
    </TTGlyph>
    <TTGlyph name="Ydieresis" xMin="85" yMin="0" xMax="682" yMax="895">
      <contour>
        <pt x="444" y="840" on="1"/>
        <pt x="446" y="863" on="0"/>
        <pt x="483" y="895" on="0"/>
        <pt x="506" y="895" on="1"/>
        <pt x="529" y="895" on="0"/>
        <pt x="557" y="863" on="0"/>
        <pt x="555" y="840" on="1"/>
        <pt x="552" y="817" on="0"/>
        <pt x="516" y="785" on="0"/>
        <pt x="493" y="785" on="1"/>
        <pt x="470" y="785" on="0"/>
        <pt x="441" y="817" on="0"/>
      </contour>
      <contour>
        <pt x="250" y="840" on="1"/>
        <pt x="252" y="863" on="0"/>
        <pt x="288" y="895" on="0"/>
        <pt x="311" y="895" on="1"/>
        <pt x="334" y="895" on="0"/>
        <pt x="363" y="863" on="0"/>
        <pt x="361" y="840" on="1"/>
        <pt x="358" y="817" on="0"/>
        <pt x="321" y="785" on="0"/>
        <pt x="298" y="785" on="1"/>
        <pt x="275" y="785" on="0"/>
        <pt x="247" y="817" on="0"/>
      </contour>
      <contour>
        <pt x="420" y="518" on="1"/>
        <pt x="563" y="727" on="1"/>
        <pt x="682" y="727" on="1"/>
        <pt x="426" y="376" on="1"/>
        <pt x="418" y="388" on="0"/>
        <pt x="404" y="421" on="0"/>
        <pt x="400" y="458" on="0"/>
        <pt x="407" y="498" on="0"/>
      </contour>
      <contour>
        <pt x="207" y="727" on="1"/>
        <pt x="392" y="338" on="1"/>
        <pt x="351" y="0" on="1"/>
        <pt x="245" y="0" on="1"/>
        <pt x="283" y="313" on="1"/>
        <pt x="85" y="727" on="1"/>
      </contour>
    </TTGlyph>
    <TTGlyph name="Z" xMin="21" yMin="0" xMax="630" yMax="727">
      <contour>
        <pt x="140" y="647" on="1"/>
        <pt x="150" y="727" on="1"/>
        <pt x="630" y="727" on="1"/>
        <pt x="624" y="683" on="1"/>
        <pt x="174" y="93" on="1"/>
        <pt x="157" y="78" on="1"/>
        <pt x="179" y="81" on="1"/>
        <pt x="560" y="81" on="1"/>
        <pt x="551" y="0" on="1"/>
        <pt x="21" y="0" on="1"/>
        <pt x="26" y="44" on="1"/>
        <pt x="475" y="633" on="1"/>
        <pt x="493" y="650" on="1"/>
        <pt x="469" y="647" on="1"/>
      </contour>
    </TTGlyph>
    <TTGlyph name="Zcaron" xMin="21" yMin="0" xMax="629" yMax="891">
      <contour>
        <pt x="431" y="761" on="1"/>
        <pt x="360" y="761" on="1"/>
        <pt x="267" y="880" on="1"/>
        <pt x="326" y="891" on="1"/>
        <pt x="404" y="833" on="1"/>
        <pt x="496" y="891" on="1"/>
        <pt x="556" y="880" on="1"/>
      </contour>
      <contour>
        <pt x="140" y="647" on="1"/>
        <pt x="150" y="727" on="1"/>
        <pt x="629" y="727" on="1"/>
        <pt x="623" y="683" on="1"/>
        <pt x="173" y="93" on="1"/>
        <pt x="156" y="78" on="1"/>
        <pt x="178" y="81" on="1"/>
        <pt x="559" y="81" on="1"/>
        <pt x="550" y="0" on="1"/>
        <pt x="21" y="0" on="1"/>
        <pt x="26" y="44" on="1"/>
        <pt x="475" y="633" on="1"/>
        <pt x="493" y="650" on="1"/>
        <pt x="469" y="647" on="1"/>
      </contour>
    </TTGlyph>
    <TTGlyph name="a" xMin="64" yMin="-11" xMax="557" yMax="528">
      <contour>
        <pt x="446" y="436" on="1"/>
        <pt x="424" y="442" on="0"/>
        <pt x="386" y="447" on="0"/>
        <pt x="367" y="447" on="1"/>
        <pt x="294" y="447" on="0"/>
        <pt x="195" y="344" on="0"/>
        <pt x="184" y="251" on="1"/>
        <pt x="179" y="214" on="0"/>
        <pt x="185" y="148" on="0"/>
        <pt x="208" y="100" on="0"/>
        <pt x="251" y="74" on="0"/>
        <pt x="283" y="79" on="1"/>
        <pt x="328" y="85" on="0"/>
        <pt x="360" y="37" on="1"/>
        <pt x="333" y="19" on="0"/>
        <pt x="277" y="-3" on="0"/>
        <pt x="254" y="-5" on="1"/>
        <pt x="209" y="-11" on="0"/>
        <pt x="135" y="26" on="0"/>
        <pt x="86" y="96" on="0"/>
        <pt x="64" y="195" on="0"/>
        <pt x="71" y="251" on="1"/>
        <pt x="78" y="312" on="0"/>
        <pt x="130" y="413" on="0"/>
        <pt x="210" y="487" on="0"/>
        <pt x="315" y="528" on="0"/>
        <pt x="376" y="528" on="1"/>
        <pt x="418" y="528" on="0"/>
        <pt x="501" y="514" on="0"/>
        <pt x="557" y="496" on="1"/>
        <pt x="517" y="181" on="1"/>
        <pt x="510" y="124" on="0"/>
        <pt x="506" y="40" on="0"/>
        <pt x="511" y="5" on="1"/>
        <pt x="432" y="0" on="1"/>
        <pt x="421" y="10" on="0"/>
        <pt x="400" y="65" on="0"/>
        <pt x="405" y="103" on="1"/>
      </contour>
    </TTGlyph>
    <TTGlyph name="aacute" xMin="64" yMin="-11" xMax="557" yMax="740">
      <contour>
        <pt x="446" y="436" on="1"/>
        <pt x="424" y="442" on="0"/>
        <pt x="386" y="447" on="0"/>
        <pt x="367" y="447" on="1"/>
        <pt x="294" y="447" on="0"/>
        <pt x="195" y="344" on="0"/>
        <pt x="184" y="251" on="1"/>
        <pt x="179" y="214" on="0"/>
        <pt x="185" y="148" on="0"/>
        <pt x="208" y="100" on="0"/>
        <pt x="251" y="74" on="0"/>
        <pt x="283" y="79" on="1"/>
        <pt x="328" y="85" on="0"/>
        <pt x="360" y="37" on="1"/>
        <pt x="333" y="19" on="0"/>
        <pt x="277" y="-3" on="0"/>
        <pt x="254" y="-5" on="1"/>
        <pt x="209" y="-11" on="0"/>
        <pt x="135" y="26" on="0"/>
        <pt x="86" y="96" on="0"/>
        <pt x="64" y="195" on="0"/>
        <pt x="71" y="251" on="1"/>
        <pt x="78" y="312" on="0"/>
        <pt x="130" y="413" on="0"/>
        <pt x="210" y="487" on="0"/>
        <pt x="315" y="528" on="0"/>
        <pt x="376" y="528" on="1"/>
        <pt x="418" y="528" on="0"/>
        <pt x="501" y="514" on="0"/>
        <pt x="557" y="496" on="1"/>
        <pt x="517" y="181" on="1"/>
        <pt x="510" y="124" on="0"/>
        <pt x="506" y="40" on="0"/>
        <pt x="511" y="5" on="1"/>
        <pt x="432" y="0" on="1"/>
        <pt x="421" y="10" on="0"/>
        <pt x="400" y="65" on="0"/>
        <pt x="405" y="103" on="1"/>
      </contour>
      <contour>
        <pt x="533" y="740" on="1"/>
        <pt x="435" y="635" on="1"/>
        <pt x="409" y="607" on="0"/>
        <pt x="343" y="595" on="0"/>
        <pt x="319" y="602" on="1"/>
        <pt x="424" y="740" on="1"/>
      </contour>
    </TTGlyph>
    <TTGlyph name="acircumflex" xMin="64" yMin="-11" xMax="557" yMax="743">
      <contour>
        <pt x="446" y="436" on="1"/>
        <pt x="424" y="442" on="0"/>
        <pt x="386" y="447" on="0"/>
        <pt x="367" y="447" on="1"/>
        <pt x="294" y="447" on="0"/>
        <pt x="195" y="344" on="0"/>
        <pt x="184" y="251" on="1"/>
        <pt x="179" y="214" on="0"/>
        <pt x="185" y="148" on="0"/>
        <pt x="208" y="100" on="0"/>
        <pt x="251" y="74" on="0"/>
        <pt x="283" y="79" on="1"/>
        <pt x="328" y="85" on="0"/>
        <pt x="360" y="37" on="1"/>
        <pt x="333" y="19" on="0"/>
        <pt x="277" y="-3" on="0"/>
        <pt x="254" y="-5" on="1"/>
        <pt x="209" y="-11" on="0"/>
        <pt x="135" y="26" on="0"/>
        <pt x="86" y="96" on="0"/>
        <pt x="64" y="195" on="0"/>
        <pt x="71" y="251" on="1"/>
        <pt x="78" y="312" on="0"/>
        <pt x="130" y="413" on="0"/>
        <pt x="210" y="487" on="0"/>
        <pt x="315" y="528" on="0"/>
        <pt x="376" y="528" on="1"/>
        <pt x="418" y="528" on="0"/>
        <pt x="501" y="514" on="0"/>
        <pt x="557" y="496" on="1"/>
        <pt x="517" y="181" on="1"/>
        <pt x="510" y="124" on="0"/>
        <pt x="506" y="40" on="0"/>
        <pt x="511" y="5" on="1"/>
        <pt x="432" y="0" on="1"/>
        <pt x="421" y="10" on="0"/>
        <pt x="400" y="65" on="0"/>
        <pt x="405" y="103" on="1"/>
      </contour>
      <contour>
        <pt x="368" y="743" on="1"/>
        <pt x="439" y="743" on="1"/>
        <pt x="531" y="599" on="1"/>
        <pt x="469" y="589" on="1"/>
        <pt x="394" y="669" on="1"/>
        <pt x="299" y="588" on="1"/>
        <pt x="242" y="599" on="1"/>
      </contour>
    </TTGlyph>
    <TTGlyph name="acute" xMin="138" yMin="595" xMax="352" yMax="740">
      <contour>
        <pt x="352" y="740" on="1"/>
        <pt x="254" y="635" on="1"/>
        <pt x="228" y="607" on="0"/>
        <pt x="162" y="595" on="0"/>
        <pt x="138" y="602" on="1"/>
        <pt x="243" y="740" on="1"/>
      </contour>
    </TTGlyph>
    <TTGlyph name="adieresis" xMin="64" yMin="-11" xMax="557" yMax="725">
      <contour>
        <pt x="446" y="436" on="1"/>
        <pt x="424" y="442" on="0"/>
        <pt x="386" y="447" on="0"/>
        <pt x="367" y="447" on="1"/>
        <pt x="294" y="447" on="0"/>
        <pt x="195" y="344" on="0"/>
        <pt x="184" y="251" on="1"/>
        <pt x="179" y="214" on="0"/>
        <pt x="185" y="148" on="0"/>
        <pt x="208" y="100" on="0"/>
        <pt x="251" y="74" on="0"/>
        <pt x="283" y="79" on="1"/>
        <pt x="328" y="85" on="0"/>
        <pt x="360" y="37" on="1"/>
        <pt x="333" y="19" on="0"/>
        <pt x="277" y="-3" on="0"/>
        <pt x="254" y="-5" on="1"/>
        <pt x="209" y="-11" on="0"/>
        <pt x="135" y="26" on="0"/>
        <pt x="86" y="96" on="0"/>
        <pt x="64" y="195" on="0"/>
        <pt x="71" y="251" on="1"/>
        <pt x="78" y="312" on="0"/>
        <pt x="130" y="413" on="0"/>
        <pt x="210" y="487" on="0"/>
        <pt x="315" y="528" on="0"/>
        <pt x="376" y="528" on="1"/>
        <pt x="418" y="528" on="0"/>
        <pt x="501" y="514" on="0"/>
        <pt x="557" y="496" on="1"/>
        <pt x="517" y="181" on="1"/>
        <pt x="510" y="124" on="0"/>
        <pt x="506" y="40" on="0"/>
        <pt x="511" y="5" on="1"/>
        <pt x="432" y="0" on="1"/>
        <pt x="421" y="10" on="0"/>
        <pt x="400" y="65" on="0"/>
        <pt x="405" y="103" on="1"/>
      </contour>
      <contour>
        <pt x="422" y="670" on="1"/>
        <pt x="425" y="693" on="0"/>
        <pt x="462" y="725" on="0"/>
        <pt x="485" y="725" on="1"/>
        <pt x="508" y="725" on="0"/>
        <pt x="536" y="693" on="0"/>
        <pt x="533" y="670" on="1"/>
        <pt x="530" y="647" on="0"/>
        <pt x="494" y="615" on="0"/>
        <pt x="471" y="615" on="1"/>
        <pt x="448" y="615" on="0"/>
        <pt x="419" y="647" on="0"/>
      </contour>
      <contour>
        <pt x="228" y="670" on="1"/>
        <pt x="231" y="693" on="0"/>
        <pt x="267" y="725" on="0"/>
        <pt x="290" y="725" on="1"/>
        <pt x="313" y="725" on="0"/>
        <pt x="342" y="693" on="0"/>
        <pt x="339" y="670" on="1"/>
        <pt x="336" y="647" on="0"/>
        <pt x="299" y="615" on="0"/>
        <pt x="276" y="615" on="1"/>
        <pt x="253" y="615" on="0"/>
        <pt x="225" y="647" on="0"/>
      </contour>
    </TTGlyph>
    <TTGlyph name="ae" xMin="42" yMin="-11" xMax="827" yMax="528">
      <contour>
        <pt x="606" y="317" on="1"/>
        <pt x="722" y="317" on="1"/>
        <pt x="729" y="344" on="0"/>
        <pt x="722" y="392" on="0"/>
        <pt x="699" y="428" on="0"/>
        <pt x="662" y="449" on="0"/>
        <pt x="638" y="449" on="1"/>
        <pt x="610" y="449" on="0"/>
        <pt x="558" y="425" on="0"/>
        <pt x="516" y="379" on="0"/>
        <pt x="487" y="310" on="0"/>
        <pt x="481" y="265" on="1"/>
        <pt x="476" y="221" on="0"/>
        <pt x="490" y="149" on="0"/>
        <pt x="524" y="98" on="0"/>
        <pt x="577" y="70" on="0"/>
        <pt x="610" y="70" on="1"/>
        <pt x="645" y="70" on="0"/>
        <pt x="710" y="85" on="0"/>
        <pt x="756" y="106" on="1"/>
        <pt x="775" y="33" on="1"/>
        <pt x="721" y="7" on="0"/>
        <pt x="628" y="-11" on="0"/>
        <pt x="589" y="-11" on="1"/>
        <pt x="557" y="-11" on="0"/>
        <pt x="498" y="11" on="0"/>
        <pt x="452" y="49" on="0"/>
        <pt x="419" y="100" on="0"/>
        <pt x="413" y="128" on="1"/>
        <pt x="381" y="61" on="0"/>
        <pt x="264" y="-11" on="0"/>
        <pt x="200" y="-11" on="1"/>
        <pt x="161" y="-11" on="0"/>
        <pt x="100" y="10" on="0"/>
        <pt x="60" y="49" on="0"/>
        <pt x="42" y="102" on="0"/>
        <pt x="46" y="134" on="1"/>
        <pt x="50" y="170" on="0"/>
        <pt x="86" y="227" on="0"/>
        <pt x="156" y="269" on="0"/>
        <pt x="265" y="297" on="0"/>
        <pt x="344" y="305" on="1"/>
        <pt x="341" y="295" on="0"/>
        <pt x="331" y="272" on="0"/>
        <pt x="314" y="250" on="0"/>
        <pt x="290" y="232" on="0"/>
        <pt x="273" y="228" on="1"/>
        <pt x="242" y="218" on="0"/>
        <pt x="200" y="202" on="0"/>
        <pt x="173" y="183" on="0"/>
        <pt x="159" y="160" on="0"/>
        <pt x="157" y="142" on="1"/>
        <pt x="153" y="113" on="0"/>
        <pt x="189" y="70" on="0"/>
        <pt x="224" y="70" on="1"/>
        <pt x="284" y="70" on="0"/>
        <pt x="364" y="172" on="0"/>
        <pt x="375" y="263" on="1"/>
        <pt x="382" y="318" on="1"/>
        <pt x="389" y="375" on="0"/>
        <pt x="339" y="446" on="0"/>
        <pt x="275" y="446" on="1"/>
        <pt x="249" y="446" on="0"/>
        <pt x="194" y="436" on="0"/>
        <pt x="156" y="423" on="1"/>
        <pt x="139" y="492" on="1"/>
        <pt x="189" y="513" on="0"/>
        <pt x="271" y="527" on="0"/>
        <pt x="305" y="527" on="1"/>
        <pt x="360" y="527" on="0"/>
        <pt x="440" y="469" on="0"/>
        <pt x="457" y="419" on="1"/>
        <pt x="473" y="443" on="0"/>
        <pt x="518" y="483" on="0"/>
        <pt x="570" y="512" on="0"/>
        <pt x="628" y="528" on="0"/>
        <pt x="657" y="528" on="1"/>
        <pt x="709" y="528" on="0"/>
        <pt x="787" y="482" on="0"/>
        <pt x="827" y="405" on="0"/>
        <pt x="827" y="303" on="0"/>
        <pt x="802" y="246" on="1"/>
        <pt x="515" y="246" on="1"/>
        <pt x="529" y="276" on="0"/>
        <pt x="573" y="317" on="0"/>
      </contour>
    </TTGlyph>
    <TTGlyph name="agrave" xMin="64" yMin="-11" xMax="557" yMax="740">
      <contour>
        <pt x="446" y="436" on="1"/>
        <pt x="424" y="442" on="0"/>
        <pt x="386" y="447" on="0"/>
        <pt x="367" y="447" on="1"/>
        <pt x="294" y="447" on="0"/>
        <pt x="195" y="344" on="0"/>
        <pt x="184" y="251" on="1"/>
        <pt x="179" y="214" on="0"/>
        <pt x="185" y="148" on="0"/>
        <pt x="208" y="100" on="0"/>
        <pt x="251" y="74" on="0"/>
        <pt x="283" y="79" on="1"/>
        <pt x="328" y="85" on="0"/>
        <pt x="360" y="37" on="1"/>
        <pt x="333" y="19" on="0"/>
        <pt x="277" y="-3" on="0"/>
        <pt x="254" y="-5" on="1"/>
        <pt x="209" y="-11" on="0"/>
        <pt x="135" y="26" on="0"/>
        <pt x="86" y="96" on="0"/>
        <pt x="64" y="195" on="0"/>
        <pt x="71" y="251" on="1"/>
        <pt x="78" y="312" on="0"/>
        <pt x="130" y="413" on="0"/>
        <pt x="210" y="487" on="0"/>
        <pt x="315" y="528" on="0"/>
        <pt x="376" y="528" on="1"/>
        <pt x="418" y="528" on="0"/>
        <pt x="501" y="514" on="0"/>
        <pt x="557" y="496" on="1"/>
        <pt x="517" y="181" on="1"/>
        <pt x="510" y="124" on="0"/>
        <pt x="506" y="40" on="0"/>
        <pt x="511" y="5" on="1"/>
        <pt x="432" y="0" on="1"/>
        <pt x="421" y="10" on="0"/>
        <pt x="400" y="65" on="0"/>
        <pt x="405" y="103" on="1"/>
      </contour>
      <contour>
        <pt x="320" y="636" on="1"/>
        <pt x="262" y="740" on="1"/>
        <pt x="369" y="740" on="1"/>
        <pt x="425" y="602" on="1"/>
        <pt x="399" y="596" on="0"/>
        <pt x="338" y="609" on="0"/>
      </contour>
    </TTGlyph>
    <TTGlyph name="ampersand" xMin="59" yMin="-11" xMax="641" yMax="737">
      <contour>
        <pt x="322" y="78" on="1"/>
        <pt x="356" y="86" on="0"/>
        <pt x="407" y="69" on="0"/>
        <pt x="427" y="48" on="1"/>
        <pt x="389" y="20" on="0"/>
        <pt x="305" y="-11" on="0"/>
        <pt x="253" y="-11" on="1"/>
        <pt x="202" y="-11" on="0"/>
        <pt x="127" y="25" on="0"/>
        <pt x="79" y="85" on="0"/>
        <pt x="59" y="165" on="0"/>
        <pt x="64" y="209" on="1"/>
        <pt x="68" y="243" on="0"/>
        <pt x="94" y="303" on="0"/>
        <pt x="133" y="354" on="0"/>
        <pt x="182" y="398" on="0"/>
        <pt x="209" y="416" on="1"/>
        <pt x="185" y="458" on="0"/>
        <pt x="168" y="526" on="0"/>
        <pt x="172" y="559" on="1"/>
        <pt x="177" y="598" on="0"/>
        <pt x="214" y="664" on="0"/>
        <pt x="272" y="711" on="0"/>
        <pt x="350" y="737" on="0"/>
        <pt x="397" y="737" on="1"/>
        <pt x="430" y="737" on="0"/>
        <pt x="508" y="720" on="0"/>
        <pt x="540" y="703" on="1"/>
        <pt x="505" y="632" on="1"/>
        <pt x="479" y="644" on="0"/>
        <pt x="412" y="656" on="0"/>
        <pt x="385" y="656" on="1"/>
        <pt x="340" y="656" on="0"/>
        <pt x="276" y="606" on="0"/>
        <pt x="271" y="568" on="1"/>
        <pt x="268" y="546" on="0"/>
        <pt x="276" y="508" on="0"/>
        <pt x="295" y="469" on="0"/>
        <pt x="323" y="428" on="0"/>
        <pt x="341" y="404" on="1"/>
        <pt x="481" y="212" on="1"/>
        <pt x="506" y="254" on="0"/>
        <pt x="543" y="331" on="0"/>
        <pt x="557" y="379" on="1"/>
        <pt x="641" y="379" on="1"/>
        <pt x="619" y="313" on="0"/>
        <pt x="567" y="197" on="0"/>
        <pt x="529" y="146" on="1"/>
        <pt x="639" y="0" on="1"/>
        <pt x="509" y="0" on="1"/>
        <pt x="276" y="316" on="1"/>
        <pt x="252" y="353" on="1"/>
        <pt x="222" y="325" on="0"/>
        <pt x="179" y="266" on="0"/>
        <pt x="174" y="222" on="1"/>
        <pt x="166" y="155" on="0"/>
        <pt x="218" y="70" on="0"/>
        <pt x="278" y="70" on="1"/>
        <pt x="289" y="70" on="0"/>
        <pt x="308" y="74" on="0"/>
      </contour>
    </TTGlyph>
    <TTGlyph name="aring" xMin="64" yMin="-11" xMax="557" yMax="748">
      <contour>
        <pt x="446" y="436" on="1"/>
        <pt x="424" y="442" on="0"/>
        <pt x="386" y="447" on="0"/>
        <pt x="367" y="447" on="1"/>
        <pt x="294" y="447" on="0"/>
        <pt x="195" y="344" on="0"/>
        <pt x="184" y="251" on="1"/>
        <pt x="179" y="214" on="0"/>
        <pt x="185" y="148" on="0"/>
        <pt x="208" y="100" on="0"/>
        <pt x="251" y="74" on="0"/>
        <pt x="283" y="79" on="1"/>
        <pt x="328" y="85" on="0"/>
        <pt x="360" y="37" on="1"/>
        <pt x="333" y="19" on="0"/>
        <pt x="277" y="-3" on="0"/>
        <pt x="254" y="-5" on="1"/>
        <pt x="209" y="-11" on="0"/>
        <pt x="135" y="26" on="0"/>
        <pt x="86" y="96" on="0"/>
        <pt x="64" y="195" on="0"/>
        <pt x="71" y="251" on="1"/>
        <pt x="78" y="312" on="0"/>
        <pt x="130" y="413" on="0"/>
        <pt x="210" y="487" on="0"/>
        <pt x="315" y="528" on="0"/>
        <pt x="376" y="528" on="1"/>
        <pt x="418" y="528" on="0"/>
        <pt x="501" y="514" on="0"/>
        <pt x="557" y="496" on="1"/>
        <pt x="517" y="181" on="1"/>
        <pt x="510" y="124" on="0"/>
        <pt x="506" y="40" on="0"/>
        <pt x="511" y="5" on="1"/>
        <pt x="432" y="0" on="1"/>
        <pt x="421" y="10" on="0"/>
        <pt x="400" y="65" on="0"/>
        <pt x="405" y="103" on="1"/>
      </contour>
      <contour>
        <pt x="390" y="610" on="1"/>
        <pt x="412" y="610" on="0"/>
        <pt x="440" y="638" on="0"/>
        <pt x="442" y="658" on="1"/>
        <pt x="445" y="678" on="0"/>
        <pt x="424" y="706" on="0"/>
        <pt x="402" y="706" on="1"/>
        <pt x="382" y="706" on="0"/>
        <pt x="355" y="678" on="0"/>
        <pt x="352" y="656" on="1"/>
        <pt x="350" y="639" on="0"/>
        <pt x="370" y="610" on="0"/>
      </contour>
      <contour>
        <pt x="385" y="568" on="1"/>
        <pt x="340" y="568" on="0"/>
        <pt x="290" y="618" on="0"/>
        <pt x="295" y="656" on="1"/>
        <pt x="300" y="696" on="0"/>
        <pt x="363" y="748" on="0"/>
        <pt x="408" y="748" on="1"/>
        <pt x="453" y="748" on="0"/>
        <pt x="502" y="698" on="0"/>
        <pt x="497" y="657" on="1"/>
        <pt x="492" y="618" on="0"/>
        <pt x="428" y="568" on="0"/>
      </contour>
    </TTGlyph>
    <TTGlyph name="asciicircum" xMin="100" yMin="210" xMax="581" yMax="727">
      <contour>
        <pt x="379" y="569" on="1"/>
        <pt x="194" y="210" on="1"/>
        <pt x="100" y="210" on="1"/>
        <pt x="372" y="727" on="1"/>
        <pt x="437" y="727" on="1"/>
        <pt x="581" y="210" on="1"/>
        <pt x="489" y="210" on="1"/>
        <pt x="404" y="525" on="1"/>
        <pt x="401" y="536" on="0"/>
        <pt x="395" y="558" on="0"/>
        <pt x="391" y="569" on="1"/>
        <pt x="389" y="597" on="1"/>
      </contour>
    </TTGlyph>
    <TTGlyph name="asciitilde" xMin="85" yMin="226" xMax="609" yMax="386">
      <contour>
        <pt x="175" y="228" on="1"/>
        <pt x="85" y="236" on="1"/>
        <pt x="98" y="311" on="0"/>
        <pt x="193" y="386" on="0"/>
        <pt x="256" y="386" on="1"/>
        <pt x="290" y="386" on="0"/>
        <pt x="340" y="361" on="0"/>
        <pt x="383" y="331" on="0"/>
        <pt x="428" y="306" on="0"/>
        <pt x="457" y="306" on="1"/>
        <pt x="480" y="306" on="0"/>
        <pt x="511" y="349" on="0"/>
        <pt x="519" y="384" on="1"/>
        <pt x="609" y="376" on="1"/>
        <pt x="601" y="334" on="0"/>
        <pt x="568" y="276" on="0"/>
        <pt x="524" y="242" on="0"/>
        <pt x="471" y="226" on="0"/>
        <pt x="443" y="226" on="1"/>
        <pt x="406" y="226" on="0"/>
        <pt x="355" y="251" on="0"/>
        <pt x="312" y="281" on="0"/>
        <pt x="271" y="307" on="0"/>
        <pt x="244" y="307" on="1"/>
        <pt x="222" y="307" on="0"/>
        <pt x="183" y="267" on="0"/>
      </contour>
    </TTGlyph>
    <TTGlyph name="asterisk" xMin="101" yMin="352" xMax="511" yMax="740">
      <contour>
        <pt x="311" y="590" on="1"/>
        <pt x="393" y="740" on="1"/>
        <pt x="462" y="697" on="1"/>
        <pt x="432" y="663" on="0"/>
        <pt x="392" y="618" on="0"/>
        <pt x="366" y="589" on="0"/>
        <pt x="352" y="573" on="0"/>
        <pt x="347" y="568" on="1"/>
        <pt x="511" y="588" on="1"/>
        <pt x="500" y="503" on="1"/>
        <pt x="458" y="508" on="0"/>
        <pt x="402" y="515" on="0"/>
        <pt x="366" y="519" on="0"/>
        <pt x="347" y="522" on="0"/>
        <pt x="341" y="523" on="1"/>
        <pt x="424" y="394" on="1"/>
        <pt x="345" y="352" on="1"/>
        <pt x="301" y="502" on="1"/>
        <pt x="220" y="352" on="1"/>
        <pt x="151" y="394" on="1"/>
        <pt x="265" y="524" on="1"/>
        <pt x="101" y="503" on="1"/>
        <pt x="112" y="589" on="1"/>
        <pt x="270" y="569" on="1"/>
        <pt x="186" y="697" on="1"/>
        <pt x="265" y="740" on="1"/>
      </contour>
    </TTGlyph>
    <TTGlyph name="at" xMin="65" yMin="-125" xMax="832" yMax="641">
      <contour>
        <pt x="605" y="149" on="1"/>
        <pt x="603" y="143" on="0"/>
        <pt x="602" y="131" on="0"/>
        <pt x="600" y="126" on="1"/>
        <pt x="604" y="128" on="0"/>
        <pt x="613" y="136" on="0"/>
        <pt x="616" y="138" on="1"/>
        <pt x="676" y="174" on="0"/>
        <pt x="735" y="264" on="0"/>
        <pt x="741" y="317" on="1"/>
        <pt x="748" y="378" on="0"/>
        <pt x="721" y="474" on="0"/>
        <pt x="656" y="540" on="0"/>
        <pt x="558" y="575" on="0"/>
        <pt x="495" y="575" on="1"/>
        <pt x="431" y="575" on="0"/>
        <pt x="317" y="534" on="0"/>
        <pt x="228" y="454" on="0"/>
        <pt x="169" y="335" on="0"/>
        <pt x="159" y="257" on="1"/>
        <pt x="150" y="179" on="0"/>
        <pt x="179" y="61" on="0"/>
        <pt x="246" y="-19" on="0"/>
        <pt x="344" y="-59" on="0"/>
        <pt x="403" y="-59" on="1"/>
        <pt x="425" y="-59" on="0"/>
        <pt x="466" y="-57" on="0"/>
        <pt x="510" y="-50" on="0"/>
        <pt x="561" y="-38" on="0"/>
        <pt x="593" y="-28" on="1"/>
        <pt x="608" y="-90" on="1"/>
        <pt x="571" y="-101" on="0"/>
        <pt x="514" y="-115" on="0"/>
        <pt x="465" y="-122" on="0"/>
        <pt x="420" y="-125" on="0"/>
        <pt x="395" y="-125" on="1"/>
        <pt x="318" y="-125" on="0"/>
        <pt x="191" y="-81" on="0"/>
        <pt x="104" y="12" on="0"/>
        <pt x="65" y="156" on="0"/>
        <pt x="77" y="257" on="1"/>
        <pt x="89" y="350" on="0"/>
        <pt x="168" y="494" on="0"/>
        <pt x="285" y="591" on="0"/>
        <pt x="428" y="641" on="0"/>
        <pt x="504" y="641" on="1"/>
        <pt x="580" y="641" on="0"/>
        <pt x="705" y="598" on="0"/>
        <pt x="792" y="515" on="0"/>
        <pt x="832" y="394" on="0"/>
        <pt x="822" y="317" on="1"/>
        <pt x="816" y="265" on="0"/>
        <pt x="769" y="178" on="0"/>
        <pt x="696" y="111" on="0"/>
        <pt x="600" y="66" on="0"/>
        <pt x="545" y="56" on="1"/>
        <pt x="534" y="62" on="0"/>
        <pt x="526" y="81" on="0"/>
        <pt x="523" y="94" on="1"/>
        <pt x="523" y="113" on="1"/>
        <pt x="511" y="93" on="1"/>
        <pt x="478" y="64" on="0"/>
        <pt x="423" y="47" on="0"/>
        <pt x="396" y="47" on="1"/>
        <pt x="333" y="47" on="0"/>
        <pt x="268" y="108" on="0"/>
        <pt x="274" y="158" on="1"/>
        <pt x="278" y="188" on="0"/>
        <pt x="307" y="233" on="0"/>
        <pt x="362" y="264" on="0"/>
        <pt x="445" y="285" on="0"/>
        <pt x="503" y="291" on="1"/>
        <pt x="501" y="284" on="0"/>
        <pt x="493" y="263" on="0"/>
        <pt x="477" y="242" on="0"/>
        <pt x="454" y="225" on="0"/>
        <pt x="439" y="223" on="1"/>
        <pt x="394" y="217" on="0"/>
        <pt x="357" y="184" on="0"/>
        <pt x="354" y="162" on="1"/>
        <pt x="352" y="139" on="0"/>
        <pt x="385" y="109" on="0"/>
        <pt x="416" y="109" on="1"/>
        <pt x="442" y="109" on="0"/>
        <pt x="500" y="133" on="0"/>
        <pt x="527" y="164" on="1"/>
        <pt x="544" y="305" on="1"/>
        <pt x="549" y="351" on="0"/>
        <pt x="511" y="402" on="0"/>
        <pt x="460" y="402" on="1"/>
        <pt x="439" y="402" on="0"/>
        <pt x="390" y="394" on="0"/>
        <pt x="361" y="383" on="1"/>
        <pt x="346" y="439" on="1"/>
        <pt x="387" y="455" on="0"/>
        <pt x="450" y="466" on="0"/>
        <pt x="482" y="466" on="1"/>
        <pt x="559" y="466" on="0"/>
        <pt x="632" y="380" on="0"/>
        <pt x="622" y="300" on="1"/>
        <pt x="610" y="201" on="1"/>
        <pt x="608" y="187" on="0"/>
        <pt x="606" y="161" on="0"/>
      </contour>
    </TTGlyph>
    <TTGlyph name="atilde" xMin="64" yMin="-11" xMax="557" yMax="735">
      <contour>
        <pt x="446" y="436" on="1"/>
        <pt x="424" y="442" on="0"/>
        <pt x="386" y="447" on="0"/>
        <pt x="367" y="447" on="1"/>
        <pt x="294" y="447" on="0"/>
        <pt x="195" y="344" on="0"/>
        <pt x="184" y="251" on="1"/>
        <pt x="179" y="214" on="0"/>
        <pt x="185" y="148" on="0"/>
        <pt x="208" y="100" on="0"/>
        <pt x="251" y="74" on="0"/>
        <pt x="283" y="79" on="1"/>
        <pt x="328" y="85" on="0"/>
        <pt x="360" y="37" on="1"/>
        <pt x="333" y="19" on="0"/>
        <pt x="277" y="-3" on="0"/>
        <pt x="254" y="-5" on="1"/>
        <pt x="209" y="-11" on="0"/>
        <pt x="135" y="26" on="0"/>
        <pt x="86" y="96" on="0"/>
        <pt x="64" y="195" on="0"/>
        <pt x="71" y="251" on="1"/>
        <pt x="78" y="312" on="0"/>
        <pt x="130" y="413" on="0"/>
        <pt x="210" y="487" on="0"/>
        <pt x="315" y="528" on="0"/>
        <pt x="376" y="528" on="1"/>
        <pt x="418" y="528" on="0"/>
        <pt x="501" y="514" on="0"/>
        <pt x="557" y="496" on="1"/>
        <pt x="517" y="181" on="1"/>
        <pt x="510" y="124" on="0"/>
        <pt x="506" y="40" on="0"/>
        <pt x="511" y="5" on="1"/>
        <pt x="432" y="0" on="1"/>
        <pt x="421" y="10" on="0"/>
        <pt x="400" y="65" on="0"/>
        <pt x="405" y="103" on="1"/>
      </contour>
      <contour>
        <pt x="283" y="618" on="1"/>
        <pt x="223" y="624" on="1"/>
        <pt x="231" y="680" on="0"/>
        <pt x="293" y="735" on="0"/>
        <pt x="329" y="735" on="1"/>
        <pt x="351" y="735" on="0"/>
        <pt x="380" y="718" on="0"/>
        <pt x="403" y="697" on="0"/>
        <pt x="425" y="680" on="0"/>
        <pt x="440" y="680" on="1"/>
        <pt x="454" y="680" on="0"/>
        <pt x="472" y="708" on="0"/>
        <pt x="478" y="734" on="1"/>
        <pt x="536" y="728" on="1"/>
        <pt x="531" y="696" on="0"/>
        <pt x="509" y="654" on="0"/>
        <pt x="480" y="628" on="0"/>
        <pt x="449" y="617" on="0"/>
        <pt x="435" y="617" on="1"/>
        <pt x="411" y="617" on="0"/>
        <pt x="380" y="634" on="0"/>
        <pt x="358" y="655" on="0"/>
        <pt x="338" y="672" on="0"/>
        <pt x="325" y="672" on="1"/>
        <pt x="313" y="672" on="0"/>
        <pt x="289" y="648" on="0"/>
      </contour>
    </TTGlyph>
    <TTGlyph name="b" xMin="75" yMin="-11" xMax="569" yMax="758">
      <contour>
        <pt x="272" y="491" on="1"/>
        <pt x="300" y="505" on="0"/>
        <pt x="360" y="521" on="0"/>
        <pt x="383" y="523" on="1"/>
        <pt x="426" y="525" on="0"/>
        <pt x="498" y="490" on="0"/>
        <pt x="547" y="422" on="0"/>
        <pt x="569" y="325" on="0"/>
        <pt x="562" y="266" on="1"/>
        <pt x="554" y="206" on="0"/>
        <pt x="505" y="104" on="0"/>
        <pt x="428" y="30" on="0"/>
        <pt x="328" y="-11" on="0"/>
        <pt x="270" y="-11" on="1"/>
        <pt x="215" y="-11" on="0"/>
        <pt x="120" y="14" on="0"/>
        <pt x="75" y="41" on="1"/>
        <pt x="163" y="758" on="1"/>
        <pt x="268" y="751" on="1"/>
        <pt x="186" y="84" on="1"/>
        <pt x="209" y="76" on="0"/>
        <pt x="258" y="70" on="0"/>
        <pt x="280" y="70" on="1"/>
        <pt x="314" y="70" on="0"/>
        <pt x="371" y="99" on="0"/>
        <pt x="416" y="150" on="0"/>
        <pt x="445" y="222" on="0"/>
        <pt x="450" y="266" on="1"/>
        <pt x="455" y="308" on="0"/>
        <pt x="447" y="375" on="0"/>
        <pt x="420" y="421" on="0"/>
        <pt x="376" y="443" on="0"/>
        <pt x="345" y="440" on="1"/>
        <pt x="320" y="437" on="0"/>
        <pt x="285" y="466" on="0"/>
      </contour>
    </TTGlyph>
    <TTGlyph name="backslash" xMin="127" yMin="-62" xMax="371" yMax="727">
      <contour>
        <pt x="371" y="-62" on="1"/>
        <pt x="273" y="-62" on="1"/>
        <pt x="127" y="727" on="1"/>
        <pt x="225" y="727" on="1"/>
      </contour>
    </TTGlyph>
    <TTGlyph name="bar" xMin="44" yMin="-293" xMax="272" yMax="811">
      <contour>
        <pt x="137" y="-293" on="1"/>
        <pt x="44" y="-293" on="1"/>
        <pt x="179" y="811" on="1"/>
        <pt x="272" y="811" on="1"/>
      </contour>
    </TTGlyph>
    <TTGlyph name="braceleft" xMin="39" yMin="-176" xMax="418" yMax="767">
      <contour>
        <pt x="126" y="191" on="1"/>
        <pt x="128" y="226" on="0"/>
        <pt x="77" y="267" on="0"/>
        <pt x="39" y="274" on="1"/>
        <pt x="47" y="335" on="1"/>
        <pt x="86" y="342" on="0"/>
        <pt x="148" y="383" on="0"/>
        <pt x="156" y="418" on="1"/>
        <pt x="168" y="479" on="0"/>
        <pt x="203" y="581" on="0"/>
        <pt x="255" y="665" on="0"/>
        <pt x="328" y="736" on="0"/>
        <pt x="378" y="767" on="1"/>
        <pt x="418" y="713" on="1"/>
        <pt x="380" y="684" on="0"/>
        <pt x="325" y="625" on="0"/>
        <pt x="286" y="559" on="0"/>
        <pt x="260" y="484" on="0"/>
        <pt x="251" y="439" on="1"/>
        <pt x="243" y="397" on="0"/>
        <pt x="195" y="335" on="0"/>
        <pt x="161" y="314" on="1"/>
        <pt x="135" y="303" on="1"/>
        <pt x="158" y="292" on="1"/>
        <pt x="184" y="272" on="0"/>
        <pt x="216" y="218" on="0"/>
        <pt x="216" y="183" on="1"/>
        <pt x="217" y="170" on="0"/>
        <pt x="218" y="144" on="0"/>
        <pt x="216" y="130" on="1"/>
        <pt x="216" y="89" on="0"/>
        <pt x="225" y="20" on="0"/>
        <pt x="248" y="-40" on="0"/>
        <pt x="287" y="-95" on="0"/>
        <pt x="316" y="-121" on="1"/>
        <pt x="262" y="-176" on="1"/>
        <pt x="218" y="-144" on="0"/>
        <pt x="161" y="-71" on="0"/>
        <pt x="130" y="17" on="0"/>
        <pt x="122" y="124" on="0"/>
      </contour>
    </TTGlyph>
    <TTGlyph name="braceright" xMin="-3" yMin="-176" xMax="377" yMax="767">
      <contour>
        <pt x="262" y="191" on="1"/>
        <pt x="250" y="124" on="0"/>
        <pt x="215" y="17" on="0"/>
        <pt x="163" y="-71" on="0"/>
        <pt x="88" y="-144" on="0"/>
        <pt x="37" y="-176" on="1"/>
        <pt x="-3" y="-121" on="1"/>
        <pt x="32" y="-95" on="0"/>
        <pt x="84" y="-40" on="0"/>
        <pt x="122" y="20" on="0"/>
        <pt x="147" y="89" on="0"/>
        <pt x="156" y="130" on="1"/>
        <pt x="163" y="158" on="0"/>
        <pt x="177" y="205" on="0"/>
        <pt x="198" y="244" on="0"/>
        <pt x="230" y="278" on="0"/>
        <pt x="256" y="293" on="1"/>
        <pt x="282" y="303" on="1"/>
        <pt x="258" y="314" on="1"/>
        <pt x="229" y="335" on="0"/>
        <pt x="196" y="397" on="0"/>
        <pt x="198" y="439" on="1"/>
        <pt x="200" y="484" on="0"/>
        <pt x="193" y="559" on="0"/>
        <pt x="171" y="625" on="0"/>
        <pt x="130" y="684" on="0"/>
        <pt x="98" y="713" on="1"/>
        <pt x="153" y="767" on="1"/>
        <pt x="195" y="736" on="0"/>
        <pt x="249" y="665" on="0"/>
        <pt x="281" y="581" on="0"/>
        <pt x="291" y="479" on="0"/>
        <pt x="288" y="418" on="1"/>
        <pt x="287" y="400" on="0"/>
        <pt x="301" y="373" on="0"/>
        <pt x="325" y="352" on="0"/>
        <pt x="358" y="338" on="0"/>
        <pt x="377" y="335" on="1"/>
        <pt x="369" y="274" on="1"/>
        <pt x="330" y="267" on="0"/>
        <pt x="270" y="226" on="0"/>
      </contour>
    </TTGlyph>
    <TTGlyph name="bracketleft" xMin="55" yMin="-199" xMax="445" yMax="771">
      <contour>
        <pt x="55" y="-199" on="1"/>
        <pt x="174" y="771" on="1"/>
        <pt x="445" y="771" on="1"/>
        <pt x="435" y="690" on="1"/>
        <pt x="264" y="690" on="1"/>
        <pt x="165" y="-118" on="1"/>
        <pt x="336" y="-118" on="1"/>
        <pt x="334" y="-138" on="0"/>
        <pt x="328" y="-179" on="0"/>
        <pt x="326" y="-199" on="1"/>
      </contour>
    </TTGlyph>
    <TTGlyph name="bracketright" xMin="-28" yMin="-199" xMax="360" yMax="771">
      <contour>
        <pt x="360" y="771" on="1"/>
        <pt x="241" y="-199" on="1"/>
        <pt x="-28" y="-199" on="1"/>
        <pt x="-19" y="-118" on="1"/>
        <pt x="152" y="-118" on="1"/>
        <pt x="251" y="690" on="1"/>
        <pt x="80" y="690" on="1"/>
        <pt x="90" y="771" on="1"/>
      </contour>
    </TTGlyph>
    <TTGlyph name="brokenbar" xMin="33" yMin="-293" xMax="262" yMax="811">
      <contour>
        <pt x="127" y="-293" on="1"/>
        <pt x="33" y="-293" on="1"/>
        <pt x="86" y="141" on="1"/>
        <pt x="180" y="141" on="1"/>
      </contour>
      <contour>
        <pt x="210" y="387" on="1"/>
        <pt x="116" y="387" on="1"/>
        <pt x="168" y="811" on="1"/>
        <pt x="262" y="811" on="1"/>
      </contour>
    </TTGlyph>
    <TTGlyph name="bullet" xMin="90" yMin="235" xMax="261" yMax="397">
      <contour>
        <pt x="94" y="315" on="1"/>
        <pt x="99" y="350" on="0"/>
        <pt x="149" y="397" on="0"/>
        <pt x="184" y="397" on="1"/>
        <pt x="219" y="397" on="0"/>
        <pt x="261" y="350" on="0"/>
        <pt x="256" y="315" on="1"/>
        <pt x="252" y="280" on="0"/>
        <pt x="199" y="235" on="0"/>
        <pt x="164" y="235" on="1"/>
        <pt x="129" y="235" on="0"/>
        <pt x="90" y="280" on="0"/>
      </contour>
    </TTGlyph>
    <TTGlyph name="c" xMin="65" yMin="-11" xMax="474" yMax="528">
      <contour>
        <pt x="289" y="-11" on="1"/>
        <pt x="238" y="-11" on="0"/>
        <pt x="152" y="23" on="0"/>
        <pt x="92" y="91" on="0"/>
        <pt x="65" y="192" on="0"/>
        <pt x="73" y="259" on="1"/>
        <pt x="81" y="325" on="0"/>
        <pt x="134" y="425" on="0"/>
        <pt x="211" y="493" on="0"/>
        <pt x="305" y="528" on="0"/>
        <pt x="355" y="528" on="1"/>
        <pt x="382" y="528" on="0"/>
        <pt x="445" y="518" on="0"/>
        <pt x="474" y="507" on="1"/>
        <pt x="439" y="433" on="1"/>
        <pt x="413" y="441" on="0"/>
        <pt x="365" y="447" on="0"/>
        <pt x="345" y="447" on="1"/>
        <pt x="317" y="447" on="0"/>
        <pt x="265" y="423" on="0"/>
        <pt x="222" y="376" on="0"/>
        <pt x="192" y="306" on="0"/>
        <pt x="186" y="259" on="1"/>
        <pt x="175" y="164" on="0"/>
        <pt x="242" y="70" on="0"/>
        <pt x="299" y="70" on="1"/>
        <pt x="320" y="70" on="0"/>
        <pt x="374" y="83" on="0"/>
        <pt x="410" y="98" on="1"/>
        <pt x="428" y="24" on="1"/>
        <pt x="385" y="4" on="0"/>
        <pt x="313" y="-11" on="0"/>
      </contour>
    </TTGlyph>
    <TTGlyph name="ccedilla" xMin="66" yMin="-208" xMax="474" yMax="528">
      <contour>
        <pt x="289" y="-11" on="1"/>
        <pt x="286" y="-11" on="1"/>
        <pt x="272" y="-48" on="1"/>
        <pt x="286" y="-50" on="0"/>
        <pt x="314" y="-62" on="0"/>
        <pt x="334" y="-81" on="0"/>
        <pt x="345" y="-107" on="0"/>
        <pt x="343" y="-123" on="1"/>
        <pt x="340" y="-146" on="0"/>
        <pt x="315" y="-178" on="0"/>
        <pt x="279" y="-198" on="0"/>
        <pt x="236" y="-208" on="0"/>
        <pt x="215" y="-208" on="1"/>
        <pt x="198" y="-208" on="0"/>
        <pt x="160" y="-200" on="0"/>
        <pt x="137" y="-189" on="1"/>
        <pt x="159" y="-142" on="1"/>
        <pt x="177" y="-150" on="0"/>
        <pt x="206" y="-155" on="0"/>
        <pt x="221" y="-155" on="1"/>
        <pt x="238" y="-155" on="0"/>
        <pt x="272" y="-142" on="0"/>
        <pt x="274" y="-126" on="1"/>
        <pt x="276" y="-108" on="0"/>
        <pt x="240" y="-90" on="0"/>
        <pt x="205" y="-86" on="1"/>
        <pt x="236" y="-6" on="1"/>
        <pt x="195" y="2" on="0"/>
        <pt x="129" y="43" on="0"/>
        <pt x="84" y="109" on="0"/>
        <pt x="66" y="201" on="0"/>
        <pt x="73" y="259" on="1"/>
        <pt x="81" y="325" on="0"/>
        <pt x="134" y="425" on="0"/>
        <pt x="211" y="493" on="0"/>
        <pt x="305" y="528" on="0"/>
        <pt x="355" y="528" on="1"/>
        <pt x="382" y="528" on="0"/>
        <pt x="445" y="518" on="0"/>
        <pt x="474" y="507" on="1"/>
        <pt x="438" y="433" on="1"/>
        <pt x="412" y="441" on="0"/>
        <pt x="365" y="447" on="0"/>
        <pt x="345" y="447" on="1"/>
        <pt x="317" y="447" on="0"/>
        <pt x="265" y="423" on="0"/>
        <pt x="222" y="376" on="0"/>
        <pt x="192" y="306" on="0"/>
        <pt x="186" y="259" on="1"/>
        <pt x="175" y="164" on="0"/>
        <pt x="242" y="70" on="0"/>
        <pt x="299" y="70" on="1"/>
        <pt x="320" y="70" on="0"/>
        <pt x="374" y="83" on="0"/>
        <pt x="410" y="98" on="1"/>
        <pt x="428" y="24" on="1"/>
        <pt x="385" y="4" on="0"/>
        <pt x="314" y="-11" on="0"/>
      </contour>
    </TTGlyph>
    <TTGlyph name="cedilla" xMin="130" yMin="-208" xMax="338" yMax="2">
      <contour>
        <pt x="230" y="-2" on="1"/>
        <pt x="284" y="2" on="1"/>
        <pt x="265" y="-48" on="1"/>
        <pt x="279" y="-50" on="0"/>
        <pt x="307" y="-62" on="0"/>
        <pt x="327" y="-81" on="0"/>
        <pt x="338" y="-107" on="0"/>
        <pt x="336" y="-123" on="1"/>
        <pt x="333" y="-146" on="0"/>
        <pt x="308" y="-178" on="0"/>
        <pt x="272" y="-198" on="0"/>
        <pt x="229" y="-208" on="0"/>
        <pt x="208" y="-208" on="1"/>
        <pt x="191" y="-208" on="0"/>
        <pt x="153" y="-200" on="0"/>
        <pt x="130" y="-189" on="1"/>
        <pt x="152" y="-142" on="1"/>
        <pt x="170" y="-150" on="0"/>
        <pt x="199" y="-155" on="0"/>
        <pt x="214" y="-155" on="1"/>
        <pt x="231" y="-155" on="0"/>
        <pt x="265" y="-142" on="0"/>
        <pt x="267" y="-126" on="1"/>
        <pt x="269" y="-108" on="0"/>
        <pt x="233" y="-90" on="0"/>
        <pt x="198" y="-86" on="1"/>
      </contour>
    </TTGlyph>
    <TTGlyph name="cent" xMin="74" yMin="-14" xMax="481" yMax="716">
      <contour>
        <pt x="436" y="119" on="1"/>
        <pt x="405" y="105" on="0"/>
        <pt x="351" y="90" on="0"/>
        <pt x="328" y="86" on="1"/>
        <pt x="316" y="-14" on="1"/>
        <pt x="236" y="-14" on="1"/>
        <pt x="248" y="88" on="1"/>
        <pt x="206" y="95" on="0"/>
        <pt x="138" y="136" on="0"/>
        <pt x="93" y="203" on="0"/>
        <pt x="74" y="295" on="0"/>
        <pt x="81" y="354" on="1"/>
        <pt x="88" y="411" on="0"/>
        <pt x="131" y="503" on="0"/>
        <pt x="193" y="569" on="0"/>
        <pt x="271" y="610" on="0"/>
        <pt x="313" y="618" on="1"/>
        <pt x="325" y="716" on="1"/>
        <pt x="405" y="716" on="1"/>
        <pt x="394" y="622" on="1"/>
        <pt x="416" y="620" on="0"/>
        <pt x="461" y="610" on="0"/>
        <pt x="481" y="602" on="1"/>
        <pt x="445" y="528" on="1"/>
        <pt x="420" y="536" on="0"/>
        <pt x="373" y="542" on="0"/>
        <pt x="353" y="542" on="1"/>
        <pt x="325" y="542" on="0"/>
        <pt x="272" y="519" on="0"/>
        <pt x="230" y="472" on="0"/>
        <pt x="200" y="401" on="0"/>
        <pt x="194" y="354" on="1"/>
        <pt x="188" y="307" on="0"/>
        <pt x="200" y="236" on="0"/>
        <pt x="232" y="189" on="0"/>
        <pt x="278" y="165" on="0"/>
        <pt x="307" y="165" on="1"/>
        <pt x="328" y="165" on="0"/>
        <pt x="382" y="178" on="0"/>
        <pt x="417" y="193" on="1"/>
      </contour>
    </TTGlyph>
    <TTGlyph name="circumflex" xMin="178" yMin="588" xMax="466" yMax="743">
      <contour>
        <pt x="304" y="743" on="1"/>
        <pt x="375" y="743" on="1"/>
        <pt x="466" y="599" on="1"/>
        <pt x="405" y="589" on="1"/>
        <pt x="330" y="669" on="1"/>
        <pt x="235" y="588" on="1"/>
        <pt x="178" y="599" on="1"/>
      </contour>
    </TTGlyph>
    <TTGlyph name="colon" xMin="66" yMin="-15" xMax="252" yMax="493">
      <contour>
        <pt x="116" y="425" on="1"/>
        <pt x="119" y="454" on="0"/>
        <pt x="161" y="493" on="0"/>
        <pt x="190" y="493" on="1"/>
        <pt x="219" y="493" on="0"/>
        <pt x="252" y="454" on="0"/>
        <pt x="249" y="425" on="1"/>
        <pt x="245" y="397" on="0"/>
        <pt x="203" y="360" on="0"/>
        <pt x="174" y="360" on="1"/>
        <pt x="145" y="360" on="0"/>
        <pt x="112" y="397" on="0"/>
      </contour>
      <contour>
        <pt x="70" y="51" on="1"/>
        <pt x="73" y="80" on="0"/>
        <pt x="115" y="118" on="0"/>
        <pt x="144" y="118" on="1"/>
        <pt x="173" y="118" on="0"/>
        <pt x="206" y="80" on="0"/>
        <pt x="203" y="51" on="1"/>
        <pt x="199" y="22" on="0"/>
        <pt x="157" y="-15" on="0"/>
        <pt x="128" y="-15" on="1"/>
        <pt x="99" y="-15" on="0"/>
        <pt x="66" y="22" on="0"/>
      </contour>
    </TTGlyph>
    <TTGlyph name="comma" xMin="50" yMin="-113" xMax="173" yMax="98">
      <contour>
        <pt x="50" y="-107" on="1"/>
        <pt x="76" y="98" on="1"/>
        <pt x="173" y="98" on="1"/>
        <pt x="163" y="20" on="1"/>
        <pt x="160" y="-4" on="0"/>
        <pt x="145" y="-54" on="0"/>
        <pt x="118" y="-93" on="0"/>
        <pt x="78" y="-113" on="0"/>
      </contour>
    </TTGlyph>
    <TTGlyph name="copyright" xMin="84" yMin="28" xMax="754" yMax="683">
      <contour>
        <pt x="418" y="176" on="1"/>
        <pt x="384" y="176" on="0"/>
        <pt x="327" y="200" on="0"/>
        <pt x="288" y="246" on="0"/>
        <pt x="270" y="313" on="0"/>
        <pt x="275" y="357" on="1"/>
        <pt x="281" y="400" on="0"/>
        <pt x="315" y="468" on="0"/>
        <pt x="366" y="513" on="0"/>
        <pt x="429" y="537" on="0"/>
        <pt x="462" y="537" on="1"/>
        <pt x="502" y="537" on="0"/>
        <pt x="544" y="523" on="1"/>
        <pt x="519" y="470" on="1"/>
        <pt x="487" y="481" on="0"/>
        <pt x="456" y="481" on="1"/>
        <pt x="418" y="481" on="0"/>
        <pt x="356" y="417" on="0"/>
        <pt x="348" y="357" on="1"/>
        <pt x="340" y="296" on="0"/>
        <pt x="387" y="231" on="0"/>
        <pt x="425" y="231" on="1"/>
        <pt x="439" y="231" on="0"/>
        <pt x="476" y="239" on="0"/>
        <pt x="501" y="250" on="1"/>
        <pt x="513" y="199" on="1"/>
        <pt x="484" y="185" on="0"/>
        <pt x="434" y="176" on="0"/>
      </contour>
      <contour>
        <pt x="453" y="620" on="1"/>
        <pt x="398" y="620" on="0"/>
        <pt x="301" y="581" on="0"/>
        <pt x="226" y="511" on="0"/>
        <pt x="177" y="414" on="0"/>
        <pt x="170" y="354" on="1"/>
        <pt x="163" y="295" on="0"/>
        <pt x="188" y="198" on="0"/>
        <pt x="246" y="130" on="0"/>
        <pt x="333" y="92" on="0"/>
        <pt x="388" y="92" on="1"/>
        <pt x="442" y="91" on="0"/>
        <pt x="537" y="129" on="0"/>
        <pt x="611" y="198" on="0"/>
        <pt x="660" y="297" on="0"/>
        <pt x="667" y="357" on="1"/>
        <pt x="674" y="415" on="0"/>
        <pt x="650" y="512" on="0"/>
        <pt x="593" y="582" on="0"/>
        <pt x="507" y="620" on="0"/>
      </contour>
      <contour>
        <pt x="460" y="683" on="1"/>
        <pt x="532" y="683" on="0"/>
        <pt x="646" y="632" on="0"/>
        <pt x="721" y="544" on="0"/>
        <pt x="754" y="425" on="0"/>
        <pt x="745" y="357" on="1"/>
        <pt x="737" y="289" on="0"/>
        <pt x="675" y="169" on="0"/>
        <pt x="578" y="80" on="0"/>
        <pt x="452" y="28" on="0"/>
        <pt x="380" y="28" on="1"/>
        <pt x="307" y="28" on="0"/>
        <pt x="192" y="79" on="0"/>
        <pt x="117" y="167" on="0"/>
        <pt x="84" y="288" on="0"/>
        <pt x="92" y="357" on="1"/>
        <pt x="100" y="424" on="0"/>
        <pt x="163" y="542" on="0"/>
        <pt x="260" y="631" on="0"/>
        <pt x="387" y="683" on="0"/>
      </contour>
    </TTGlyph>
    <TTGlyph name="currency" xMin="83" yMin="105" xMax="592" yMax="576">
      <contour>
        <pt x="352" y="481" on="1"/>
        <pt x="326" y="481" on="0"/>
        <pt x="282" y="459" on="0"/>
        <pt x="247" y="421" on="0"/>
        <pt x="224" y="369" on="0"/>
        <pt x="220" y="340" on="1"/>
        <pt x="216" y="306" on="0"/>
        <pt x="230" y="254" on="0"/>
        <pt x="259" y="219" on="0"/>
        <pt x="296" y="201" on="0"/>
        <pt x="316" y="201" on="1"/>
        <pt x="337" y="201" on="0"/>
        <pt x="381" y="219" on="0"/>
        <pt x="418" y="255" on="0"/>
        <pt x="444" y="308" on="0"/>
        <pt x="449" y="343" on="1"/>
        <pt x="452" y="369" on="0"/>
        <pt x="442" y="418" on="0"/>
        <pt x="418" y="457" on="0"/>
        <pt x="379" y="481" on="0"/>
      </contour>
      <contour>
        <pt x="360" y="544" on="1"/>
        <pt x="395" y="544" on="0"/>
        <pt x="452" y="522" on="0"/>
        <pt x="470" y="505" on="1"/>
        <pt x="555" y="576" on="1"/>
        <pt x="592" y="531" on="1"/>
        <pt x="504" y="460" on="1"/>
        <pt x="516" y="440" on="0"/>
        <pt x="529" y="380" on="0"/>
        <pt x="524" y="344" on="1"/>
        <pt x="519" y="304" on="0"/>
        <pt x="491" y="242" on="0"/>
        <pt x="475" y="223" on="1"/>
        <pt x="543" y="149" on="1"/>
        <pt x="495" y="106" on="1"/>
        <pt x="429" y="178" on="1"/>
        <pt x="406" y="158" on="0"/>
        <pt x="341" y="137" on="0"/>
        <pt x="309" y="137" on="1"/>
        <pt x="277" y="137" on="0"/>
        <pt x="219" y="158" on="0"/>
        <pt x="202" y="176" on="1"/>
        <pt x="121" y="105" on="1"/>
        <pt x="83" y="150" on="1"/>
        <pt x="166" y="221" on="1"/>
        <pt x="154" y="240" on="0"/>
        <pt x="139" y="302" on="0"/>
        <pt x="144" y="340" on="1"/>
        <pt x="149" y="378" on="0"/>
        <pt x="180" y="440" on="0"/>
        <pt x="197" y="460" on="1"/>
        <pt x="130" y="531" on="1"/>
        <pt x="178" y="576" on="1"/>
        <pt x="244" y="505" on="1"/>
        <pt x="266" y="522" on="0"/>
        <pt x="327" y="544" on="0"/>
      </contour>
    </TTGlyph>
    <TTGlyph name="d" xMin="67" yMin="-11" xMax="608" yMax="758">
      <contour>
        <pt x="74" y="261" on="1"/>
        <pt x="81" y="319" on="0"/>
        <pt x="131" y="416" on="0"/>
        <pt x="203" y="485" on="0"/>
        <pt x="291" y="524" on="0"/>
        <pt x="335" y="524" on="1"/>
        <pt x="358" y="524" on="0"/>
        <pt x="407" y="517" on="0"/>
        <pt x="437" y="507" on="1"/>
        <pt x="420" y="479" on="0"/>
        <pt x="373" y="444" on="0"/>
        <pt x="341" y="444" on="1"/>
        <pt x="314" y="444" on="0"/>
        <pt x="263" y="422" on="0"/>
        <pt x="222" y="376" on="0"/>
        <pt x="194" y="307" on="0"/>
        <pt x="188" y="261" on="1"/>
        <pt x="183" y="220" on="0"/>
        <pt x="191" y="150" on="0"/>
        <pt x="216" y="99" on="0"/>
        <pt x="260" y="70" on="0"/>
        <pt x="291" y="70" on="1"/>
        <pt x="356" y="70" on="0"/>
        <pt x="427" y="142" on="1"/>
        <pt x="503" y="758" on="1"/>
        <pt x="608" y="751" on="1"/>
        <pt x="538" y="181" on="1"/>
        <pt x="531" y="124" on="0"/>
        <pt x="527" y="40" on="0"/>
        <pt x="532" y="5" on="1"/>
        <pt x="452" y="0" on="1"/>
        <pt x="441" y="10" on="0"/>
        <pt x="428" y="33" on="0"/>
        <pt x="423" y="52" on="1"/>
        <pt x="423" y="70" on="1"/>
        <pt x="410" y="52" on="1"/>
        <pt x="372" y="17" on="0"/>
        <pt x="294" y="-11" on="0"/>
        <pt x="263" y="-11" on="1"/>
        <pt x="210" y="-11" on="0"/>
        <pt x="132" y="31" on="0"/>
        <pt x="84" y="104" on="0"/>
        <pt x="67" y="203" on="0"/>
      </contour>
    </TTGlyph>
    <TTGlyph name="dagger" xMin="83" yMin="-30" xMax="611" yMax="697">
      <contour>
        <pt x="170" y="402" on="1"/>
        <pt x="83" y="402" on="1"/>
        <pt x="93" y="481" on="1"/>
        <pt x="273" y="481" on="1"/>
        <pt x="257" y="449" on="0"/>
        <pt x="210" y="402" on="0"/>
      </contour>
      <contour>
        <pt x="601" y="402" on="1"/>
        <pt x="547" y="402" on="1"/>
        <pt x="517" y="402" on="0"/>
        <pt x="477" y="411" on="0"/>
        <pt x="451" y="430" on="0"/>
        <pt x="436" y="460" on="0"/>
        <pt x="431" y="481" on="1"/>
        <pt x="611" y="481" on="1"/>
      </contour>
      <contour>
        <pt x="422" y="697" on="1"/>
        <pt x="333" y="-30" on="1"/>
        <pt x="245" y="-30" on="1"/>
        <pt x="334" y="697" on="1"/>
      </contour>
    </TTGlyph>
    <TTGlyph name="daggerdbl" xMin="71" yMin="-30" xMax="630" yMax="697">
      <contour>
        <pt x="189" y="422" on="1"/>
        <pt x="102" y="422" on="1"/>
        <pt x="112" y="501" on="1"/>
        <pt x="292" y="501" on="1"/>
        <pt x="277" y="469" on="0"/>
        <pt x="229" y="422" on="0"/>
      </contour>
      <contour>
        <pt x="620" y="422" on="1"/>
        <pt x="566" y="422" on="1"/>
        <pt x="536" y="422" on="0"/>
        <pt x="496" y="431" on="0"/>
        <pt x="470" y="450" on="0"/>
        <pt x="455" y="480" on="0"/>
        <pt x="450" y="501" on="1"/>
        <pt x="630" y="501" on="1"/>
      </contour>
      <contour>
        <pt x="158" y="166" on="1"/>
        <pt x="71" y="166" on="1"/>
        <pt x="81" y="245" on="1"/>
        <pt x="261" y="245" on="1"/>
        <pt x="245" y="213" on="0"/>
        <pt x="198" y="166" on="0"/>
      </contour>
      <contour>
        <pt x="589" y="166" on="1"/>
        <pt x="502" y="166" on="1"/>
        <pt x="462" y="166" on="0"/>
        <pt x="426" y="213" on="0"/>
        <pt x="419" y="245" on="1"/>
        <pt x="599" y="245" on="1"/>
      </contour>
      <contour>
        <pt x="439" y="697" on="1"/>
        <pt x="350" y="-30" on="1"/>
        <pt x="262" y="-30" on="1"/>
        <pt x="351" y="697" on="1"/>
      </contour>
    </TTGlyph>
    <TTGlyph name="degree" xMin="108" yMin="480" xMax="414" yMax="766">
      <contour>
        <pt x="112" y="623" on="1"/>
        <pt x="116" y="652" on="0"/>
        <pt x="146" y="704" on="0"/>
        <pt x="191" y="743" on="0"/>
        <pt x="248" y="766" on="0"/>
        <pt x="279" y="766" on="1"/>
        <pt x="306" y="766" on="0"/>
        <pt x="357" y="747" on="0"/>
        <pt x="394" y="710" on="0"/>
        <pt x="414" y="657" on="0"/>
        <pt x="410" y="623" on="1"/>
        <pt x="406" y="590" on="0"/>
        <pt x="373" y="537" on="0"/>
        <pt x="326" y="500" on="0"/>
        <pt x="270" y="480" on="0"/>
        <pt x="243" y="480" on="1"/>
        <pt x="213" y="480" on="0"/>
        <pt x="162" y="501" on="0"/>
        <pt x="126" y="539" on="0"/>
        <pt x="108" y="591" on="0"/>
      </contour>
      <contour>
        <pt x="272" y="710" on="1"/>
        <pt x="253" y="710" on="0"/>
        <pt x="221" y="695" on="0"/>
        <pt x="197" y="671" on="0"/>
        <pt x="183" y="639" on="0"/>
        <pt x="181" y="623" on="1"/>
        <pt x="176" y="588" on="0"/>
        <pt x="212" y="537" on="0"/>
        <pt x="250" y="537" on="1"/>
        <pt x="270" y="537" on="0"/>
        <pt x="302" y="553" on="0"/>
        <pt x="326" y="577" on="0"/>
        <pt x="340" y="608" on="0"/>
        <pt x="342" y="623" on="1"/>
        <pt x="347" y="664" on="0"/>
        <pt x="304" y="710" on="0"/>
      </contour>
    </TTGlyph>
    <TTGlyph name="dieresis" xMin="137" yMin="615" xMax="449" yMax="725">
      <contour>
        <pt x="334" y="670" on="1"/>
        <pt x="337" y="693" on="0"/>
        <pt x="374" y="725" on="0"/>
        <pt x="397" y="725" on="1"/>
        <pt x="420" y="725" on="0"/>
        <pt x="449" y="693" on="0"/>
        <pt x="446" y="670" on="1"/>
        <pt x="443" y="647" on="0"/>
        <pt x="406" y="615" on="0"/>
        <pt x="383" y="615" on="1"/>
        <pt x="360" y="615" on="0"/>
        <pt x="331" y="647" on="0"/>
      </contour>
      <contour>
        <pt x="140" y="670" on="1"/>
        <pt x="143" y="693" on="0"/>
        <pt x="179" y="725" on="0"/>
        <pt x="202" y="725" on="1"/>
        <pt x="225" y="725" on="0"/>
        <pt x="254" y="693" on="0"/>
        <pt x="251" y="670" on="1"/>
        <pt x="248" y="647" on="0"/>
        <pt x="211" y="615" on="0"/>
        <pt x="188" y="615" on="1"/>
        <pt x="165" y="615" on="0"/>
        <pt x="137" y="647" on="0"/>
      </contour>
    </TTGlyph>
    <TTGlyph name="divide" xMin="98" yMin="59" xMax="575" yMax="549">
      <contour>
        <pt x="259" y="112" on="1"/>
        <pt x="262" y="136" on="0"/>
        <pt x="296" y="167" on="0"/>
        <pt x="319" y="167" on="1"/>
        <pt x="343" y="167" on="0"/>
        <pt x="370" y="136" on="0"/>
        <pt x="367" y="112" on="1"/>
        <pt x="364" y="89" on="0"/>
        <pt x="330" y="59" on="0"/>
        <pt x="306" y="59" on="1"/>
        <pt x="283" y="59" on="0"/>
        <pt x="256" y="89" on="0"/>
      </contour>
      <contour>
        <pt x="306" y="494" on="1"/>
        <pt x="309" y="518" on="0"/>
        <pt x="343" y="549" on="0"/>
        <pt x="366" y="549" on="1"/>
        <pt x="390" y="549" on="0"/>
        <pt x="417" y="518" on="0"/>
        <pt x="414" y="494" on="1"/>
        <pt x="411" y="471" on="0"/>
        <pt x="377" y="441" on="0"/>
        <pt x="353" y="441" on="1"/>
        <pt x="330" y="441" on="0"/>
        <pt x="303" y="471" on="0"/>
      </contour>
      <contour>
        <pt x="98" y="268" on="1"/>
        <pt x="107" y="342" on="1"/>
        <pt x="575" y="342" on="1"/>
        <pt x="566" y="268" on="1"/>
      </contour>
    </TTGlyph>
    <TTGlyph name="dollar" xMin="43" yMin="-107" xMax="515" yMax="810">
      <contour>
        <pt x="338" y="630" on="1"/>
        <pt x="289" y="630" on="0"/>
        <pt x="227" y="578" on="0"/>
        <pt x="222" y="542" on="1"/>
        <pt x="217" y="505" on="0"/>
        <pt x="260" y="454" on="0"/>
        <pt x="327" y="409" on="0"/>
        <pt x="406" y="366" on="0"/>
        <pt x="472" y="309" on="0"/>
        <pt x="511" y="232" on="0"/>
        <pt x="504" y="177" on="1"/>
        <pt x="500" y="144" on="0"/>
        <pt x="469" y="84" on="0"/>
        <pt x="417" y="35" on="0"/>
        <pt x="346" y="0" on="0"/>
        <pt x="303" y="-7" on="1"/>
        <pt x="290" y="-107" on="1"/>
        <pt x="208" y="-107" on="1"/>
        <pt x="220" y="-11" on="1"/>
        <pt x="180" y="-8" on="0"/>
        <pt x="89" y="14" on="0"/>
        <pt x="43" y="37" on="1"/>
        <pt x="82" y="111" on="1"/>
        <pt x="128" y="88" on="0"/>
        <pt x="211" y="70" on="0"/>
        <pt x="248" y="70" on="1"/>
        <pt x="278" y="70" on="0"/>
        <pt x="330" y="88" on="0"/>
        <pt x="369" y="118" on="0"/>
        <pt x="393" y="158" on="0"/>
        <pt x="396" y="179" on="1"/>
        <pt x="401" y="219" on="0"/>
        <pt x="360" y="273" on="0"/>
        <pt x="293" y="317" on="0"/>
        <pt x="214" y="359" on="0"/>
        <pt x="149" y="413" on="0"/>
        <pt x="110" y="486" on="0"/>
        <pt x="117" y="540" on="1"/>
        <pt x="121" y="574" on="0"/>
        <pt x="153" y="633" on="0"/>
        <pt x="204" y="678" on="0"/>
        <pt x="271" y="706" on="0"/>
        <pt x="309" y="710" on="1"/>
        <pt x="321" y="810" on="1"/>
        <pt x="403" y="810" on="1"/>
        <pt x="391" y="709" on="1"/>
        <pt x="419" y="706" on="0"/>
        <pt x="477" y="692" on="0"/>
        <pt x="515" y="681" on="1"/>
        <pt x="475" y="608" on="1"/>
        <pt x="433" y="621" on="0"/>
        <pt x="368" y="630" on="0"/>
      </contour>
    </TTGlyph>
    <TTGlyph name="e" xMin="66" yMin="-11" xMax="526" yMax="528">
      <contour>
        <pt x="304" y="317" on="1"/>
        <pt x="420" y="317" on="1"/>
        <pt x="427" y="344" on="0"/>
        <pt x="420" y="392" on="0"/>
        <pt x="398" y="428" on="0"/>
        <pt x="361" y="449" on="0"/>
        <pt x="337" y="449" on="1"/>
        <pt x="308" y="449" on="0"/>
        <pt x="256" y="425" on="0"/>
        <pt x="214" y="379" on="0"/>
        <pt x="185" y="310" on="0"/>
        <pt x="179" y="265" on="1"/>
        <pt x="174" y="221" on="0"/>
        <pt x="188" y="149" on="0"/>
        <pt x="223" y="98" on="0"/>
        <pt x="276" y="70" on="0"/>
        <pt x="309" y="70" on="1"/>
        <pt x="344" y="70" on="0"/>
        <pt x="408" y="85" on="0"/>
        <pt x="455" y="106" on="1"/>
        <pt x="474" y="33" on="1"/>
        <pt x="420" y="7" on="0"/>
        <pt x="326" y="-11" on="0"/>
        <pt x="287" y="-11" on="1"/>
        <pt x="228" y="-11" on="0"/>
        <pt x="141" y="33" on="0"/>
        <pt x="87" y="108" on="0"/>
        <pt x="66" y="208" on="0"/>
        <pt x="73" y="264" on="1"/>
        <pt x="80" y="325" on="0"/>
        <pt x="128" y="423" on="0"/>
        <pt x="202" y="491" on="0"/>
        <pt x="299" y="528" on="0"/>
        <pt x="355" y="528" on="1"/>
        <pt x="407" y="528" on="0"/>
        <pt x="485" y="482" on="0"/>
        <pt x="526" y="405" on="0"/>
        <pt x="526" y="303" on="0"/>
        <pt x="501" y="246" on="1"/>
        <pt x="213" y="246" on="1"/>
        <pt x="227" y="276" on="0"/>
        <pt x="271" y="317" on="0"/>
      </contour>
    </TTGlyph>
    <TTGlyph name="eacute" xMin="66" yMin="-11" xMax="526" yMax="740">
      <contour>
        <pt x="518" y="740" on="1"/>
        <pt x="420" y="635" on="1"/>
        <pt x="394" y="607" on="0"/>
        <pt x="328" y="595" on="0"/>
        <pt x="304" y="602" on="1"/>
        <pt x="409" y="740" on="1"/>
      </contour>
      <contour>
        <pt x="305" y="317" on="1"/>
        <pt x="421" y="317" on="1"/>
        <pt x="428" y="344" on="0"/>
        <pt x="421" y="392" on="0"/>
        <pt x="398" y="428" on="0"/>
        <pt x="361" y="449" on="0"/>
        <pt x="337" y="449" on="1"/>
        <pt x="309" y="449" on="0"/>
        <pt x="257" y="425" on="0"/>
        <pt x="214" y="379" on="0"/>
        <pt x="185" y="310" on="0"/>
        <pt x="179" y="265" on="1"/>
        <pt x="174" y="221" on="0"/>
        <pt x="188" y="149" on="0"/>
        <pt x="223" y="98" on="0"/>
        <pt x="276" y="70" on="0"/>
        <pt x="309" y="70" on="1"/>
        <pt x="344" y="70" on="0"/>
        <pt x="409" y="85" on="0"/>
        <pt x="455" y="106" on="1"/>
        <pt x="474" y="33" on="1"/>
        <pt x="420" y="7" on="0"/>
        <pt x="327" y="-11" on="0"/>
        <pt x="288" y="-11" on="1"/>
        <pt x="229" y="-11" on="0"/>
        <pt x="141" y="33" on="0"/>
        <pt x="87" y="108" on="0"/>
        <pt x="66" y="208" on="0"/>
        <pt x="73" y="264" on="1"/>
        <pt x="80" y="325" on="0"/>
        <pt x="129" y="423" on="0"/>
        <pt x="203" y="491" on="0"/>
        <pt x="299" y="528" on="0"/>
        <pt x="355" y="528" on="1"/>
        <pt x="407" y="528" on="0"/>
        <pt x="485" y="482" on="0"/>
        <pt x="526" y="405" on="0"/>
        <pt x="526" y="303" on="0"/>
        <pt x="501" y="246" on="1"/>
        <pt x="214" y="246" on="1"/>
        <pt x="228" y="276" on="0"/>
        <pt x="272" y="317" on="0"/>
      </contour>
    </TTGlyph>
    <TTGlyph name="ecircumflex" xMin="66" yMin="-11" xMax="526" yMax="743">
      <contour>
        <pt x="339" y="743" on="1"/>
        <pt x="410" y="743" on="1"/>
        <pt x="502" y="599" on="1"/>
        <pt x="440" y="589" on="1"/>
        <pt x="365" y="669" on="1"/>
        <pt x="270" y="588" on="1"/>
        <pt x="213" y="599" on="1"/>
      </contour>
      <contour>
        <pt x="305" y="317" on="1"/>
        <pt x="421" y="317" on="1"/>
        <pt x="427" y="344" on="0"/>
        <pt x="421" y="392" on="0"/>
        <pt x="398" y="428" on="0"/>
        <pt x="361" y="449" on="0"/>
        <pt x="337" y="449" on="1"/>
        <pt x="308" y="449" on="0"/>
        <pt x="256" y="425" on="0"/>
        <pt x="214" y="379" on="0"/>
        <pt x="185" y="310" on="0"/>
        <pt x="179" y="265" on="1"/>
        <pt x="174" y="221" on="0"/>
        <pt x="188" y="149" on="0"/>
        <pt x="223" y="98" on="0"/>
        <pt x="276" y="70" on="0"/>
        <pt x="309" y="70" on="1"/>
        <pt x="344" y="70" on="0"/>
        <pt x="409" y="85" on="0"/>
        <pt x="455" y="106" on="1"/>
        <pt x="474" y="33" on="1"/>
        <pt x="420" y="7" on="0"/>
        <pt x="326" y="-11" on="0"/>
        <pt x="287" y="-11" on="1"/>
        <pt x="228" y="-11" on="0"/>
        <pt x="141" y="33" on="0"/>
        <pt x="87" y="108" on="0"/>
        <pt x="66" y="208" on="0"/>
        <pt x="73" y="264" on="1"/>
        <pt x="80" y="325" on="0"/>
        <pt x="129" y="423" on="0"/>
        <pt x="203" y="491" on="0"/>
        <pt x="299" y="528" on="0"/>
        <pt x="355" y="528" on="1"/>
        <pt x="407" y="528" on="0"/>
        <pt x="485" y="482" on="0"/>
        <pt x="526" y="405" on="0"/>
        <pt x="526" y="303" on="0"/>
        <pt x="501" y="246" on="1"/>
        <pt x="214" y="246" on="1"/>
        <pt x="228" y="276" on="0"/>
        <pt x="272" y="317" on="0"/>
      </contour>
    </TTGlyph>
    <TTGlyph name="edieresis" xMin="67" yMin="-11" xMax="526" yMax="725">
      <contour>
        <pt x="401" y="670" on="1"/>
        <pt x="404" y="693" on="0"/>
        <pt x="441" y="725" on="0"/>
        <pt x="464" y="725" on="1"/>
        <pt x="487" y="725" on="0"/>
        <pt x="515" y="693" on="0"/>
        <pt x="512" y="670" on="1"/>
        <pt x="509" y="647" on="0"/>
        <pt x="473" y="615" on="0"/>
        <pt x="450" y="615" on="1"/>
        <pt x="427" y="615" on="0"/>
        <pt x="398" y="647" on="0"/>
      </contour>
      <contour>
        <pt x="207" y="670" on="1"/>
        <pt x="210" y="693" on="0"/>
        <pt x="246" y="725" on="0"/>
        <pt x="269" y="725" on="1"/>
        <pt x="292" y="725" on="0"/>
        <pt x="321" y="693" on="0"/>
        <pt x="318" y="670" on="1"/>
        <pt x="315" y="647" on="0"/>
        <pt x="278" y="615" on="0"/>
        <pt x="255" y="615" on="1"/>
        <pt x="232" y="615" on="0"/>
        <pt x="204" y="647" on="0"/>
      </contour>
      <contour>
        <pt x="305" y="317" on="1"/>
        <pt x="421" y="317" on="1"/>
        <pt x="428" y="344" on="0"/>
        <pt x="421" y="392" on="0"/>
        <pt x="398" y="428" on="0"/>
        <pt x="361" y="449" on="0"/>
        <pt x="337" y="449" on="1"/>
        <pt x="309" y="449" on="0"/>
        <pt x="257" y="425" on="0"/>
        <pt x="215" y="379" on="0"/>
        <pt x="186" y="310" on="0"/>
        <pt x="180" y="265" on="1"/>
        <pt x="175" y="221" on="0"/>
        <pt x="189" y="149" on="0"/>
        <pt x="223" y="98" on="0"/>
        <pt x="276" y="70" on="0"/>
        <pt x="309" y="70" on="1"/>
        <pt x="344" y="70" on="0"/>
        <pt x="409" y="85" on="0"/>
        <pt x="455" y="106" on="1"/>
        <pt x="474" y="33" on="1"/>
        <pt x="420" y="7" on="0"/>
        <pt x="327" y="-11" on="0"/>
        <pt x="288" y="-11" on="1"/>
        <pt x="229" y="-11" on="0"/>
        <pt x="142" y="33" on="0"/>
        <pt x="88" y="108" on="0"/>
        <pt x="67" y="208" on="0"/>
        <pt x="74" y="264" on="1"/>
        <pt x="81" y="325" on="0"/>
        <pt x="129" y="423" on="0"/>
        <pt x="203" y="491" on="0"/>
        <pt x="300" y="528" on="0"/>
        <pt x="356" y="528" on="1"/>
        <pt x="408" y="528" on="0"/>
        <pt x="486" y="482" on="0"/>
        <pt x="526" y="405" on="0"/>
        <pt x="526" y="303" on="0"/>
        <pt x="501" y="246" on="1"/>
        <pt x="214" y="246" on="1"/>
        <pt x="228" y="276" on="0"/>
        <pt x="272" y="317" on="0"/>
      </contour>
    </TTGlyph>
    <TTGlyph name="egrave" xMin="67" yMin="-11" xMax="526" yMax="740">
      <contour>
        <pt x="289" y="636" on="1"/>
        <pt x="231" y="740" on="1"/>
        <pt x="338" y="740" on="1"/>
        <pt x="394" y="602" on="1"/>
        <pt x="368" y="596" on="0"/>
        <pt x="307" y="609" on="0"/>
      </contour>
      <contour>
        <pt x="305" y="317" on="1"/>
        <pt x="421" y="317" on="1"/>
        <pt x="428" y="344" on="0"/>
        <pt x="421" y="392" on="0"/>
        <pt x="398" y="428" on="0"/>
        <pt x="361" y="449" on="0"/>
        <pt x="337" y="449" on="1"/>
        <pt x="309" y="449" on="0"/>
        <pt x="257" y="425" on="0"/>
        <pt x="215" y="379" on="0"/>
        <pt x="186" y="310" on="0"/>
        <pt x="180" y="265" on="1"/>
        <pt x="175" y="221" on="0"/>
        <pt x="189" y="149" on="0"/>
        <pt x="223" y="98" on="0"/>
        <pt x="276" y="70" on="0"/>
        <pt x="309" y="70" on="1"/>
        <pt x="344" y="70" on="0"/>
        <pt x="409" y="85" on="0"/>
        <pt x="455" y="106" on="1"/>
        <pt x="474" y="33" on="1"/>
        <pt x="420" y="7" on="0"/>
        <pt x="327" y="-11" on="0"/>
        <pt x="288" y="-11" on="1"/>
        <pt x="229" y="-11" on="0"/>
        <pt x="142" y="33" on="0"/>
        <pt x="88" y="108" on="0"/>
        <pt x="67" y="208" on="0"/>
        <pt x="74" y="264" on="1"/>
        <pt x="81" y="325" on="0"/>
        <pt x="129" y="423" on="0"/>
        <pt x="203" y="491" on="0"/>
        <pt x="300" y="528" on="0"/>
        <pt x="356" y="528" on="1"/>
        <pt x="408" y="528" on="0"/>
        <pt x="486" y="482" on="0"/>
        <pt x="526" y="405" on="0"/>
        <pt x="526" y="303" on="0"/>
        <pt x="501" y="246" on="1"/>
        <pt x="214" y="246" on="1"/>
        <pt x="228" y="276" on="0"/>
        <pt x="272" y="317" on="0"/>
      </contour>
    </TTGlyph>
    <TTGlyph name="eight" xMin="64" yMin="-14" xMax="576" yMax="713">
      <contour>
        <pt x="296" y="67" on="1"/>
        <pt x="327" y="67" on="0"/>
        <pt x="379" y="84" on="0"/>
        <pt x="418" y="113" on="0"/>
        <pt x="443" y="154" on="0"/>
        <pt x="446" y="178" on="1"/>
        <pt x="451" y="220" on="0"/>
        <pt x="406" y="272" on="0"/>
        <pt x="332" y="311" on="0"/>
        <pt x="246" y="347" on="0"/>
        <pt x="174" y="397" on="0"/>
        <pt x="131" y="472" on="0"/>
        <pt x="138" y="531" on="1"/>
        <pt x="143" y="574" on="0"/>
        <pt x="187" y="641" on="0"/>
        <pt x="253" y="688" on="0"/>
        <pt x="335" y="713" on="0"/>
        <pt x="378" y="713" on="1"/>
        <pt x="422" y="713" on="0"/>
        <pt x="498" y="688" on="0"/>
        <pt x="550" y="641" on="0"/>
        <pt x="576" y="574" on="0"/>
        <pt x="571" y="531" on="1"/>
        <pt x="565" y="486" on="0"/>
        <pt x="504" y="397" on="0"/>
        <pt x="460" y="359" on="1"/>
        <pt x="482" y="346" on="0"/>
        <pt x="519" y="312" on="0"/>
        <pt x="544" y="269" on="0"/>
        <pt x="554" y="213" on="0"/>
        <pt x="550" y="178" on="1"/>
        <pt x="544" y="132" on="0"/>
        <pt x="497" y="60" on="0"/>
        <pt x="426" y="11" on="0"/>
        <pt x="335" y="-14" on="0"/>
        <pt x="286" y="-14" on="1"/>
        <pt x="235" y="-14" on="0"/>
        <pt x="151" y="11" on="0"/>
        <pt x="92" y="60" on="0"/>
        <pt x="64" y="132" on="0"/>
        <pt x="70" y="178" on="1"/>
        <pt x="72" y="195" on="0"/>
        <pt x="84" y="231" on="0"/>
        <pt x="108" y="272" on="0"/>
        <pt x="146" y="318" on="0"/>
        <pt x="175" y="345" on="1"/>
        <pt x="192" y="321" on="0"/>
        <pt x="206" y="263" on="0"/>
        <pt x="190" y="234" on="1"/>
        <pt x="174" y="208" on="0"/>
        <pt x="171" y="187" on="1"/>
        <pt x="164" y="130" on="0"/>
        <pt x="236" y="67" on="0"/>
      </contour>
      <contour>
        <pt x="242" y="531" on="1"/>
        <pt x="239" y="504" on="0"/>
        <pt x="261" y="465" on="0"/>
        <pt x="303" y="435" on="0"/>
        <pt x="359" y="409" on="0"/>
        <pt x="388" y="396" on="1"/>
        <pt x="422" y="426" on="0"/>
        <pt x="463" y="485" on="0"/>
        <pt x="468" y="519" on="1"/>
        <pt x="472" y="548" on="0"/>
        <pt x="457" y="590" on="0"/>
        <pt x="428" y="618" on="0"/>
        <pt x="389" y="631" on="0"/>
        <pt x="368" y="631" on="1"/>
        <pt x="346" y="631" on="0"/>
        <pt x="303" y="618" on="0"/>
        <pt x="269" y="592" on="0"/>
        <pt x="245" y="555" on="0"/>
      </contour>
    </TTGlyph>
    <TTGlyph name="ellipsis" xMin="55" yMin="-15" xMax="735" yMax="118">
      <contour>
        <pt x="599" y="51" on="1"/>
        <pt x="602" y="80" on="0"/>
        <pt x="644" y="118" on="0"/>
        <pt x="673" y="118" on="1"/>
        <pt x="702" y="118" on="0"/>
        <pt x="735" y="80" on="0"/>
        <pt x="732" y="51" on="1"/>
        <pt x="728" y="22" on="0"/>
        <pt x="686" y="-15" on="0"/>
        <pt x="657" y="-15" on="1"/>
        <pt x="628" y="-15" on="0"/>
        <pt x="595" y="22" on="0"/>
      </contour>
      <contour>
        <pt x="329" y="51" on="1"/>
        <pt x="332" y="80" on="0"/>
        <pt x="374" y="118" on="0"/>
        <pt x="403" y="118" on="1"/>
        <pt x="432" y="118" on="0"/>
        <pt x="465" y="80" on="0"/>
        <pt x="462" y="51" on="1"/>
        <pt x="458" y="22" on="0"/>
        <pt x="416" y="-15" on="0"/>
        <pt x="387" y="-15" on="1"/>
        <pt x="358" y="-15" on="0"/>
        <pt x="325" y="22" on="0"/>
      </contour>
      <contour>
        <pt x="59" y="51" on="1"/>
        <pt x="62" y="80" on="0"/>
        <pt x="104" y="118" on="0"/>
        <pt x="133" y="118" on="1"/>
        <pt x="162" y="118" on="0"/>
        <pt x="195" y="80" on="0"/>
        <pt x="192" y="51" on="1"/>
        <pt x="188" y="22" on="0"/>
        <pt x="146" y="-15" on="0"/>
        <pt x="117" y="-15" on="1"/>
        <pt x="88" y="-15" on="0"/>
        <pt x="55" y="22" on="0"/>
      </contour>
    </TTGlyph>
    <TTGlyph name="emdash" xMin="94" yMin="238" xMax="842" yMax="312">
      <contour>
        <pt x="833" y="238" on="1"/>
        <pt x="94" y="238" on="1"/>
        <pt x="103" y="312" on="1"/>
        <pt x="842" y="312" on="1"/>
      </contour>
    </TTGlyph>
    <TTGlyph name="endash" xMin="94" yMin="238" xMax="527" yMax="312">
      <contour>
        <pt x="518" y="238" on="1"/>
        <pt x="94" y="238" on="1"/>
        <pt x="103" y="312" on="1"/>
        <pt x="527" y="312" on="1"/>
      </contour>
    </TTGlyph>
    <TTGlyph name="equal" xMin="89" yMin="172" xMax="597" yMax="469">
      <contour>
        <pt x="116" y="393" on="1"/>
        <pt x="125" y="469" on="1"/>
        <pt x="597" y="469" on="1"/>
        <pt x="588" y="393" on="1"/>
      </contour>
      <contour>
        <pt x="89" y="172" on="1"/>
        <pt x="98" y="248" on="1"/>
        <pt x="570" y="248" on="1"/>
        <pt x="561" y="172" on="1"/>
      </contour>
    </TTGlyph>
    <TTGlyph name="eth" xMin="64" yMin="-11" xMax="579" yMax="761">
      <contour>
        <pt x="457" y="259" on="1"/>
        <pt x="468" y="351" on="0"/>
        <pt x="402" y="447" on="0"/>
        <pt x="344" y="447" on="1"/>
        <pt x="315" y="447" on="0"/>
        <pt x="263" y="423" on="0"/>
        <pt x="221" y="375" on="0"/>
        <pt x="192" y="305" on="0"/>
        <pt x="186" y="259" on="1"/>
        <pt x="175" y="166" on="0"/>
        <pt x="240" y="70" on="0"/>
        <pt x="298" y="70" on="1"/>
        <pt x="327" y="70" on="0"/>
        <pt x="380" y="94" on="0"/>
        <pt x="422" y="142" on="0"/>
        <pt x="451" y="213" on="0"/>
      </contour>
      <contour>
        <pt x="570" y="259" on="1"/>
        <pt x="562" y="196" on="0"/>
        <pt x="510" y="96" on="0"/>
        <pt x="434" y="26" on="0"/>
        <pt x="339" y="-11" on="0"/>
        <pt x="288" y="-11" on="1"/>
        <pt x="236" y="-11" on="0"/>
        <pt x="150" y="25" on="0"/>
        <pt x="91" y="94" on="0"/>
        <pt x="64" y="194" on="0"/>
        <pt x="72" y="259" on="1"/>
        <pt x="80" y="322" on="0"/>
        <pt x="132" y="421" on="0"/>
        <pt x="208" y="491" on="0"/>
        <pt x="303" y="528" on="0"/>
        <pt x="354" y="528" on="1"/>
        <pt x="379" y="528" on="0"/>
        <pt x="423" y="513" on="0"/>
        <pt x="451" y="497" on="1"/>
        <pt x="427" y="531" on="0"/>
        <pt x="374" y="592" on="0"/>
        <pt x="354" y="609" on="1"/>
        <pt x="225" y="551" on="1"/>
        <pt x="210" y="598" on="1"/>
        <pt x="309" y="644" on="1"/>
        <pt x="289" y="659" on="0"/>
        <pt x="245" y="685" on="0"/>
        <pt x="221" y="697" on="1"/>
        <pt x="264" y="761" on="1"/>
        <pt x="298" y="744" on="0"/>
        <pt x="365" y="705" on="0"/>
        <pt x="394" y="682" on="1"/>
        <pt x="513" y="735" on="1"/>
        <pt x="530" y="687" on="1"/>
        <pt x="438" y="645" on="1"/>
        <pt x="460" y="624" on="0"/>
        <pt x="514" y="549" on="0"/>
        <pt x="556" y="449" on="0"/>
        <pt x="579" y="327" on="0"/>
      </contour>
    </TTGlyph>
    <TTGlyph name="exclam" xMin="66" yMin="-15" xMax="276" yMax="727">
      <contour>
        <pt x="71" y="51" on="1"/>
        <pt x="74" y="80" on="0"/>
        <pt x="116" y="119" on="0"/>
        <pt x="145" y="119" on="1"/>
        <pt x="174" y="119" on="0"/>
        <pt x="207" y="80" on="0"/>
        <pt x="204" y="51" on="1"/>
        <pt x="200" y="22" on="0"/>
        <pt x="158" y="-15" on="0"/>
        <pt x="129" y="-15" on="1"/>
        <pt x="100" y="-15" on="0"/>
        <pt x="66" y="22" on="0"/>
      </contour>
      <contour>
        <pt x="168" y="727" on="1"/>
        <pt x="276" y="727" on="1"/>
        <pt x="195" y="198" on="1"/>
        <pt x="117" y="198" on="1"/>
      </contour>
    </TTGlyph>
    <TTGlyph name="exclamdown" xMin="50" yMin="-210" xMax="255" yMax="532">
      <contour>
        <pt x="119" y="466" on="1"/>
        <pt x="122" y="495" on="0"/>
        <pt x="164" y="532" on="0"/>
        <pt x="193" y="532" on="1"/>
        <pt x="222" y="532" on="0"/>
        <pt x="255" y="495" on="0"/>
        <pt x="252" y="466" on="1"/>
        <pt x="248" y="437" on="0"/>
        <pt x="205" y="398" on="0"/>
        <pt x="176" y="398" on="1"/>
        <pt x="147" y="398" on="0"/>
        <pt x="115" y="437" on="0"/>
      </contour>
      <contour>
        <pt x="158" y="-210" on="1"/>
        <pt x="50" y="-210" on="1"/>
        <pt x="129" y="319" on="1"/>
        <pt x="207" y="319" on="1"/>
      </contour>
    </TTGlyph>
    <TTGlyph name="f" xMin="74" yMin="0" xMax="520" yMax="763">
      <contour>
        <pt x="394" y="517" on="1"/>
        <pt x="449" y="517" on="1"/>
        <pt x="439" y="439" on="1"/>
        <pt x="295" y="439" on="1"/>
        <pt x="309" y="469" on="0"/>
        <pt x="356" y="517" on="0"/>
      </contour>
      <contour>
        <pt x="159" y="439" on="1"/>
        <pt x="74" y="439" on="1"/>
        <pt x="81" y="496" on="1"/>
        <pt x="169" y="517" on="1"/>
        <pt x="172" y="545" on="1"/>
        <pt x="178" y="594" on="0"/>
        <pt x="215" y="675" on="0"/>
        <pt x="274" y="732" on="0"/>
        <pt x="352" y="763" on="0"/>
        <pt x="399" y="763" on="1"/>
        <pt x="424" y="763" on="0"/>
        <pt x="486" y="752" on="0"/>
        <pt x="520" y="736" on="1"/>
        <pt x="487" y="667" on="1"/>
        <pt x="458" y="678" on="0"/>
        <pt x="419" y="685" on="0"/>
        <pt x="402" y="685" on="1"/>
        <pt x="380" y="685" on="0"/>
        <pt x="337" y="669" on="0"/>
        <pt x="302" y="636" on="0"/>
        <pt x="277" y="586" on="0"/>
        <pt x="273" y="552" on="1"/>
        <pt x="206" y="0" on="1"/>
        <pt x="106" y="0" on="1"/>
      </contour>
    </TTGlyph>
    <TTGlyph name="five" xMin="42" yMin="-11" xMax="528" yMax="701">
      <contour>
        <pt x="251" y="613" on="1"/>
        <pt x="244" y="577" on="0"/>
        <pt x="229" y="506" on="0"/>
        <pt x="222" y="471" on="1"/>
        <pt x="212" y="417" on="1"/>
        <pt x="229" y="419" on="0"/>
        <pt x="260" y="423" on="0"/>
        <pt x="277" y="423" on="1"/>
        <pt x="338" y="423" on="0"/>
        <pt x="427" y="387" on="0"/>
        <pt x="481" y="328" on="0"/>
        <pt x="502" y="251" on="0"/>
        <pt x="497" y="209" on="1"/>
        <pt x="491" y="164" on="0"/>
        <pt x="446" y="84" on="0"/>
        <pt x="372" y="24" on="0"/>
        <pt x="272" y="-11" on="0"/>
        <pt x="212" y="-11" on="1"/>
        <pt x="193" y="-11" on="0"/>
        <pt x="149" y="-5" on="0"/>
        <pt x="104" y="7" on="0"/>
        <pt x="60" y="25" on="0"/>
        <pt x="42" y="37" on="1"/>
        <pt x="77" y="110" on="1"/>
        <pt x="117" y="87" on="0"/>
        <pt x="192" y="70" on="0"/>
        <pt x="221" y="70" on="1"/>
        <pt x="261" y="70" on="0"/>
        <pt x="320" y="96" on="0"/>
        <pt x="361" y="137" on="0"/>
        <pt x="382" y="187" on="0"/>
        <pt x="385" y="211" on="1"/>
        <pt x="393" y="279" on="0"/>
        <pt x="313" y="343" on="0"/>
        <pt x="243" y="343" on="1"/>
        <pt x="217" y="343" on="0"/>
        <pt x="144" y="334" on="0"/>
        <pt x="109" y="325" on="1"/>
        <pt x="181" y="701" on="1"/>
        <pt x="528" y="701" on="1"/>
        <pt x="517" y="613" on="1"/>
      </contour>
    </TTGlyph>
    <TTGlyph name="florin" xMin="-50" yMin="-141" xMax="552" yMax="711">
      <contour>
        <pt x="-41" y="-141" on="1"/>
        <pt x="-50" y="-75" on="1"/>
        <pt x="-26" y="-67" on="0"/>
        <pt x="19" y="-46" on="0"/>
        <pt x="56" y="-13" on="0"/>
        <pt x="83" y="35" on="0"/>
        <pt x="91" y="70" on="1"/>
        <pt x="162" y="388" on="1"/>
        <pt x="82" y="388" on="1"/>
        <pt x="84" y="402" on="0"/>
        <pt x="87" y="431" on="0"/>
        <pt x="89" y="445" on="1"/>
        <pt x="180" y="465" on="1"/>
        <pt x="186" y="493" on="1"/>
        <pt x="197" y="542" on="0"/>
        <pt x="242" y="623" on="0"/>
        <pt x="306" y="680" on="0"/>
        <pt x="387" y="711" on="0"/>
        <pt x="434" y="711" on="1"/>
        <pt x="459" y="711" on="0"/>
        <pt x="520" y="700" on="0"/>
        <pt x="552" y="684" on="1"/>
        <pt x="513" y="615" on="1"/>
        <pt x="485" y="626" on="0"/>
        <pt x="445" y="633" on="0"/>
        <pt x="429" y="633" on="1"/>
        <pt x="407" y="633" on="0"/>
        <pt x="363" y="617" on="0"/>
        <pt x="325" y="584" on="0"/>
        <pt x="295" y="534" on="0"/>
        <pt x="287" y="500" on="1"/>
        <pt x="193" y="75" on="1"/>
        <pt x="182" y="25" on="0"/>
        <pt x="139" y="-47" on="0"/>
        <pt x="79" y="-98" on="0"/>
        <pt x="3" y="-131" on="0"/>
      </contour>
      <contour>
        <pt x="404" y="465" on="1"/>
        <pt x="460" y="465" on="1"/>
        <pt x="450" y="388" on="1"/>
        <pt x="298" y="388" on="1"/>
        <pt x="315" y="417" on="0"/>
        <pt x="366" y="465" on="0"/>
      </contour>
    </TTGlyph>
    <TTGlyph name="four" xMin="35" yMin="0" xMax="552" yMax="701">
      <contour>
        <pt x="44" y="223" on="1"/>
        <pt x="419" y="701" on="1"/>
        <pt x="530" y="701" on="1"/>
        <pt x="472" y="231" on="1"/>
        <pt x="552" y="231" on="1"/>
        <pt x="542" y="152" on="1"/>
        <pt x="462" y="152" on="1"/>
        <pt x="444" y="0" on="1"/>
        <pt x="344" y="0" on="1"/>
        <pt x="410" y="538" on="1"/>
        <pt x="415" y="567" on="1"/>
        <pt x="397" y="541" on="1"/>
        <pt x="185" y="276" on="1"/>
        <pt x="173" y="259" on="0"/>
        <pt x="159" y="244" on="1"/>
        <pt x="146" y="230" on="1"/>
        <pt x="151" y="231" on="0"/>
        <pt x="159" y="231" on="0"/>
        <pt x="163" y="232" on="1"/>
        <pt x="239" y="232" on="1"/>
        <pt x="260" y="232" on="0"/>
        <pt x="290" y="215" on="0"/>
        <pt x="311" y="190" on="0"/>
        <pt x="323" y="162" on="0"/>
        <pt x="326" y="152" on="1"/>
        <pt x="35" y="152" on="1"/>
      </contour>
    </TTGlyph>
    <TTGlyph name="g" xMin="40" yMin="-250" xMax="557" yMax="528">
      <contour>
        <pt x="71" y="251" on="1"/>
        <pt x="78" y="312" on="0"/>
        <pt x="130" y="413" on="0"/>
        <pt x="210" y="487" on="0"/>
        <pt x="314" y="528" on="0"/>
        <pt x="375" y="528" on="1"/>
        <pt x="417" y="528" on="0"/>
        <pt x="501" y="514" on="0"/>
        <pt x="557" y="496" on="1"/>
        <pt x="497" y="0" on="1"/>
        <pt x="489" y="-60" on="0"/>
        <pt x="442" y="-153" on="0"/>
        <pt x="369" y="-217" on="0"/>
        <pt x="275" y="-250" on="0"/>
        <pt x="220" y="-250" on="1"/>
        <pt x="181" y="-250" on="0"/>
        <pt x="89" y="-234" on="0"/>
        <pt x="40" y="-208" on="1"/>
        <pt x="77" y="-133" on="1"/>
        <pt x="120" y="-153" on="0"/>
        <pt x="190" y="-170" on="0"/>
        <pt x="222" y="-170" on="1"/>
        <pt x="253" y="-170" on="0"/>
        <pt x="310" y="-151" on="0"/>
        <pt x="355" y="-111" on="0"/>
        <pt x="386" y="-52" on="0"/>
        <pt x="391" y="-11" on="1"/>
        <pt x="446" y="436" on="1"/>
        <pt x="424" y="442" on="0"/>
        <pt x="386" y="447" on="0"/>
        <pt x="367" y="447" on="1"/>
        <pt x="294" y="447" on="0"/>
        <pt x="195" y="344" on="0"/>
        <pt x="184" y="251" on="1"/>
        <pt x="179" y="214" on="0"/>
        <pt x="185" y="147" on="0"/>
        <pt x="209" y="98" on="0"/>
        <pt x="252" y="73" on="0"/>
        <pt x="284" y="78" on="1"/>
        <pt x="308" y="80" on="0"/>
        <pt x="345" y="58" on="0"/>
        <pt x="361" y="35" on="1"/>
        <pt x="334" y="18" on="0"/>
        <pt x="278" y="-4" on="0"/>
        <pt x="255" y="-7" on="1"/>
        <pt x="210" y="-12" on="0"/>
        <pt x="136" y="25" on="0"/>
        <pt x="86" y="96" on="0"/>
        <pt x="64" y="195" on="0"/>
      </contour>
    </TTGlyph>
    <TTGlyph name="germandbls" xMin="74" yMin="-12" xMax="563" yMax="763">
      <contour>
        <pt x="242" y="25" on="1"/>
        <pt x="277" y="95" on="1"/>
        <pt x="309" y="81" on="0"/>
        <pt x="361" y="69" on="0"/>
        <pt x="381" y="69" on="1"/>
        <pt x="410" y="69" on="0"/>
        <pt x="454" y="107" on="0"/>
        <pt x="458" y="138" on="1"/>
        <pt x="461" y="163" on="0"/>
        <pt x="440" y="201" on="0"/>
        <pt x="406" y="234" on="0"/>
        <pt x="365" y="266" on="0"/>
        <pt x="331" y="308" on="0"/>
        <pt x="312" y="362" on="0"/>
        <pt x="317" y="401" on="1"/>
        <pt x="322" y="445" on="0"/>
        <pt x="390" y="520" on="0"/>
        <pt x="447" y="542" on="1"/>
        <pt x="456" y="565" on="0"/>
        <pt x="459" y="588" on="1"/>
        <pt x="462" y="609" on="0"/>
        <pt x="450" y="645" on="0"/>
        <pt x="426" y="671" on="0"/>
        <pt x="393" y="686" on="0"/>
        <pt x="374" y="686" on="1"/>
        <pt x="353" y="686" on="0"/>
        <pt x="309" y="671" on="0"/>
        <pt x="273" y="639" on="0"/>
        <pt x="247" y="589" on="0"/>
        <pt x="243" y="555" on="1"/>
        <pt x="175" y="0" on="1"/>
        <pt x="74" y="0" on="1"/>
        <pt x="140" y="545" on="1"/>
        <pt x="146" y="596" on="0"/>
        <pt x="186" y="677" on="0"/>
        <pt x="248" y="733" on="0"/>
        <pt x="327" y="763" on="0"/>
        <pt x="373" y="763" on="1"/>
        <pt x="419" y="763" on="0"/>
        <pt x="488" y="735" on="0"/>
        <pt x="532" y="688" on="0"/>
        <pt x="550" y="624" on="0"/>
        <pt x="546" y="588" on="1"/>
        <pt x="542" y="562" on="0"/>
        <pt x="520" y="512" on="0"/>
        <pt x="497" y="482" on="1"/>
        <pt x="461" y="466" on="0"/>
        <pt x="420" y="430" on="0"/>
        <pt x="417" y="401" on="1"/>
        <pt x="414" y="376" on="0"/>
        <pt x="435" y="339" on="0"/>
        <pt x="470" y="306" on="0"/>
        <pt x="511" y="273" on="0"/>
        <pt x="544" y="231" on="0"/>
        <pt x="563" y="174" on="0"/>
        <pt x="558" y="134" on="1"/>
        <pt x="554" y="103" on="0"/>
        <pt x="522" y="49" on="0"/>
        <pt x="474" y="10" on="0"/>
        <pt x="414" y="-12" on="0"/>
        <pt x="382" y="-12" on="1"/>
        <pt x="352" y="-12" on="0"/>
        <pt x="287" y="1" on="0"/>
      </contour>
    </TTGlyph>
    <TTGlyph name="grave" xMin="109" yMin="594" xMax="266" yMax="727">
      <contour>
        <pt x="169" y="631" on="1"/>
        <pt x="109" y="727" on="1"/>
        <pt x="216" y="727" on="1"/>
        <pt x="266" y="602" on="1"/>
        <pt x="235" y="594" on="0"/>
        <pt x="185" y="607" on="0"/>
      </contour>
    </TTGlyph>
    <TTGlyph name="greater" xMin="61" yMin="0" xMax="615" yMax="552">
      <contour>
        <pt x="72" y="95" on="1"/>
        <pt x="175" y="139" on="0"/>
        <pt x="380" y="225" on="0"/>
        <pt x="484" y="270" on="1"/>
        <pt x="510" y="276" on="1"/>
        <pt x="485" y="283" on="1"/>
        <pt x="117" y="457" on="1"/>
        <pt x="128" y="552" on="1"/>
        <pt x="615" y="307" on="1"/>
        <pt x="608" y="245" on="1"/>
        <pt x="61" y="0" on="1"/>
      </contour>
    </TTGlyph>
    <TTGlyph name="guillemotleft" xMin="44" yMin="49" xMax="589" yMax="468">
      <contour>
        <pt x="497" y="49" on="1"/>
        <pt x="301" y="258" on="1"/>
        <pt x="548" y="468" on="1"/>
        <pt x="589" y="422" on="1"/>
        <pt x="430" y="258" on="1"/>
        <pt x="549" y="94" on="1"/>
      </contour>
      <contour>
        <pt x="240" y="49" on="1"/>
        <pt x="44" y="258" on="1"/>
        <pt x="291" y="468" on="1"/>
        <pt x="332" y="422" on="1"/>
        <pt x="173" y="258" on="1"/>
        <pt x="292" y="94" on="1"/>
      </contour>
    </TTGlyph>
    <TTGlyph name="guillemotright" xMin="57" yMin="49" xMax="602" yMax="468">
      <contour>
        <pt x="602" y="258" on="1"/>
        <pt x="356" y="49" on="1"/>
        <pt x="314" y="94" on="1"/>
        <pt x="472" y="258" on="1"/>
        <pt x="354" y="422" on="1"/>
        <pt x="407" y="468" on="1"/>
      </contour>
      <contour>
        <pt x="345" y="258" on="1"/>
        <pt x="99" y="49" on="1"/>
        <pt x="57" y="94" on="1"/>
        <pt x="216" y="258" on="1"/>
        <pt x="97" y="422" on="1"/>
        <pt x="150" y="468" on="1"/>
      </contour>
    </TTGlyph>
    <TTGlyph name="guilsinglleft" xMin="44" yMin="49" xMax="332" yMax="468">
      <contour>
        <pt x="240" y="49" on="1"/>
        <pt x="44" y="258" on="1"/>
        <pt x="291" y="468" on="1"/>
        <pt x="332" y="422" on="1"/>
        <pt x="174" y="258" on="1"/>
        <pt x="292" y="94" on="1"/>
      </contour>
    </TTGlyph>
    <TTGlyph name="guilsinglright" xMin="57" yMin="49" xMax="345" yMax="468">
      <contour>
        <pt x="345" y="258" on="1"/>
        <pt x="99" y="49" on="1"/>
        <pt x="57" y="94" on="1"/>
        <pt x="215" y="258" on="1"/>
        <pt x="97" y="422" on="1"/>
        <pt x="150" y="468" on="1"/>
      </contour>
    </TTGlyph>
    <TTGlyph name="h" xMin="74" yMin="0" xMax="556" yMax="758">
      <contour>
        <pt x="397" y="0" on="1"/>
        <pt x="442" y="373" on="1"/>
        <pt x="447" y="405" on="0"/>
        <pt x="426" y="446" on="0"/>
        <pt x="399" y="446" on="1"/>
        <pt x="390" y="446" on="0"/>
        <pt x="371" y="442" on="0"/>
        <pt x="351" y="438" on="0"/>
        <pt x="331" y="436" on="0"/>
        <pt x="321" y="438" on="1"/>
        <pt x="307" y="440" on="0"/>
        <pt x="283" y="461" on="0"/>
        <pt x="274" y="477" on="1"/>
        <pt x="330" y="508" on="0"/>
        <pt x="402" y="528" on="0"/>
        <pt x="430" y="528" on="1"/>
        <pt x="458" y="528" on="0"/>
        <pt x="507" y="511" on="0"/>
        <pt x="541" y="474" on="0"/>
        <pt x="556" y="412" on="0"/>
        <pt x="551" y="367" on="1"/>
        <pt x="506" y="0" on="1"/>
      </contour>
      <contour>
        <pt x="180" y="0" on="1"/>
        <pt x="74" y="0" on="1"/>
        <pt x="167" y="758" on="1"/>
        <pt x="273" y="751" on="1"/>
      </contour>
    </TTGlyph>
    <TTGlyph name="hyphen" xMin="96" yMin="268" xMax="407" yMax="342">
      <contour>
        <pt x="398" y="268" on="1"/>
        <pt x="96" y="268" on="1"/>
        <pt x="105" y="342" on="1"/>
        <pt x="407" y="342" on="1"/>
      </contour>
    </TTGlyph>
    <TTGlyph name="i" xMin="74" yMin="0" xMax="280" yMax="735">
      <contour>
        <pt x="143" y="667" on="1"/>
        <pt x="147" y="696" on="0"/>
        <pt x="190" y="735" on="0"/>
        <pt x="218" y="735" on="1"/>
        <pt x="247" y="735" on="0"/>
        <pt x="280" y="696" on="0"/>
        <pt x="276" y="667" on="1"/>
        <pt x="273" y="639" on="0"/>
        <pt x="230" y="601" on="0"/>
        <pt x="201" y="601" on="1"/>
        <pt x="173" y="601" on="0"/>
        <pt x="140" y="639" on="0"/>
      </contour>
      <contour>
        <pt x="183" y="0" on="1"/>
        <pt x="74" y="0" on="1"/>
        <pt x="137" y="517" on="1"/>
        <pt x="246" y="517" on="1"/>
      </contour>
    </TTGlyph>
    <TTGlyph name="iacute" xMin="74" yMin="0" xMax="364" yMax="740">
      <contour>
        <pt x="364" y="740" on="1"/>
        <pt x="266" y="635" on="1"/>
        <pt x="240" y="607" on="0"/>
        <pt x="174" y="595" on="0"/>
        <pt x="150" y="602" on="1"/>
        <pt x="255" y="740" on="1"/>
      </contour>
      <contour>
        <pt x="182" y="0" on="1"/>
        <pt x="74" y="0" on="1"/>
        <pt x="137" y="517" on="1"/>
        <pt x="245" y="517" on="1"/>
      </contour>
    </TTGlyph>
    <TTGlyph name="icircumflex" xMin="58" yMin="0" xMax="347" yMax="743">
      <contour>
        <pt x="184" y="743" on="1"/>
        <pt x="255" y="743" on="1"/>
        <pt x="347" y="599" on="1"/>
        <pt x="285" y="589" on="1"/>
        <pt x="210" y="669" on="1"/>
        <pt x="115" y="588" on="1"/>
        <pt x="58" y="599" on="1"/>
      </contour>
      <contour>
        <pt x="182" y="0" on="1"/>
        <pt x="74" y="0" on="1"/>
        <pt x="137" y="517" on="1"/>
        <pt x="245" y="517" on="1"/>
      </contour>
    </TTGlyph>
    <TTGlyph name="idieresis" xMin="54" yMin="0" xMax="365" yMax="725">
      <contour>
        <pt x="251" y="670" on="1"/>
        <pt x="254" y="693" on="0"/>
        <pt x="290" y="725" on="0"/>
        <pt x="313" y="725" on="1"/>
        <pt x="336" y="725" on="0"/>
        <pt x="365" y="693" on="0"/>
        <pt x="362" y="670" on="1"/>
        <pt x="359" y="647" on="0"/>
        <pt x="322" y="615" on="0"/>
        <pt x="299" y="615" on="1"/>
        <pt x="276" y="615" on="0"/>
        <pt x="248" y="647" on="0"/>
      </contour>
      <contour>
        <pt x="57" y="670" on="1"/>
        <pt x="60" y="693" on="0"/>
        <pt x="97" y="725" on="0"/>
        <pt x="119" y="725" on="1"/>
        <pt x="142" y="725" on="0"/>
        <pt x="172" y="693" on="0"/>
        <pt x="169" y="670" on="1"/>
        <pt x="166" y="647" on="0"/>
        <pt x="128" y="615" on="0"/>
        <pt x="105" y="615" on="1"/>
        <pt x="83" y="615" on="0"/>
        <pt x="54" y="647" on="0"/>
      </contour>
      <contour>
        <pt x="183" y="0" on="1"/>
        <pt x="74" y="0" on="1"/>
        <pt x="137" y="517" on="1"/>
        <pt x="246" y="517" on="1"/>
      </contour>
    </TTGlyph>
    <TTGlyph name="igrave" xMin="73" yMin="0" xMax="246" yMax="740">
      <contour>
        <pt x="131" y="636" on="1"/>
        <pt x="73" y="740" on="1"/>
        <pt x="180" y="740" on="1"/>
        <pt x="236" y="602" on="1"/>
        <pt x="210" y="596" on="0"/>
        <pt x="149" y="609" on="0"/>
      </contour>
      <contour>
        <pt x="183" y="0" on="1"/>
        <pt x="74" y="0" on="1"/>
        <pt x="137" y="517" on="1"/>
        <pt x="246" y="517" on="1"/>
      </contour>
    </TTGlyph>
    <TTGlyph name="j" xMin="-72" yMin="-248" xMax="282" yMax="735">
      <contour>
        <pt x="246" y="517" on="1"/>
        <pt x="188" y="42" on="1"/>
        <pt x="183" y="0" on="0"/>
        <pt x="159" y="-72" on="0"/>
        <pt x="109" y="-140" on="0"/>
        <pt x="30" y="-209" on="0"/>
        <pt x="-31" y="-248" on="1"/>
        <pt x="-72" y="-189" on="1"/>
        <pt x="-29" y="-155" on="0"/>
        <pt x="26" y="-101" on="0"/>
        <pt x="59" y="-50" on="0"/>
        <pt x="75" y="6" on="0"/>
        <pt x="80" y="42" on="1"/>
        <pt x="138" y="517" on="1"/>
      </contour>
      <contour>
        <pt x="144" y="667" on="1"/>
        <pt x="148" y="696" on="0"/>
        <pt x="189" y="735" on="0"/>
        <pt x="218" y="735" on="1"/>
        <pt x="248" y="735" on="0"/>
        <pt x="282" y="696" on="0"/>
        <pt x="278" y="667" on="1"/>
        <pt x="275" y="638" on="0"/>
        <pt x="231" y="601" on="0"/>
        <pt x="201" y="601" on="1"/>
        <pt x="172" y="601" on="0"/>
        <pt x="141" y="638" on="0"/>
      </contour>
    </TTGlyph>
    <TTGlyph name="k" xMin="74" yMin="0" xMax="591" yMax="758">
      <contour>
        <pt x="591" y="510" on="1"/>
        <pt x="410" y="336" on="1"/>
        <pt x="565" y="0" on="1"/>
        <pt x="445" y="0" on="1"/>
        <pt x="354" y="221" on="1"/>
        <pt x="336" y="266" on="1"/>
        <pt x="252" y="182" on="1"/>
        <pt x="246" y="218" on="0"/>
        <pt x="269" y="302" on="0"/>
        <pt x="300" y="337" on="1"/>
        <pt x="311" y="350" on="0"/>
        <pt x="333" y="373" on="0"/>
        <pt x="344" y="385" on="1"/>
        <pt x="473" y="517" on="1"/>
      </contour>
      <contour>
        <pt x="272" y="751" on="1"/>
        <pt x="180" y="0" on="1"/>
        <pt x="74" y="0" on="1"/>
        <pt x="167" y="758" on="1"/>
      </contour>
    </TTGlyph>
    <TTGlyph name="l" xMin="74" yMin="0" xMax="271" yMax="758">
      <contour>
        <pt x="271" y="751" on="1"/>
        <pt x="179" y="0" on="1"/>
        <pt x="74" y="0" on="1"/>
        <pt x="167" y="758" on="1"/>
      </contour>
    </TTGlyph>
    <TTGlyph name="less" xMin="63" yMin="0" xMax="617" yMax="552">
      <contour>
        <pt x="193" y="270" on="1"/>
        <pt x="561" y="95" on="1"/>
        <pt x="550" y="0" on="1"/>
        <pt x="63" y="245" on="1"/>
        <pt x="70" y="307" on="1"/>
        <pt x="617" y="552" on="1"/>
        <pt x="606" y="457" on="1"/>
        <pt x="502" y="413" on="0"/>
        <pt x="298" y="325" on="0"/>
        <pt x="194" y="283" on="1"/>
        <pt x="167" y="276" on="1"/>
      </contour>
    </TTGlyph>
    <TTGlyph name="logicalnot" xMin="107" yMin="156" xMax="607" yMax="443">
      <contour>
        <pt x="116" y="443" on="1"/>
        <pt x="607" y="443" on="1"/>
        <pt x="572" y="156" on="1"/>
        <pt x="489" y="156" on="1"/>
        <pt x="515" y="369" on="1"/>
        <pt x="107" y="369" on="1"/>
      </contour>
    </TTGlyph>
    <TTGlyph name="m" xMin="76" yMin="0" xMax="876" yMax="528">
      <contour>
        <pt x="718" y="0" on="1"/>
        <pt x="763" y="373" on="1"/>
        <pt x="768" y="405" on="0"/>
        <pt x="744" y="446" on="0"/>
        <pt x="713" y="446" on="1"/>
        <pt x="704" y="446" on="0"/>
        <pt x="683" y="442" on="0"/>
        <pt x="661" y="438" on="0"/>
        <pt x="639" y="436" on="0"/>
        <pt x="629" y="438" on="1"/>
        <pt x="613" y="440" on="0"/>
        <pt x="589" y="462" on="0"/>
        <pt x="579" y="478" on="1"/>
        <pt x="637" y="507" on="0"/>
        <pt x="715" y="528" on="0"/>
        <pt x="744" y="528" on="1"/>
        <pt x="772" y="528" on="0"/>
        <pt x="823" y="511" on="0"/>
        <pt x="859" y="474" on="0"/>
        <pt x="876" y="412" on="0"/>
        <pt x="871" y="367" on="1"/>
        <pt x="826" y="0" on="1"/>
      </contour>
      <contour>
        <pt x="397" y="0" on="1"/>
        <pt x="442" y="373" on="1"/>
        <pt x="447" y="405" on="0"/>
        <pt x="426" y="446" on="0"/>
        <pt x="397" y="446" on="1"/>
        <pt x="377" y="446" on="0"/>
        <pt x="336" y="434" on="0"/>
        <pt x="317" y="439" on="1"/>
        <pt x="302" y="441" on="0"/>
        <pt x="279" y="463" on="0"/>
        <pt x="268" y="479" on="1"/>
        <pt x="326" y="508" on="0"/>
        <pt x="400" y="528" on="0"/>
        <pt x="429" y="528" on="1"/>
        <pt x="457" y="528" on="0"/>
        <pt x="507" y="511" on="0"/>
        <pt x="541" y="474" on="0"/>
        <pt x="556" y="412" on="0"/>
        <pt x="551" y="367" on="1"/>
        <pt x="506" y="0" on="1"/>
      </contour>
      <contour>
        <pt x="123" y="512" on="1"/>
        <pt x="209" y="517" on="1"/>
        <pt x="230" y="490" on="0"/>
        <pt x="238" y="437" on="0"/>
        <pt x="234" y="407" on="1"/>
        <pt x="185" y="0" on="1"/>
        <pt x="76" y="0" on="1"/>
        <pt x="123" y="386" on="1"/>
        <pt x="126" y="414" on="0"/>
        <pt x="127" y="477" on="0"/>
      </contour>
    </TTGlyph>
    <TTGlyph name="macron" xMin="188" yMin="610" xMax="491" yMax="680">
      <contour>
        <pt x="482" y="610" on="1"/>
        <pt x="188" y="610" on="1"/>
        <pt x="197" y="680" on="1"/>
        <pt x="491" y="680" on="1"/>
      </contour>
    </TTGlyph>
    <TTGlyph name="mu" xMin="54" yMin="-211" xMax="571" yMax="517">
      <contour>
        <pt x="425" y="81" on="1"/>
        <pt x="412" y="58" on="1"/>
        <pt x="389" y="31" on="0"/>
        <pt x="322" y="-10" on="0"/>
        <pt x="274" y="-10" on="1"/>
        <pt x="249" y="-10" on="0"/>
        <pt x="205" y="7" on="0"/>
        <pt x="191" y="22" on="1"/>
        <pt x="180" y="42" on="1"/>
        <pt x="178" y="34" on="0"/>
        <pt x="178" y="21" on="0"/>
        <pt x="177" y="13" on="1"/>
        <pt x="150" y="-211" on="1"/>
        <pt x="54" y="-211" on="1"/>
        <pt x="143" y="517" on="1"/>
        <pt x="245" y="517" on="1"/>
        <pt x="207" y="210" on="1"/>
        <pt x="200" y="151" on="0"/>
        <pt x="242" y="72" on="0"/>
        <pt x="293" y="72" on="1"/>
        <pt x="316" y="72" on="0"/>
        <pt x="361" y="92" on="0"/>
        <pt x="398" y="126" on="0"/>
        <pt x="424" y="173" on="0"/>
        <pt x="427" y="199" on="1"/>
        <pt x="466" y="517" on="1"/>
        <pt x="569" y="517" on="1"/>
        <pt x="524" y="148" on="1"/>
        <pt x="519" y="106" on="0"/>
        <pt x="538" y="72" on="0"/>
        <pt x="570" y="74" on="1"/>
        <pt x="571" y="4" on="1"/>
        <pt x="554" y="-3" on="0"/>
        <pt x="522" y="-8" on="0"/>
        <pt x="511" y="-8" on="1"/>
        <pt x="482" y="-8" on="0"/>
        <pt x="435" y="22" on="0"/>
        <pt x="428" y="59" on="1"/>
      </contour>
    </TTGlyph>
    <TTGlyph name="multiply" xMin="65" yMin="75" xMax="568" yMax="535">
      <contour>
        <pt x="112" y="75" on="1"/>
        <pt x="65" y="128" on="1"/>
        <pt x="263" y="306" on="1"/>
        <pt x="109" y="482" on="1"/>
        <pt x="169" y="535" on="1"/>
        <pt x="325" y="360" on="1"/>
        <pt x="521" y="535" on="1"/>
        <pt x="568" y="482" on="1"/>
        <pt x="372" y="306" on="1"/>
        <pt x="526" y="128" on="1"/>
        <pt x="467" y="75" on="1"/>
        <pt x="311" y="251" on="1"/>
      </contour>
    </TTGlyph>
    <TTGlyph name="n" xMin="76" yMin="0" xMax="561" yMax="528">
      <contour>
        <pt x="402" y="0" on="1"/>
        <pt x="447" y="373" on="1"/>
        <pt x="452" y="405" on="0"/>
        <pt x="428" y="446" on="0"/>
        <pt x="399" y="446" on="1"/>
        <pt x="389" y="446" on="0"/>
        <pt x="369" y="442" on="0"/>
        <pt x="348" y="438" on="0"/>
        <pt x="327" y="436" on="0"/>
        <pt x="317" y="438" on="1"/>
        <pt x="302" y="440" on="0"/>
        <pt x="279" y="462" on="0"/>
        <pt x="269" y="477" on="1"/>
        <pt x="325" y="507" on="0"/>
        <pt x="400" y="528" on="0"/>
        <pt x="429" y="528" on="1"/>
        <pt x="457" y="528" on="0"/>
        <pt x="508" y="511" on="0"/>
        <pt x="544" y="474" on="0"/>
        <pt x="561" y="412" on="0"/>
        <pt x="556" y="367" on="1"/>
        <pt x="511" y="0" on="1"/>
      </contour>
      <contour>
        <pt x="122" y="512" on="1"/>
        <pt x="208" y="517" on="1"/>
        <pt x="229" y="490" on="0"/>
        <pt x="237" y="437" on="0"/>
        <pt x="233" y="407" on="1"/>
        <pt x="184" y="0" on="1"/>
        <pt x="76" y="0" on="1"/>
        <pt x="123" y="386" on="1"/>
        <pt x="129" y="444" on="0"/>
      </contour>
    </TTGlyph>
    <TTGlyph name="nine" xMin="84" yMin="-10" xMax="593" yMax="712">
      <contour>
        <pt x="204" y="71" on="1"/>
        <pt x="257" y="71" on="0"/>
        <pt x="348" y="116" on="0"/>
        <pt x="418" y="196" on="0"/>
        <pt x="464" y="305" on="0"/>
        <pt x="472" y="370" on="1"/>
        <pt x="477" y="411" on="0"/>
        <pt x="475" y="503" on="0"/>
        <pt x="450" y="580" on="0"/>
        <pt x="397" y="631" on="0"/>
        <pt x="350" y="631" on="1"/>
        <pt x="322" y="631" on="0"/>
        <pt x="274" y="608" on="0"/>
        <pt x="236" y="567" on="0"/>
        <pt x="211" y="512" on="0"/>
        <pt x="207" y="480" on="1"/>
        <pt x="199" y="414" on="0"/>
        <pt x="249" y="347" on="0"/>
        <pt x="290" y="347" on="1"/>
        <pt x="296" y="347" on="0"/>
        <pt x="314" y="349" on="0"/>
        <pt x="325" y="351" on="1"/>
        <pt x="344" y="355" on="0"/>
        <pt x="375" y="350" on="0"/>
        <pt x="400" y="337" on="0"/>
        <pt x="419" y="319" on="0"/>
        <pt x="425" y="310" on="1"/>
        <pt x="399" y="297" on="0"/>
        <pt x="357" y="281" on="0"/>
        <pt x="322" y="271" on="0"/>
        <pt x="291" y="267" on="0"/>
        <pt x="276" y="267" on="1"/>
        <pt x="232" y="267" on="0"/>
        <pt x="159" y="294" on="0"/>
        <pt x="109" y="348" on="0"/>
        <pt x="87" y="428" on="0"/>
        <pt x="93" y="480" on="1"/>
        <pt x="99" y="523" on="0"/>
        <pt x="142" y="607" on="0"/>
        <pt x="212" y="672" on="0"/>
        <pt x="303" y="712" on="0"/>
        <pt x="357" y="712" on="1"/>
        <pt x="432" y="712" on="0"/>
        <pt x="528" y="653" on="0"/>
        <pt x="580" y="557" on="0"/>
        <pt x="593" y="435" on="0"/>
        <pt x="585" y="372" on="1"/>
        <pt x="576" y="301" on="0"/>
        <pt x="513" y="164" on="0"/>
        <pt x="411" y="56" on="0"/>
        <pt x="275" y="-10" on="0"/>
        <pt x="194" y="-10" on="1"/>
        <pt x="169" y="-10" on="0"/>
        <pt x="113" y="2" on="0"/>
        <pt x="84" y="15" on="1"/>
        <pt x="119" y="88" on="1"/>
        <pt x="142" y="79" on="0"/>
        <pt x="185" y="71" on="0"/>
      </contour>
    </TTGlyph>
    <TTGlyph name="ntilde" xMin="76" yMin="0" xMax="561" yMax="735">
      <contour>
        <pt x="279" y="618" on="1"/>
        <pt x="219" y="624" on="1"/>
        <pt x="227" y="680" on="0"/>
        <pt x="289" y="735" on="0"/>
        <pt x="325" y="735" on="1"/>
        <pt x="347" y="735" on="0"/>
        <pt x="376" y="718" on="0"/>
        <pt x="399" y="697" on="0"/>
        <pt x="421" y="680" on="0"/>
        <pt x="436" y="680" on="1"/>
        <pt x="450" y="680" on="0"/>
        <pt x="468" y="708" on="0"/>
        <pt x="474" y="734" on="1"/>
        <pt x="532" y="728" on="1"/>
        <pt x="527" y="696" on="0"/>
        <pt x="505" y="654" on="0"/>
        <pt x="476" y="628" on="0"/>
        <pt x="445" y="617" on="0"/>
        <pt x="431" y="617" on="1"/>
        <pt x="407" y="617" on="0"/>
        <pt x="376" y="634" on="0"/>
        <pt x="354" y="655" on="0"/>
        <pt x="334" y="672" on="0"/>
        <pt x="321" y="672" on="1"/>
        <pt x="309" y="672" on="0"/>
        <pt x="285" y="648" on="0"/>
      </contour>
      <contour>
        <pt x="402" y="0" on="1"/>
        <pt x="447" y="373" on="1"/>
        <pt x="452" y="405" on="0"/>
        <pt x="428" y="446" on="0"/>
        <pt x="399" y="446" on="1"/>
        <pt x="389" y="446" on="0"/>
        <pt x="369" y="442" on="0"/>
        <pt x="348" y="438" on="0"/>
        <pt x="327" y="436" on="0"/>
        <pt x="317" y="438" on="1"/>
        <pt x="301" y="440" on="0"/>
        <pt x="279" y="462" on="0"/>
        <pt x="269" y="477" on="1"/>
        <pt x="325" y="507" on="0"/>
        <pt x="400" y="528" on="0"/>
        <pt x="429" y="528" on="1"/>
        <pt x="457" y="528" on="0"/>
        <pt x="508" y="511" on="0"/>
        <pt x="544" y="474" on="0"/>
        <pt x="561" y="412" on="0"/>
        <pt x="556" y="367" on="1"/>
        <pt x="511" y="0" on="1"/>
      </contour>
      <contour>
        <pt x="122" y="512" on="1"/>
        <pt x="208" y="517" on="1"/>
        <pt x="229" y="490" on="0"/>
        <pt x="237" y="437" on="0"/>
        <pt x="233" y="407" on="1"/>
        <pt x="184" y="0" on="1"/>
        <pt x="76" y="0" on="1"/>
        <pt x="123" y="386" on="1"/>
        <pt x="129" y="444" on="0"/>
      </contour>
    </TTGlyph>
    <TTGlyph name="numbersign" xMin="56" yMin="0" xMax="790" yMax="702">
      <contour>
        <pt x="425" y="0" on="1"/>
        <pt x="434" y="32" on="0"/>
        <pt x="454" y="97" on="0"/>
        <pt x="464" y="129" on="1"/>
        <pt x="476" y="162" on="1"/>
        <pt x="288" y="162" on="1"/>
        <pt x="297" y="181" on="0"/>
        <pt x="319" y="208" on="0"/>
        <pt x="349" y="225" on="0"/>
        <pt x="390" y="233" on="0"/>
        <pt x="419" y="233" on="1"/>
        <pt x="496" y="233" on="1"/>
        <pt x="559" y="432" on="1"/>
        <pt x="572" y="471" on="1"/>
        <pt x="351" y="471" on="1"/>
        <pt x="204" y="0" on="1"/>
        <pt x="118" y="0" on="1"/>
        <pt x="128" y="32" on="0"/>
        <pt x="147" y="98" on="0"/>
        <pt x="158" y="130" on="1"/>
        <pt x="169" y="162" on="1"/>
        <pt x="56" y="162" on="1"/>
        <pt x="65" y="233" on="1"/>
        <pt x="189" y="233" on="1"/>
        <pt x="253" y="433" on="1"/>
        <pt x="265" y="471" on="1"/>
        <pt x="153" y="471" on="1"/>
        <pt x="162" y="542" on="1"/>
        <pt x="287" y="542" on="1"/>
        <pt x="337" y="702" on="1"/>
        <pt x="423" y="702" on="1"/>
        <pt x="373" y="542" on="1"/>
        <pt x="593" y="542" on="1"/>
        <pt x="644" y="702" on="1"/>
        <pt x="730" y="702" on="1"/>
        <pt x="680" y="542" on="1"/>
        <pt x="790" y="542" on="1"/>
        <pt x="781" y="471" on="1"/>
        <pt x="657" y="471" on="1"/>
        <pt x="583" y="233" on="1"/>
        <pt x="693" y="233" on="1"/>
        <pt x="684" y="162" on="1"/>
        <pt x="561" y="162" on="1"/>
        <pt x="511" y="0" on="1"/>
      </contour>
    </TTGlyph>
    <TTGlyph name="o" xMin="64" yMin="-11" xMax="577" yMax="528">
      <contour>
        <pt x="185" y="259" on="1"/>
        <pt x="180" y="217" on="0"/>
        <pt x="190" y="148" on="0"/>
        <pt x="219" y="98" on="0"/>
        <pt x="266" y="70" on="0"/>
        <pt x="298" y="70" on="1"/>
        <pt x="332" y="70" on="0"/>
        <pt x="387" y="100" on="0"/>
        <pt x="427" y="152" on="0"/>
        <pt x="451" y="220" on="0"/>
        <pt x="456" y="259" on="1"/>
        <pt x="467" y="351" on="0"/>
        <pt x="402" y="447" on="0"/>
        <pt x="344" y="447" on="1"/>
        <pt x="315" y="447" on="0"/>
        <pt x="263" y="423" on="0"/>
        <pt x="220" y="375" on="0"/>
        <pt x="191" y="305" on="0"/>
      </contour>
      <contour>
        <pt x="72" y="259" on="1"/>
        <pt x="81" y="328" on="0"/>
        <pt x="138" y="429" on="0"/>
        <pt x="217" y="496" on="0"/>
        <pt x="310" y="528" on="0"/>
        <pt x="354" y="528" on="1"/>
        <pt x="412" y="528" on="0"/>
        <pt x="499" y="487" on="0"/>
        <pt x="555" y="415" on="0"/>
        <pt x="577" y="316" on="0"/>
        <pt x="570" y="259" on="1"/>
        <pt x="562" y="194" on="0"/>
        <pt x="509" y="94" on="0"/>
        <pt x="431" y="25" on="0"/>
        <pt x="337" y="-11" on="0"/>
        <pt x="288" y="-11" on="1"/>
        <pt x="237" y="-11" on="0"/>
        <pt x="151" y="24" on="0"/>
        <pt x="91" y="93" on="0"/>
        <pt x="64" y="194" on="0"/>
      </contour>
    </TTGlyph>
    <TTGlyph name="oacute" xMin="64" yMin="-11" xMax="578" yMax="740">
      <contour>
        <pt x="526" y="740" on="1"/>
        <pt x="428" y="635" on="1"/>
        <pt x="402" y="607" on="0"/>
        <pt x="336" y="595" on="0"/>
        <pt x="312" y="602" on="1"/>
        <pt x="417" y="740" on="1"/>
      </contour>
      <contour>
        <pt x="456" y="259" on="1"/>
        <pt x="467" y="351" on="0"/>
        <pt x="402" y="447" on="0"/>
        <pt x="344" y="447" on="1"/>
        <pt x="315" y="447" on="0"/>
        <pt x="262" y="423" on="0"/>
        <pt x="220" y="375" on="0"/>
        <pt x="191" y="305" on="0"/>
        <pt x="185" y="259" on="1"/>
        <pt x="174" y="166" on="0"/>
        <pt x="240" y="70" on="0"/>
        <pt x="298" y="70" on="1"/>
        <pt x="327" y="70" on="0"/>
        <pt x="379" y="94" on="0"/>
        <pt x="421" y="142" on="0"/>
        <pt x="450" y="213" on="0"/>
      </contour>
      <contour>
        <pt x="570" y="259" on="1"/>
        <pt x="562" y="196" on="0"/>
        <pt x="510" y="96" on="0"/>
        <pt x="434" y="26" on="0"/>
        <pt x="339" y="-11" on="0"/>
        <pt x="288" y="-11" on="1"/>
        <pt x="236" y="-11" on="0"/>
        <pt x="149" y="25" on="0"/>
        <pt x="91" y="94" on="0"/>
        <pt x="64" y="194" on="0"/>
        <pt x="72" y="259" on="1"/>
        <pt x="80" y="322" on="0"/>
        <pt x="132" y="421" on="0"/>
        <pt x="208" y="491" on="0"/>
        <pt x="303" y="528" on="0"/>
        <pt x="354" y="528" on="1"/>
        <pt x="406" y="528" on="0"/>
        <pt x="492" y="492" on="0"/>
        <pt x="551" y="423" on="0"/>
        <pt x="578" y="323" on="0"/>
      </contour>
    </TTGlyph>
    <TTGlyph name="ocircumflex" xMin="64" yMin="-11" xMax="578" yMax="743">
      <contour>
        <pt x="346" y="743" on="1"/>
        <pt x="416" y="743" on="1"/>
        <pt x="508" y="599" on="1"/>
        <pt x="447" y="589" on="1"/>
        <pt x="372" y="669" on="1"/>
        <pt x="277" y="588" on="1"/>
        <pt x="220" y="599" on="1"/>
      </contour>
      <contour>
        <pt x="456" y="259" on="1"/>
        <pt x="467" y="351" on="0"/>
        <pt x="402" y="447" on="0"/>
        <pt x="344" y="447" on="1"/>
        <pt x="315" y="447" on="0"/>
        <pt x="262" y="423" on="0"/>
        <pt x="220" y="375" on="0"/>
        <pt x="191" y="305" on="0"/>
        <pt x="185" y="259" on="1"/>
        <pt x="174" y="166" on="0"/>
        <pt x="240" y="70" on="0"/>
        <pt x="298" y="70" on="1"/>
        <pt x="327" y="70" on="0"/>
        <pt x="379" y="94" on="0"/>
        <pt x="421" y="142" on="0"/>
        <pt x="450" y="213" on="0"/>
      </contour>
      <contour>
        <pt x="570" y="259" on="1"/>
        <pt x="562" y="196" on="0"/>
        <pt x="510" y="96" on="0"/>
        <pt x="434" y="26" on="0"/>
        <pt x="339" y="-11" on="0"/>
        <pt x="288" y="-11" on="1"/>
        <pt x="236" y="-11" on="0"/>
        <pt x="149" y="25" on="0"/>
        <pt x="91" y="94" on="0"/>
        <pt x="64" y="194" on="0"/>
        <pt x="72" y="259" on="1"/>
        <pt x="80" y="322" on="0"/>
        <pt x="132" y="421" on="0"/>
        <pt x="208" y="491" on="0"/>
        <pt x="303" y="528" on="0"/>
        <pt x="354" y="528" on="1"/>
        <pt x="406" y="528" on="0"/>
        <pt x="492" y="492" on="0"/>
        <pt x="551" y="423" on="0"/>
        <pt x="578" y="323" on="0"/>
      </contour>
    </TTGlyph>
    <TTGlyph name="odieresis" xMin="64" yMin="-11" xMax="578" yMax="725">
      <contour>
        <pt x="413" y="670" on="1"/>
        <pt x="416" y="693" on="0"/>
        <pt x="453" y="725" on="0"/>
        <pt x="476" y="725" on="1"/>
        <pt x="499" y="725" on="0"/>
        <pt x="527" y="693" on="0"/>
        <pt x="524" y="670" on="1"/>
        <pt x="521" y="647" on="0"/>
        <pt x="485" y="615" on="0"/>
        <pt x="462" y="615" on="1"/>
        <pt x="439" y="615" on="0"/>
        <pt x="410" y="647" on="0"/>
      </contour>
      <contour>
        <pt x="219" y="670" on="1"/>
        <pt x="222" y="693" on="0"/>
        <pt x="258" y="725" on="0"/>
        <pt x="281" y="725" on="1"/>
        <pt x="304" y="725" on="0"/>
        <pt x="333" y="693" on="0"/>
        <pt x="330" y="670" on="1"/>
        <pt x="327" y="647" on="0"/>
        <pt x="290" y="615" on="0"/>
        <pt x="267" y="615" on="1"/>
        <pt x="244" y="615" on="0"/>
        <pt x="216" y="647" on="0"/>
      </contour>
      <contour>
        <pt x="456" y="259" on="1"/>
        <pt x="467" y="351" on="0"/>
        <pt x="401" y="447" on="0"/>
        <pt x="344" y="447" on="1"/>
        <pt x="315" y="447" on="0"/>
        <pt x="262" y="423" on="0"/>
        <pt x="220" y="375" on="0"/>
        <pt x="191" y="305" on="0"/>
        <pt x="185" y="259" on="1"/>
        <pt x="174" y="166" on="0"/>
        <pt x="239" y="70" on="0"/>
        <pt x="298" y="70" on="1"/>
        <pt x="326" y="70" on="0"/>
        <pt x="379" y="94" on="0"/>
        <pt x="421" y="142" on="0"/>
        <pt x="450" y="213" on="0"/>
      </contour>
      <contour>
        <pt x="570" y="259" on="1"/>
        <pt x="562" y="196" on="0"/>
        <pt x="510" y="96" on="0"/>
        <pt x="434" y="26" on="0"/>
        <pt x="339" y="-11" on="0"/>
        <pt x="288" y="-11" on="1"/>
        <pt x="236" y="-11" on="0"/>
        <pt x="149" y="25" on="0"/>
        <pt x="91" y="94" on="0"/>
        <pt x="64" y="194" on="0"/>
        <pt x="72" y="259" on="1"/>
        <pt x="80" y="322" on="0"/>
        <pt x="132" y="421" on="0"/>
        <pt x="208" y="491" on="0"/>
        <pt x="303" y="528" on="0"/>
        <pt x="354" y="528" on="1"/>
        <pt x="406" y="528" on="0"/>
        <pt x="492" y="492" on="0"/>
        <pt x="551" y="423" on="0"/>
        <pt x="578" y="323" on="0"/>
      </contour>
    </TTGlyph>
    <TTGlyph name="oe" xMin="64" yMin="-11" xMax="911" yMax="528">
      <contour>
        <pt x="456" y="259" on="1"/>
        <pt x="461" y="305" on="0"/>
        <pt x="449" y="376" on="0"/>
        <pt x="418" y="423" on="0"/>
        <pt x="372" y="447" on="0"/>
        <pt x="344" y="447" on="1"/>
        <pt x="315" y="447" on="0"/>
        <pt x="262" y="423" on="0"/>
        <pt x="220" y="375" on="0"/>
        <pt x="191" y="305" on="0"/>
        <pt x="185" y="259" on="1"/>
        <pt x="174" y="166" on="0"/>
        <pt x="239" y="70" on="0"/>
        <pt x="298" y="70" on="1"/>
        <pt x="355" y="70" on="0"/>
        <pt x="443" y="165" on="0"/>
      </contour>
      <contour>
        <pt x="565" y="263" on="1"/>
        <pt x="559" y="219" on="0"/>
        <pt x="574" y="148" on="0"/>
        <pt x="608" y="97" on="0"/>
        <pt x="661" y="70" on="0"/>
        <pt x="694" y="70" on="1"/>
        <pt x="729" y="70" on="0"/>
        <pt x="794" y="85" on="0"/>
        <pt x="841" y="106" on="1"/>
        <pt x="859" y="33" on="1"/>
        <pt x="805" y="7" on="0"/>
        <pt x="712" y="-11" on="0"/>
        <pt x="673" y="-11" on="1"/>
        <pt x="607" y="-11" on="0"/>
        <pt x="514" y="61" on="0"/>
        <pt x="494" y="117" on="1"/>
        <pt x="457" y="58" on="0"/>
        <pt x="347" y="-11" on="0"/>
        <pt x="288" y="-11" on="1"/>
        <pt x="236" y="-11" on="0"/>
        <pt x="149" y="25" on="0"/>
        <pt x="91" y="94" on="0"/>
        <pt x="64" y="194" on="0"/>
        <pt x="72" y="259" on="1"/>
        <pt x="80" y="322" on="0"/>
        <pt x="132" y="421" on="0"/>
        <pt x="208" y="491" on="0"/>
        <pt x="303" y="528" on="0"/>
        <pt x="354" y="528" on="1"/>
        <pt x="412" y="528" on="0"/>
        <pt x="504" y="471" on="0"/>
        <pt x="527" y="405" on="1"/>
        <pt x="561" y="464" on="0"/>
        <pt x="675" y="528" on="0"/>
        <pt x="741" y="528" on="1"/>
        <pt x="793" y="528" on="0"/>
        <pt x="871" y="482" on="0"/>
        <pt x="911" y="405" on="0"/>
        <pt x="911" y="303" on="0"/>
        <pt x="886" y="246" on="1"/>
        <pt x="599" y="246" on="1"/>
        <pt x="613" y="276" on="0"/>
        <pt x="657" y="317" on="0"/>
        <pt x="690" y="317" on="1"/>
        <pt x="806" y="317" on="1"/>
        <pt x="813" y="344" on="0"/>
        <pt x="806" y="392" on="0"/>
        <pt x="783" y="428" on="0"/>
        <pt x="746" y="449" on="0"/>
        <pt x="722" y="449" on="1"/>
        <pt x="666" y="449" on="0"/>
        <pt x="578" y="356" on="0"/>
      </contour>
    </TTGlyph>
</ttFont>
